<?xml version="1.0" encoding="utf-8"?>
<!-- Generator: Adobe Illustrator 20.1.0, SVG Export Plug-In . SVG Version: 6.00 Build 0)  -->
<svg version="1.1" id="Capa_1" xmlns="http://www.w3.org/2000/svg" xmlns:xlink="http://www.w3.org/1999/xlink" x="0px" y="0px"
	 viewBox="0 0 512 512" style="enable-background:new 0 0 512 512;" xml:space="preserve">
<style type="text/css">
	.st0{fill:#28618A;}
</style>
<g>
	<g>
		<path class="st0" d="M492,429.9h-93.7l87.8-87.8c8.4-8.4,8.4-21.9,0-30.3L222.7,48.4c-8.4-8.4-21.9-8.4-30.3,0L25.9,214.9
			c-8.4,8.4-8.4,21.9,0,30.3l184.6,184.6H20c-11,0-20,8.9-20,20c0,11,8.9,20,20,20h472c11,0,20-8.9,20-20
			C512,438.8,503.1,429.9,492,429.9z M405.4,291.7l-134-28.5l-28.5-134L405.4,291.7z M71.4,230.1l122-122l37.9,178.2
			c0.9,4.2,3,8,5.9,11c2.9,2.9,6.7,5,11,5.9l178.2,37.9l-88.8,88.8h-66.5L71.4,230.1z"/>
	</g>
</g>
</svg>
