<?xml version="1.0" encoding="utf-8"?>
<!-- Generator: Adobe Illustrator 20.1.0, SVG Export Plug-In . SVG Version: 6.00 Build 0)  -->
<svg version="1.1" id="Capa_1" xmlns="http://www.w3.org/2000/svg" xmlns:xlink="http://www.w3.org/1999/xlink" x="0px" y="0px"
	 viewBox="0 0 512 512" style="enable-background:new 0 0 512 512;" xml:space="preserve">
<style type="text/css">
	.st0{fill:#28618A;}
</style>
<g>
	<path class="st0" d="M256,0C114.8,0,0,114.8,0,256c0,141.2,114.8,256,256,256c8.7,0,15.8-7.1,15.8-15.8c0-8.7-7.1-15.8-15.8-15.8
		C132.2,480.4,31.6,379.8,31.6,256C31.6,132.3,132.2,31.6,256,31.6S480.4,132.3,480.4,256c0,51.7-27.5,103-66.9,124.7
		c-14.3,7.9-29.8,11.8-46.4,11.9c9.9-5.9,18.5-13.9,24.9-24c1.3-1.9,2.9-3.5,3.7-5.6c5.1-12.4,5.6-26.4,8.7-39.4
		c3.8-16.7-73-49.3-79.7-28.4c-2.4,7.7-6.1,32.1-11,38.5c-4.3,5.7-14.9,3-21.6-2.6c-17.5-14.9-37.1-36.9-54.2-54.2l0,0
		c-0.4-0.5-1-1-1.4-1.4c-0.5-0.5-1-1-1.5-1.4l0,0c-17.3-17.1-39.3-36.6-54.2-54.2c-5.6-6.6-8.4-17.2-2.6-21.6
		c6.4-4.9,30.8-8.5,38.5-10.9c20.8-6.7-11.8-83.5-28.5-79.7c-13,3.1-27.1,3.5-39.4,8.7c-2.1,0.9-3.7,2.5-5.6,3.8
		c-43.9,27.8-49.5,95.3-6.7,145.6c16.3,19.2,33.3,37.9,50.9,56l-0.1,0.1c0.5,0.5,1,0.9,1.5,1.4c0.5,0.5,0.9,1,1.4,1.5l0.1-0.1
		c18.2,17.5,39.7,43.3,74.7,66.7c73.7,49.2,130.3,35.5,163.6,17.2c57.5-31.7,83.3-99.3,83.3-152.3C512,114.8,397.1,0,256,0z"/>
</g>
</svg>
