<?xml version="1.0" encoding="utf-8"?>
<!-- Generator: Adobe Illustrator 20.1.0, SVG Export Plug-In . SVG Version: 6.00 Build 0)  -->
<svg version="1.1" id="Layer_1" xmlns="http://www.w3.org/2000/svg" xmlns:xlink="http://www.w3.org/1999/xlink" x="0px" y="0px"
	 viewBox="0 0 300 300" style="enable-background:new 0 0 300 300;" xml:space="preserve">
<style type="text/css">
	.st0{fill:#04677B;}
	.st1{fill:#FFFFFF;}
	.st2{fill:#CC2031;}
</style>
<rect y="0" class="st0" width="300" height="300"/>
<circle class="st1" cx="150" cy="150" r="139.3"/>
<path class="st0" d="M48.4,192.1l-25.9-25.9c2.9,23.4,12.2,44.8,25.9,62.6V192.1z"/>
<path class="st0" d="M107.9,251.6H71.2c17.7,13.8,39.2,23,62.6,25.9L107.9,251.6z"/>
<path class="st0" d="M251.6,71.2v36.7l25.9,25.9C274.6,110.4,265.4,89,251.6,71.2z"/>
<path class="st0" d="M192.1,251.6l-25.9,25.9c23.4-2.9,44.8-12.2,62.6-25.9H192.1z"/>
<path class="st0" d="M251.6,192.1v36.7c13.8-17.7,23-39.2,25.9-62.6L251.6,192.1z"/>
<polygon class="st0" points="240.9,97.2 240.9,59.1 202.8,59.1 "/>
<polygon class="st0" points="251.6,176.9 278.6,150 251.6,123.1 "/>
<polygon class="st0" points="240.9,202.8 240.9,240.9 202.8,240.9 "/>
<polygon class="st0" points="176.9,251.6 150,278.6 123.1,251.6 "/>
<polygon class="st0" points="59.1,240.9 97.2,240.9 59.1,202.8 "/>
<polygon class="st0" points="48.4,176.9 21.4,150 48.4,123.1 "/>
<path class="st2" d="M233.4,104.8l-38.2-38.2c-4.8-4.8-11.4-7.5-18.2-7.5h-37.4c-5.8,0-10.9-3.9-12.4-9.6
	c-2.5-9.3-0.2-19.6,6.7-27.1c-4.5,1.1-8.8,3.3-12.3,6.8s-5.7,7.7-6.8,12.1c-0.9-1.3-1.9-2.6-3.1-3.7c-3.1-3.1-6.9-5.3-10.9-6.5
	c-2,3.6-3.1,7.8-3.1,12.3c0,1.6,0.2,3.2,0.5,4.8c-3.9-2.4-8.5-3.7-13.4-3.7c-5,0-9.6,1.4-13.5,3.9c10.2,0.4,19,6.1,23.9,14.3
	c2.9,5,2.1,11.5-2,15.6l-26.5,26.5c-4.8,4.8-7.5,11.4-7.5,18.2v54c0,6.8,2.7,13.4,7.5,18.2l38.2,38.2c4.8,4.8,11.4,7.5,18.2,7.5h54
	c6.8,0,13.4-2.7,18.2-7.5l38.2-38.2c4.8-4.8,7.5-11.4,7.5-18.2v-54C240.9,116.2,238.2,109.6,233.4,104.8z"/>
</svg>
