<?xml version="1.0" encoding="utf-8"?>
<!-- Generator: Adobe Illustrator 20.1.0, SVG Export Plug-In . SVG Version: 6.00 Build 0)  -->
<svg version="1.1" id="Layer_1" xmlns="http://www.w3.org/2000/svg" xmlns:xlink="http://www.w3.org/1999/xlink" x="0px" y="0px"
	 viewBox="0 0 240 240" style="enable-background:new 0 0 240 240;" xml:space="preserve">
<style type="text/css">
	.st0{fill:#FFFFFF;}
</style>
<path class="st0" d="M25.1,159L0.9,134.7c2.7,21.9,11.4,42,24.2,58.6V159z"/>
<path class="st0" d="M80.7,214.8H46.5c16.6,12.9,36.6,21.6,58.4,24.3L80.7,214.8z"/>
<path class="st0" d="M214.9,45.7v34.3l24.2,24.3C236.3,82.5,227.7,62.4,214.9,45.7z"/>
<path class="st0" d="M159.3,214.8l-24.2,24.3c21.8-2.8,41.9-11.4,58.4-24.3H159.3z"/>
<path class="st0" d="M214.9,159v34.3c12.9-16.6,21.5-36.7,24.2-58.6L214.9,159z"/>
<polygon class="st0" points="204.9,70 204.9,34.3 169.3,34.3 "/>
<polygon class="st0" points="214.9,144.8 240,119.5 214.9,94.3 "/>
<polygon class="st0" points="204.9,169 204.9,204.7 169.3,204.7 "/>
<polygon class="st0" points="145.1,214.8 120,240 94.9,214.8 "/>
<polygon class="st0" points="35.1,204.7 70.7,204.7 35.1,169 "/>
<polygon class="st0" points="25.1,144.8 0,119.5 25.1,94.3 "/>
<path class="st0" d="M197.8,77.2l-35.6-35.8c-4.5-4.5-10.6-7.1-17-7.1h-34.9c-5.5,0-10.2-3.7-11.6-9C96.4,16.7,98.4,7,104.9,0
	c-4.2,1-8.2,3.1-11.5,6.4c-3.2,3.2-5.3,7.2-6.3,11.3c-0.8-1.2-1.8-2.4-2.9-3.5c-2.9-2.9-6.4-5-10.1-6.1c-1.8,3.4-2.9,7.3-2.9,11.5
	c0,1.5,0.2,3,0.4,4.5c-3.6-2.2-7.9-3.5-12.5-3.5c-4.6,0-9,1.3-12.6,3.6C56,24.7,64.3,30,68.8,37.7c2.7,4.7,2,10.7-1.9,14.6
	L42.2,77.2c-4.5,4.5-7,10.6-7,17v50.6c0,6.4,2.5,12.5,7,17l35.6,35.8c4.5,4.5,10.6,7.1,17,7.1l50.4,0c6.4,0,12.5-2.5,17-7.1
	l35.6-35.8c4.5-4.5,7-10.6,7-17V94.2C204.9,87.8,202.3,81.7,197.8,77.2z"/>
</svg>
