<?xml version="1.0" encoding="utf-8"?>
<!-- Generator: Adobe Illustrator 20.1.0, SVG Export Plug-In . SVG Version: 6.00 Build 0)  -->
<svg version="1.1" id="Layer_1" xmlns="http://www.w3.org/2000/svg" xmlns:xlink="http://www.w3.org/1999/xlink" x="0px" y="0px"
	 viewBox="0 0 900 200" style="enable-background:new 0 0 900 200;" xml:space="preserve">
<style type="text/css">
	.st0{fill:#FFFFFF;}
	.st1{fill:#04677B;}
	.st2{fill:#CC2031;}
</style>
<path class="st0" d="M303.1,123.9c0-3.7-1.3-6.5-3.9-8.5s-7.3-4.1-14.1-6.3c-6.8-2.2-12.1-4.4-16.1-6.5
	c-10.8-5.8-16.1-13.6-16.1-23.5c0-5.1,1.4-9.7,4.3-13.7s7-7.2,12.4-9.4c5.4-2.3,11.5-3.4,18.2-3.4c6.8,0,12.8,1.2,18.1,3.7
	c5.3,2.5,9.4,5.9,12.3,10.4s4.4,9.5,4.4,15.2h-19.5c0-4.3-1.4-7.7-4.1-10.1s-6.6-3.6-11.5-3.6c-4.8,0-8.5,1-11.1,3c-2.7,2-4,4.7-4,8
	c0,3.1,1.5,5.7,4.7,7.7c3.1,2.1,7.7,4,13.7,5.9c11.1,3.3,19.2,7.5,24.3,12.4c5.1,5,7.6,11.1,7.6,18.5c0,8.2-3.1,14.6-9.3,19.3
	c-6.2,4.7-14.6,7-25,7c-7.3,0-14-1.3-20-4s-10.6-6.3-13.7-11c-3.1-4.6-4.7-10-4.7-16.1h19.6c0,10.4,6.3,15.7,18.8,15.7
	c4.6,0,8.2-0.9,10.8-2.8C301.8,129.9,303.1,127.2,303.1,123.9z"/>
<path class="st0" d="M375.6,148.7c-0.9-1.7-1.5-3.8-1.9-6.3c-4.6,5.1-10.5,7.6-17.8,7.6c-6.9,0-12.7-2-17.2-6s-6.8-9-6.8-15.1
	c0-7.5,2.8-13.2,8.3-17.2s13.5-6,24-6.1h8.7v-4c0-3.3-0.8-5.9-2.5-7.8c-1.7-2-4.3-2.9-7.9-2.9c-3.2,0-5.6,0.8-7.5,2.3
	c-1.8,1.5-2.7,3.6-2.7,6.3h-18.8c0-4.1,1.3-7.9,3.8-11.4s6.1-6.2,10.7-8.2s9.8-3,15.5-3c8.7,0,15.6,2.2,20.7,6.5
	c5.1,4.4,7.7,10.5,7.7,18.4v30.5c0,6.7,1,11.8,2.8,15.2v1.1L375.6,148.7L375.6,148.7z M360.1,135.6c2.8,0,5.4-0.6,7.7-1.9
	c2.3-1.2,4.1-2.9,5.2-5v-12.2h-7c-9.4,0-14.5,3.3-15.1,9.8l-0.1,1.1c0,2.3,0.8,4.3,2.5,5.8C354.9,134.9,357.2,135.6,360.1,135.6z"/>
<path class="st0" d="M446,97.2c-2.5-0.3-4.8-0.5-6.8-0.5c-7.1,0-11.8,2.4-14,7.2V150h-18.8V79.5h17.8l0.5,8.4
	c3.8-6.5,9-9.7,15.7-9.7c2.1,0,4,0.3,5.9,0.9L446,97.2z"/>
<path class="st0" d="M493.4,129.2c0-2.3-1.1-4.1-3.4-5.4s-5.9-2.5-11-3.6c-16.7-3.5-25.1-10.6-25.1-21.4c0-6.2,2.6-11.5,7.8-15.7
	c5.2-4.2,12-6.3,20.4-6.3c8.9,0,16.1,2.1,21.4,6.3c5.4,4.2,8,9.7,8,16.4h-18.8c0-2.7-0.9-5-2.6-6.7c-1.7-1.8-4.4-2.6-8.1-2.6
	c-3.2,0-5.7,0.7-7.4,2.2c-1.7,1.4-2.6,3.3-2.6,5.5c0,2.1,1,3.8,3,5.1c2,1.3,5.3,2.4,10,3.3s8.6,2,11.9,3.1c9.9,3.7,14.9,10,14.9,19
	c0,6.4-2.8,11.6-8.3,15.6s-12.8,6-21.5,6c-5.9,0-11.2-1-15.7-3.1c-4.6-2.1-8.2-5-10.8-8.7c-2.6-3.7-3.9-7.6-3.9-11.9h17.8
	c0.2,3.3,1.4,5.9,3.7,7.7c2.3,1.8,5.4,2.7,9.2,2.7c3.6,0,6.4-0.7,8.2-2C492.4,133.3,493.4,131.5,493.4,129.2z"/>
<path class="st0" d="M542.3,87.2c5-6,11.3-9,18.8-9c15.3,0,23,8.9,23.2,26.6V150h-18.8v-44.6c0-4.1-0.9-7-2.6-9
	c-1.7-1.9-4.6-2.9-8.7-2.9c-5.5,0-9.5,2.1-11.9,6.3V150h-18.8V50h18.8V87.2z"/>
<path class="st0" d="M595.7,112.8c0-7,1.3-13.2,4-18.7s6.6-9.7,11.6-12.7c5.1-3,10.9-4.5,17.6-4.5c9.5,0,17.3,2.9,23.3,8.7
	c6,5.8,9.4,13.7,10,23.7l0.2,4.8c0,10.8-3,19.5-9.1,26c-6,6.5-14.1,9.8-24.3,9.8s-18.3-3.3-24.3-9.8c-6.1-6.5-9.1-15.4-9.1-26.5
	L595.7,112.8L595.7,112.8z M614.5,114.2c0,6.7,1.3,11.8,3.8,15.4c2.5,3.5,6.1,5.3,10.8,5.3c4.6,0,8.1-1.7,10.7-5.2
	c2.6-3.5,3.8-9.1,3.8-16.8c0-6.6-1.3-11.6-3.8-15.2c-2.6-3.6-6.2-5.4-10.8-5.4s-8.1,1.8-10.7,5.4
	C615.8,101.1,614.5,106.7,614.5,114.2z"/>
<path class="st0" d="M691.8,79.5l0.6,7.9c5-6.1,11.8-9.2,20.3-9.2c9.1,0,15.3,3.6,18.7,10.8c4.9-7.2,12-10.8,21.2-10.8
	c7.6,0,13.3,2.2,17.1,6.7c3.7,4.4,5.6,11.2,5.6,20.1v45h-18.9v-44.9c0-4-0.8-6.9-2.3-8.8c-1.6-1.8-4.3-2.7-8.3-2.7
	c-5.7,0-9.6,2.7-11.7,8.1L734,150h-18.8v-44.9c0-4.1-0.8-7-2.4-8.8c-1.6-1.8-4.3-2.7-8.2-2.7c-5.3,0-9.2,2.2-11.6,6.6V150h-18.8
	V79.5H691.8z"/>
<path class="st0" d="M830.5,148.7c-0.9-1.7-1.5-3.8-1.9-6.3c-4.6,5.1-10.5,7.6-17.8,7.6c-6.9,0-12.7-2-17.2-6s-6.8-9-6.8-15.1
	c0-7.5,2.8-13.2,8.3-17.2s13.5-6,24-6.1h8.7v-4c0-3.3-0.8-5.9-2.5-7.8c-1.7-2-4.3-2.9-7.9-2.9c-3.2,0-5.6,0.8-7.5,2.3
	c-1.8,1.5-2.7,3.6-2.7,6.3h-18.8c0-4.1,1.3-7.9,3.8-11.4s6.1-6.2,10.7-8.2c4.6-2,9.8-3,15.5-3c8.7,0,15.6,2.2,20.7,6.5
	c5.1,4.4,7.7,10.5,7.7,18.4v30.5c0,6.7,1,11.8,2.8,15.2v1.1L830.5,148.7L830.5,148.7z M815,135.6c2.8,0,5.4-0.6,7.7-1.9
	c2.3-1.2,4.1-2.9,5.2-5v-12.2h-7c-9.4,0-14.5,3.3-15.1,9.8l-0.1,1.1c0,2.3,0.8,4.3,2.5,5.8C809.9,134.9,812.1,135.6,815,135.6z"/>
<path class="st0" d="M899.7,97.2c-2.5-0.3-4.8-0.5-6.8-0.5c-7.1,0-11.8,2.4-14,7.2V150h-18.8V79.5h17.8l0.5,8.4
	c3.8-6.5,9-9.7,15.7-9.7c2.1,0,4,0.3,5.9,0.9L899.7,97.2z"/>
<circle class="st0" cx="100" cy="100" r="100"/>
<path class="st1" d="M27,130.2L8.4,111.6c2.1,16.8,8.7,32.2,18.6,44.9V130.2z"/>
<path class="st1" d="M69.8,173H43.5c12.7,9.9,28.1,16.5,44.9,18.6L69.8,173z"/>
<path class="st1" d="M173,43.5v26.3l18.6,18.6C189.5,71.6,182.9,56.2,173,43.5z"/>
<path class="st1" d="M130.2,173l-18.6,18.6c16.8-2.1,32.2-8.7,44.9-18.6H130.2z"/>
<path class="st1" d="M173,130.2v26.3c9.9-12.7,16.5-28.1,18.6-44.9L173,130.2z"/>
<polygon class="st1" points="165.3,62.1 165.3,34.7 137.9,34.7 "/>
<polygon class="st1" points="173,119.3 192.3,100 173,80.7 "/>
<polygon class="st1" points="165.3,137.9 165.3,165.3 137.9,165.3 "/>
<polygon class="st1" points="119.3,173 100,192.3 80.7,173 "/>
<polygon class="st1" points="34.7,165.3 62.1,165.3 34.7,137.9 "/>
<polygon class="st1" points="27,119.3 7.7,100 27,80.7 "/>
<path class="st2" d="M159.9,67.6l-27.4-27.4c-3.5-3.5-8.2-5.4-13.1-5.4H92.5c-4.2,0-7.9-2.8-8.9-6.9c-1.8-6.7-0.2-14.1,4.8-19.4
	c-3.2,0.8-6.3,2.4-8.8,4.9s-4.1,5.5-4.9,8.7c-0.6-0.9-1.4-1.8-2.2-2.7c-2.3-2.3-4.9-3.8-7.8-4.6c-1.4,2.6-2.2,5.6-2.2,8.8
	c0,1.2,0.1,2.3,0.3,3.4c-2.8-1.7-6.1-2.7-9.6-2.7c-3.6,0-6.9,1-9.7,2.8c7.3,0.3,13.7,4.3,17.1,10.3c2.1,3.6,1.5,8.2-1.4,11.2l-19,19
	c-3.5,3.5-5.4,8.2-5.4,13.1v38.8c0,4.9,1.9,9.6,5.4,13.1L67.6,160c3.5,3.5,8.2,5.4,13.1,5.4h38.8c4.9,0,9.6-1.9,13.1-5.4l27.4-27.4
	c3.5-3.5,5.4-8.2,5.4-13.1V80.6C165.3,75.7,163.3,71,159.9,67.6z"/>
</svg>
