<?xml version="1.0" encoding="utf-8"?>
<!-- Generator: Adobe Illustrator 20.1.0, SVG Export Plug-In . SVG Version: 6.00 Build 0)  -->
<svg version="1.1" id="Layer_1_copy_3" xmlns="http://www.w3.org/2000/svg" xmlns:xlink="http://www.w3.org/1999/xlink" x="0px"
	 y="0px" viewBox="0 0 49.4 67.6" style="enable-background:new 0 0 49.4 67.6;" xml:space="preserve">
<style type="text/css">
	.st0{fill:#E5D617;}
	.st1{fill:#37aaa7;}
	.st2{fill:#172233;}
</style>
<g>
	<circle class="st0" cx="24.7" cy="24.7" r="5.1"/>
	<path class="st1" d="M29.1,38.9c0,5-4.4,9.1-4.4,9.1s-4.4-4.1-4.4-9.1s4.4-9.1,4.4-9.1S29.1,33.9,29.1,38.9z"/>
	<path class="st1" d="M37.9,31.7c3.6,3.6,3.4,9.5,3.4,9.5s-6,0.2-9.5-3.4c-3.6-3.6-3.4-9.5-3.4-9.5S34.3,28.1,37.9,31.7z"/>
	<path class="st1" d="M38.9,20.3c5,0,9.1,4.4,9.1,4.4s-4.1,4.4-9.1,4.4s-9.1-4.4-9.1-4.4S33.9,20.3,38.9,20.3z"/>
	<path class="st1" d="M31.7,11.5c3.6-3.6,9.5-3.4,9.5-3.4s0.2,6-3.4,9.5c-3.6,3.6-9.5,3.4-9.5,3.4S28.1,15.1,31.7,11.5z"/>
	<path class="st1" d="M20.3,10.4c0-5,4.4-9.1,4.4-9.1s4.4,4.1,4.4,9.1s-4.4,9.1-4.4,9.1S20.3,15.5,20.3,10.4z"/>
	<path class="st1" d="M11.5,17.7C8,14.1,8.2,8.2,8.2,8.2s6-0.2,9.5,3.4s3.4,9.5,3.4,9.5S15.1,21.3,11.5,17.7z"/>
	<path class="st1" d="M10.4,29.1c-5,0-9.1-4.4-9.1-4.4s4.1-4.4,9.1-4.4s9.1,4.4,9.1,4.4S15.5,29.1,10.4,29.1z"/>
	<path class="st1" d="M17.7,37.9c-3.6,3.6-9.5,3.4-9.5,3.4s-0.2-6,3.4-9.5c3.6-3.6,9.5-3.4,9.5-3.4S21.3,34.3,17.7,37.9z"/>
	<g>
		<path class="st2" d="M49,23.8c-0.2-0.2-4.5-4.8-10.1-4.8c-0.2,0-0.3,0-0.5,0c0.1-0.1,0.3-0.2,0.4-0.4c3.9-3.9,3.8-10.2,3.8-10.5
			c0-0.7-0.6-1.3-1.3-1.3c-0.3,0-6.6-0.2-10.5,3.8c-0.1,0.1-0.2,0.2-0.4,0.4c0-0.2,0-0.3,0-0.5c0-5.5-4.6-9.9-4.8-10.1
			c-0.5-0.5-1.3-0.5-1.8,0C23.6,0.5,19,4.9,19,10.5c0,0.2,0,0.3,0,0.5c-0.1-0.1-0.2-0.3-0.4-0.4C14.7,6.7,8.4,6.8,8.1,6.8
			c-0.7,0-1.3,0.6-1.3,1.3c0,0.3-0.2,6.6,3.8,10.5c0.1,0.1,0.2,0.2,0.4,0.4c-0.2,0-0.3,0-0.5,0c-5.5,0-9.9,4.6-10.1,4.8
			c-0.5,0.5-0.5,1.3,0,1.8c0.2,0.2,4.5,4.8,10.1,4.8c0.2,0,0.3,0,0.5,0c-0.1,0.1-0.3,0.2-0.4,0.4C6.7,34.7,6.8,41,6.8,41.3
			c0,0.7,0.6,1.3,1.3,1.3c0,0,0.1,0,0.2,0c0.9,0,4.4-0.1,7.6-1.8c-3.4,6.3-5.4,13.3-6.1,20.4c-0.1,0.7,0.5,1.4,1.2,1.5
			c0,0,0.1,0,0.1,0c0.7,0,1.3-0.5,1.3-1.2c0.6-7.3,2.9-14.4,6.5-20.8c0.8,4.7,4.5,8.3,4.6,8.4c0.3,0.2,0.6,0.4,0.9,0.4
			s0.7-0.1,0.9-0.4c0.2-0.2,4.8-4.5,4.8-10.1c0-0.2,0-0.3,0-0.5c0.1,0.1,0.2,0.3,0.4,0.4c3.6,3.6,9.1,3.8,10.3,3.8
			c0.1,0,0.2,0,0.2,0c0.7,0,1.3-0.6,1.3-1.3c0-0.3,0.2-6.6-3.8-10.5c-0.1-0.1-0.2-0.2-0.4-0.4c0.2,0,0.3,0,0.5,0
			c5.5,0,9.9-4.6,10.1-4.8C49.5,25.1,49.5,24.3,49,23.8z M24.7,28.5C24.7,28.5,24.7,28.5,24.7,28.5c-2.1,0-3.8-1.7-3.8-3.8
			c0-2.1,1.7-3.8,3.8-3.8s3.8,1.7,3.8,3.8C28.5,26.8,26.8,28.5,24.7,28.5z M32.6,12.5c2.1-2.1,5.3-2.7,7.2-2.9
			c-0.2,1.8-0.8,5-2.9,7.2c-2.1,2.1-5.3,2.7-7.2,2.9C29.9,17.8,30.5,14.6,32.6,12.5z M24.7,3.3c1.2,1.4,3,4.1,3,7.1
			c0,3-1.8,5.7-3,7.1c-1.2-1.4-3-4.1-3-7.1C21.7,7.4,23.5,4.7,24.7,3.3z M9.6,9.6c1.8,0.2,5,0.8,7.2,2.9c2.1,2.1,2.7,5.3,2.9,7.2
			c-1.8-0.2-5-0.8-7.2-2.9C10.4,14.6,9.8,11.4,9.6,9.6z M3.3,24.7c1.4-1.2,4.1-3,7.1-3c3,0,5.7,1.8,7.1,3c-1.4,1.2-4.1,3-7.1,3
			C7.4,27.7,4.7,25.9,3.3,24.7z M12.5,32.6c2.1-2.1,5.3-2.7,7.2-2.9c-0.2,1.8-0.8,5-2.9,7.2c-2.1,2.1-5.3,2.7-7.2,2.9
			C9.8,38,10.4,34.8,12.5,32.6z M24.7,46.1c-1.2-1.4-3-4.1-3-7.1c0-3,1.8-5.7,3-7.1c1.2,1.4,3,4.1,3,7.1
			C27.7,42,25.9,44.7,24.7,46.1z M39.8,39.8c-1.8-0.2-5-0.8-7.2-2.9c-2.1-2.1-2.7-5.3-2.9-7.2c1.8,0.2,5,0.8,7.2,2.9
			C39,34.8,39.6,38,39.8,39.8z M38.9,27.7c-3,0-5.7-1.8-7.1-3c1.4-1.2,4.1-3,7.1-3c3,0,5.7,1.8,7.1,3C44.7,25.9,42,27.7,38.9,27.7z"
			/>
		<path class="st2" d="M30.6,64.9h-2.6c-0.7,0-1.3,0.6-1.3,1.3c0,0.7,0.6,1.3,1.3,1.3h2.6c0.7,0,1.3-0.6,1.3-1.3
			C31.9,65.5,31.3,64.9,30.6,64.9z"/>
		<path class="st2" d="M21.9,64.9H6.2c-0.7,0-1.3,0.6-1.3,1.3c0,0.7,0.6,1.3,1.3,1.3h15.7c0.7,0,1.3-0.6,1.3-1.3
			C23.3,65.5,22.7,64.9,21.9,64.9z"/>
	</g>
</g>
</svg>
