<?xml version="1.0" encoding="utf-8"?>
<svg version="1.1" xmlns="http://www.w3.org/2000/svg" xmlns:xlink="http://www.w3.org/1999/xlink" x="0px" y="0px"
	 viewBox="0 0 75 75" style="enable-background:new 0 0 75 75;" xml:space="preserve">
<style type="text/css">
	.st0{fill-rule:evenodd;clip-rule:evenodd;fill:#E5A428;}
	.st1{fill-rule:evenodd;clip-rule:evenodd;fill:#00677A;}
</style>
	<polygon class="st0" points="56.6,43.3 64.7,45 73.5,41.7 68.3,37.5 62.6,28.8 58.5,23.7 59.4,19.1 55.6,15.7 51,14 40.5,1.5
		30.6,4.6 28.9,12.4 15,15.1 19.7,27.1 20.9,28.2 26,26 34.6,25.6 43.7,24.9 58.5,32.2 	"/>
	<polygon class="st0" points="0,66.4 0,75 61.2,75 51.3,67.1 38.7,59.8 33.3,65.8 25.6,66.2 17.2,63.9 16.1,61.2 14,52.9 5.4,58.5
		1.2,62.9 	"/>
	<path class="st1" d="M44.8,75c-1.3,0-2.5,0-3.8,0c0.2-2.2,1.2-11.2,0.5-12c-0.5-0.3-1-0.6-1.5-0.8c-0.1,4.2-0.2,8.6-0.3,12.8
		c-1.3,0-2.5,0-3.8,0c-0.1-0.5-0.1-1.1-0.1-1.6c-1.1,1.2-1.4,1.7-4,1.6c0-0.1,0.1-0.3,0.1-0.4c0.8-1.5,1.5-3,2.3-4.4
		c-2.7,0.6-5.5,1.5-8.8,1.9c0.8,0.9,1.7,2,2.5,2.9c-0.8,0-1.7,0-2.5,0c-0.9-1.4-1.8-3.1-4-3.3c0.8,1.1,1.5,2.3,2.3,3.3
		c-1.7,0.1-5.1,0-6.3,0c-2.4-5-3.1-13-4-18.9c-0.2,0.1-0.4,0.1-0.6,0.2c-0.3,0.4-0.7,0.7-1,1.1c1.2,6.2,2.6,12.2,4.7,17.7
		c-1.8,0-3.6,0-5.4,0c0.3-5.4-1.7-10-2.9-14.9c-0.1,0-0.1,0-0.2,0c-3.1,1.6-5.3,4.3-8,6.3c0-2.5,0-4.9,0-7.4
		c5.8-3,13.7-6.3,16.3-12.5c-2.4-1-1.2-3.6-0.4-5.3c-1.1-0.6-1.4-1.6-1.5-3.2c0.6-1,0.6-1.6,1.7-2.1c-0.5-1.4-1.3-1.6-1.5-3.6
		c0.7-1.1,1.1-1.5,2.1-2.3c-0.9-1.8-0.5-3.2,1-4.2c-1.5-2.4-5.5-8.4-3.6-11.8c4.2-1.3,8.6-2.8,13.8-3.4C29,2.2,36.4-3.7,44,2.6
		c3,2.5,6.6,7.9,8.2,11.6c7.4-0.3,9.2,4.9,8.2,10.3c5.9,4.6,5.3,14.2,14.5,15.8c0.1,0.1,0.1,0.3,0.2,0.4c0,0.5,0,1,0,1.5
		c-4.8,3.2-10.7,4.7-18.2,3.2c-0.8,8.4-7.3,13.2-16.6,13.1c0.1,0.1,0.1,0.3,0.2,0.4c6.5,1.4,17.2,11.1,20.7,16c-2.1,0-4.2,0-6.3,0
		c-2.9-2.7-5.7-5.6-8.6-8.4c-0.1,0.1-0.3,0.1-0.4,0.2C45.5,69.5,45.1,72.3,44.8,75z M36.9,3.1c-6,3.1-6.9,6.1-6.7,14.6
		c6-0.4,9.9-2.7,14.5-3.8c0.7,1,1,2.1,1.3,3.6c1.3-0.7,2.5-1.4,3.8-2.1c0-0.2,0-0.4,0-0.6C45.2,10.5,45.4,3.3,36.9,3.1z M28.1,17.4
		c0-0.8,0-1.5,0-2.3c-3.2,0.1-6.4,0.1-9.6,0.2c0.1,0.1,0.1,0.3,0.2,0.4C21.7,16.3,24.1,17.4,28.1,17.4z M52.8,17
		c-2.3,1-4.4,1.3-6.3,2.5c0,0.4,0,0.8,0,1.3c0.1,0,0.1,0,0.2,0c3.5-0.8,8.2,1.8,11.5,1.1c0-0.3,0-0.6,0-0.8
		c-0.1-0.1-0.3-0.3-0.4-0.4c-1.5-0.3-4.9-0.9-4.8-1.7c1.1-0.4,2.2-0.7,3.4-1.1c-0.1-0.1-0.3-0.3-0.4-0.4
		C54.9,17.3,53.8,17.1,52.8,17z M17.2,18.3c0.8,3,2.9,7.1,5,8.9c3.2-3,16.1-4.3,22.6-2.7c-0.5-1.9-1-3.8-1.5-5.7
		c-5.1,1-11.7,2.8-18.2,1.7C22.2,19.9,19.7,18.8,17.2,18.3z M47.3,22.7c0.6,3.4,3.3,3.4,5.9,4.6c3,1.4,6.4,3.8,8.4,6.3
		c1.8,2.3,3.2,5.2,6.7,5.7c-0.4-0.4-0.8-0.8-1.3-1.3C63.7,30.9,58.1,22.6,47.3,22.7z M25.8,26.7c-2.8,2.6-2.9,6.7-1,10.3
		c0.4,0.1,0.8,0.3,1.3,0.4c0.3-0.3,0.7-0.6,1-0.8c-0.6-2.2-2-3.5-1.9-5.3c1.1-0.3,1.2-0.6,1.9-1.3c0-0.3,0-0.6,0-0.8
		c-0.4-0.4-1.4-1-1.3-1.3c0.3,0,0.6,0,0.8,0c0.3,0.4,0.6,0.7,1,1.1c0-0.2,0-0.4,0-0.6c-0.1-0.2-0.1-0.4-0.2-0.6
		C26.9,27.1,26.8,26.9,25.8,26.7z M37.5,26.7c-0.7,0.1-1.4,0.3-2.1,0.4c1.2,1.4,2,2.1,1.7,4.6c-0.1,0.1-0.3,0.3-0.4,0.4
		c-0.1-0.1-0.3-0.1-0.4-0.2c-0.3-1.4-0.7-2-2.1-2.3c0.7,2.2,1.2,4.6-1,5.9c-0.3-0.1-0.6-0.3-0.8-0.4c0.6-1.5,0.5-3.1-0.6-4
		c-0.1,0.1-0.3,0.1-0.4,0.2c0.1,1.6,0.5,2.1,0,3.2c-0.1,0-0.1,0-0.2,0c-1.5-0.5-2-1.3-2.3-3c-0.2,0.1-0.4,0.3-0.6,0.4
		c0.5,3.2,0.8,5.1-0.8,7.4c-0.5,0-1,0-1.5,0c-1.2-0.8-2.2-1.7-2.7-3.2c-0.1,0-0.1,0-0.2,0c-0.7,5.1-2.2,9.9-4.4,13.7
		c-0.8,1.1-1.5,2.3-2.3,3.4c0.3,2.7,0.6,5.3,0.8,8c2.5,5.4,18.7,6.6,18.4-3.4c-3-1.3-6.9-2.2-8.8-4.6c0.1-0.2,0.1-0.4,0.2-0.6
		c0.1,0,0.1,0,0.2,0c2.4,0.9,4.9,1.8,7.3,2.7c9.9,2.4,17.4-1.6,20.1-8.7c0.6-2.7,1.3-5.5,1.9-8.2c-0.1-0.1-0.3-0.3-0.4-0.4
		c-0.8,0.5-0.9,0.6-1.9,0.4c-0.5-1.4-0.5-1-1.3-1.7c0.2-0.1,0.4-0.3,0.6-0.4c1.2,0.1,2.4,0.1,3.6,0.2c0.1-0.4,0.3-0.7,0.4-1.1
		c0-0.1,0-0.1,0-0.2c-0.2-0.1-0.4-0.1-0.6-0.2c-1.7-0.8-3.9,0.2-4.8,0.8c-0.6,3.7-1.1,7.3-1.7,11c-2.5,1.3-5.6-0.3-7.1-1.9
		c0-0.4,0-0.7,0-1.1c0.5-1,0.8-1.4,1.7-1.9c0.2,0,0.4,0,0.6,0c0,0.1,0,0.1,0,0.2c-0.7,0.9-1,1.5-0.4,2.7c2.1-0.1,2.5,1.1,4.2,0.4
		c0.7-4.2,0-8.8,1.7-11.6c1.5-0.6,2.6-1.2,4.8-1.3c-0.2-0.3-0.4-0.6-0.6-0.8C49.1,29,47.2,26.7,37.5,26.7z M42.9,28.2
		c3.4,0,6.7,1.8,7.3,4.6C50.1,32.9,50,33,49.9,33c-0.3-0.1-8.5-4.1-8.6-4.2c0-0.1,0-0.1,0-0.2c0.1,0,0.3,0,0.4,0
		C42.1,28.5,42.5,28.3,42.9,28.2z M42.9,32.2c2.5,0.2,4.5,0.7,5.4,2.5c-0.3,0.4-0.7,0.8-1,1.3c-0.1,0-0.1,0-0.2,0
		c-0.3-0.6-0.6-1.1-0.8-1.7c-0.2,0.1-0.4,0.3-0.6,0.4c-0.3,0.9-0.3,0.7-1,1.1c-0.9-0.1-0.8-0.1-1.3-0.6c0-0.6,0-1.1,0-1.7
		c-1.2,0-2.4,0-3.6,0c0.1-0.1,0.1-0.3,0.2-0.4C41,32.8,42,32.5,42.9,32.2z M59.3,37.1c-0.7,1.4-1.5,2.7-1.7,4.6
		C61.4,43,65.5,44,70,42.8c0.1-0.1,0.1-0.3,0.2-0.4c-0.1-0.1-0.1-0.3-0.2-0.4C64.3,42,63,38.6,59.3,37.1z M40.4,47.4
		c1.5,0.2,1,0.9,1.9,1.3c0.8-0.1,1.5-0.1,2.3-0.2c0.1,0.4,0.1,0.7,0.2,1.1c0.7,0,1.4,0,2.1,0c0.1,0.4,0.1,0.8,0.2,1.3
		c0.5-0.2,1-0.4,1.5-0.6c0.1,0.1,0.1,0.3,0.2,0.4c-0.3,0.6-0.1,0.5-0.6,0.8c-1.3,0.7-3,1.9-4.6,1.3c-1.1-0.5-1.1-0.6-0.8-1.5
		c1.3,0.3,1.5,0.6,2.3-0.2c-0.1,0-0.3,0-0.4,0c-1.5-1.2-3.6-1.5-5-2.7c0.1-0.2,0.3-0.4,0.4-0.6C40.2,47.5,40.3,47.5,40.4,47.4z
		 M18,65.8c3.4,5.3,12.6,4.2,17.2,0.8c0-0.3,0-0.6,0-0.8C27.5,69.6,25.2,67.4,18,65.8z"/>
</svg>
