<?xml version="1.0" encoding="utf-8"?>
<!-- Generator: Adobe Illustrator 20.1.0, SVG Export Plug-In . SVG Version: 6.00 Build 0)  -->
<svg version="1.1" id="Layer_1" xmlns="http://www.w3.org/2000/svg" xmlns:xlink="http://www.w3.org/1999/xlink" x="0px" y="0px"
	 viewBox="0 0 60 115" style="enable-background:new 0 0 60 115;" xml:space="preserve">
<style type="text/css">
	.st0{fill:#F4F4F5;}
	.st1{fill:#00677A;}
	.st2{fill:#EFA120;}
</style>
<g>
	<path class="st0" d="M50,99.2l-0.1-6.2l-5.6,2.6c-0.7,0.3-1.3,0.5-2,0.5c-1.7,0-3.4-1-4.4-2.7c-1.6-2.5-1.5-5.9,0.2-9.3l3-5.9
		l-6.6,0.1l-0.2,0c-5.5,0-8.2-4.1-12-10.9c-1.9-3.4-4-7-6.9-9.9c2.9-2.9,5-6.5,6.9-9.9c3.8-6.8,6.5-10.9,12-10.9l0.2,0l6.6,0.1
		l-3-5.9c-1.7-3.4-1.8-6.7-0.2-9.3c1.1-1.7,2.7-2.7,4.4-2.7c0.7,0,1.3,0.2,2,0.5l5.6,2.6l0.1-6.2c0.1-6.9,3.3-7.7,6.4-8L60,7.5
		v100.1l-3.7-0.3C53.3,107,50.1,106.1,50,99.2z"/>
	<path class="st1" d="M56.2,109.2c-3.7-0.3-8.1-1.7-8.2-9.9l-0.1-3.1l-2.8,1.3c-0.9,0.4-1.9,0.7-2.8,0.7c-2.4,0-4.7-1.4-6.1-3.7
		c-1.9-3.1-1.9-7.2,0.1-11.2l1.5-3l-3.3,0.1l-0.2,0c-7,0-10.1-5.5-13.8-11.9c-2.3-4-4.6-8.2-8.2-10.9c3.5-2.7,5.9-6.9,8.2-10.9
		c3.6-6.4,6.8-11.9,13.8-11.9l0.2,0l3.3,0.1l-1.5-3c-2-4-2.1-8.1-0.1-11.2c1.4-2.3,3.7-3.7,6.1-3.7c1,0,1.9,0.2,2.8,0.7l2.8,1.3
		l0.1-3.1c0.1-8.2,4.5-9.6,8.2-9.9L58,5.6V0l2,0v7.5l-3.7,0.3c-3,0.3-6.2,1.1-6.4,8l-0.1,6.2l-5.6-2.6c-0.7-0.3-1.3-0.5-2-0.5
		c-1.7,0-3.4,1-4.4,2.7c-1.6,2.5-1.5,5.9,0.2,9.3l3,5.9l-6.6-0.1l-0.2,0c-5.6,0-8.2,4.1-12,10.9c-1.9,3.4-4,7.1-6.9,9.9
		c2.9,2.9,5,6.5,6.9,9.9c3.8,6.8,6.5,10.9,12,10.9l0.2,0l6.6-0.1l-3,5.9c-1.7,3.4-1.8,6.7-0.2,9.3c1.1,1.7,2.7,2.7,4.4,2.7
		c0.7,0,1.3-0.2,2-0.5l5.6-2.6l0.1,6.2c0.1,6.9,3.3,7.7,6.4,8l3.7,0.3v7.5h-2v-5.6L56.2,109.2z"/>
	<path class="st0" d="M34.2,32.7c0.1,0,0.2,0,0.3,0c-4.8-9.5,1-17.8,7.8-17.8c1.2,0,2.5,0.3,3.7,0.8c0.2-9.5,5.5-11.5,10-11.9V0l2,0
		v5.6l-1.8,0.2c-3.7,0.3-8.1,1.7-8.2,9.9l-0.1,3.1l-2.8-1.3c-0.9-0.4-1.9-0.7-2.8-0.7c-2.4,0-4.7,1.4-6.1,3.7
		c-1.9,3.1-1.9,7.2,0.1,11.2l1.5,3l-3.3-0.1l-0.2,0c-7,0-10.1,5.5-13.8,11.9c-2.3,4-4.6,8.2-8.2,10.9c3.5,2.7,5.9,6.9,8.2,10.9
		c3.6,6.4,6.8,11.9,13.8,11.9l0.2,0l3.3-0.1l-1.5,3c-2,4-2.1,8.1-0.1,11.2c1.4,2.3,3.7,3.7,6.1,3.7c1,0,1.9-0.2,2.8-0.7l2.8-1.3
		l0.1,3.1c0.1,8.2,4.5,9.6,8.2,9.9l1.8,0.2v5.6h-2v-3.8c-4.5-0.4-9.9-2.5-10-11.9c-1.2,0.6-2.5,0.8-3.7,0.8
		c-6.8,0-12.5-8.4-7.8-17.8c-0.1,0-0.2,0-0.3,0c-14.3,0-14.8-19.9-25.8-24.8C19.4,52.6,19.9,32.7,34.2,32.7z"/>
	<path class="st2" d="M10.5,51c1.7-2,3.2-4.6,4.8-7.3c3.1-5.5,6.8-12,13.9-14.2c-0.9-4.3-0.3-8.5,1.9-12c2.5-4.1,6.7-6.5,11.2-6.5
		c0.1,0,0.2,0,0.2,0C43.7,5.5,47,1.9,52,0.5V0l4,0v3.8c-4.5,0.4-9.9,2.5-10,11.9c-1.2-0.6-2.5-0.8-3.7-0.8c-6.8,0-12.5,8.4-7.8,17.8
		c-0.1,0-0.2,0-0.3,0c-14.3,0-14.8,19.9-25.8,24.8c11,4.9,11.5,24.8,25.8,24.8c0.1,0,0.2,0,0.3,0c-4.8,9.5,1,17.8,7.8,17.8
		c1.2,0,2.5-0.3,3.7-0.8c0.2,9.5,5.5,11.5,10,11.9v3.8h-4v-0.5c-5-1.5-8.3-5-9.5-10.4c-0.1,0-0.2,0-0.2,0c-4.5,0-8.7-2.4-11.2-6.5
		c-2.2-3.5-2.8-7.7-1.9-12c-7-2.2-10.8-8.7-13.9-14.2c-1.5-2.7-3-5.4-4.8-7.3C9.4,62.8,5.6,59.3,0,57.5C6.2,55.4,9.4,52.2,10.5,51z"
		/>
</g>
</svg>
