<?xml version="1.0" encoding="utf-8"?>
<!-- Generator: Adobe Illustrator 20.1.0, SVG Export Plug-In . SVG Version: 6.00 Build 0)  -->
<svg version="1.1" id="Layer_1" xmlns="http://www.w3.org/2000/svg" xmlns:xlink="http://www.w3.org/1999/xlink" x="0px" y="0px"
	 viewBox="0 0 60 115" style="enable-background:new 0 0 60 115;" xml:space="preserve">
<style type="text/css">
	.st0{fill:#F4F4F5;}
	.st1{fill:#00677A;}
	.st2{fill:#EFA120;}
</style>
<g>
	<path class="st0" d="M10,99.2l0.1-6.2l5.6,2.6c0.7,0.3,1.3,0.5,2,0.5c1.7,0,3.4-1,4.4-2.7c1.6-2.5,1.5-5.9-0.2-9.3l-3-5.9l6.6,0.1
		l0.2,0c5.5,0,8.2-4.1,12-10.9c1.9-3.4,4-7,6.9-9.9c-2.9-2.9-5-6.5-6.9-9.9c-3.8-6.8-6.5-10.9-12-10.9l-0.2,0l-6.6,0.1l3-5.9
		c1.7-3.4,1.8-6.7,0.2-9.3c-1.1-1.7-2.7-2.7-4.4-2.7c-0.7,0-1.3,0.2-2,0.5l-5.6,2.6L10,15.8C9.9,8.9,6.7,8,3.7,7.8L0,7.5v100.1
		l3.7-0.3C6.7,107,9.9,106.1,10,99.2z"/>
	<path class="st1" d="M3.8,109.2c3.7-0.3,8.1-1.7,8.2-9.9l0.1-3.1l2.8,1.3c0.9,0.4,1.9,0.7,2.8,0.7c2.4,0,4.7-1.4,6.1-3.7
		c1.9-3.1,1.9-7.2-0.1-11.2l-1.5-3l3.3,0.1l0.2,0c7,0,10.1-5.5,13.8-11.9c2.3-4,4.6-8.2,8.2-10.9c-3.5-2.7-5.9-6.9-8.2-10.9
		c-3.6-6.4-6.8-11.9-13.8-11.9l-0.2,0l-3.3,0.1l1.5-3c2-4,2.1-8.1,0.1-11.2c-1.4-2.3-3.7-3.7-6.1-3.7c-1,0-1.9,0.2-2.8,0.7l-2.8,1.3
		L12,15.7c-0.1-8.2-4.5-9.6-8.2-9.9L2,5.6V0H0v7.5l3.7,0.3c3,0.3,6.2,1.1,6.4,8l0.1,6.2l5.6-2.6c0.7-0.3,1.3-0.5,2-0.5
		c1.7,0,3.4,1,4.4,2.7c1.6,2.5,1.5,5.9-0.2,9.3l-3,5.9l6.6-0.1l0.2,0c5.6,0,8.2,4.1,12,10.9c1.9,3.4,4,7.1,6.9,9.9
		c-2.9,2.9-5,6.5-6.9,9.9c-3.8,6.8-6.5,10.9-12,10.9l-0.2,0l-6.6-0.1l3,5.9c1.7,3.4,1.8,6.7,0.2,9.3c-1.1,1.7-2.7,2.7-4.4,2.7
		c-0.7,0-1.3-0.2-2-0.5l-5.6-2.6L10,99.2c-0.1,6.9-3.3,7.7-6.4,8L0,107.5v7.5h2v-5.6L3.8,109.2z"/>
	<path class="st0" d="M25.8,32.7c-0.1,0-0.2,0-0.3,0c4.8-9.5-1-17.8-7.8-17.8c-1.2,0-2.5,0.3-3.7,0.8C13.9,6.2,8.5,4.2,4,3.8V0H2
		v5.6l1.8,0.2c3.7,0.3,8.1,1.7,8.2,9.9l0.1,3.1l2.8-1.3c0.9-0.4,1.9-0.7,2.8-0.7c2.4,0,4.7,1.4,6.1,3.7c1.9,3.1,1.9,7.2-0.1,11.2
		l-1.5,3l3.3-0.1l0.2,0c7,0,10.1,5.5,13.8,11.9c2.3,4,4.6,8.2,8.2,10.9c-3.5,2.7-5.9,6.9-8.2,10.9c-3.6,6.4-6.8,11.9-13.8,11.9
		l-0.2,0l-3.3-0.1l1.5,3c2,4,2.1,8.1,0.1,11.2c-1.4,2.3-3.7,3.7-6.1,3.7c-1,0-1.9-0.2-2.8-0.7l-2.8-1.3L12,99.3
		c-0.1,8.2-4.5,9.6-8.2,9.9L2,109.4v5.6h2v-3.8c4.5-0.4,9.9-2.5,10-11.9c1.2,0.6,2.5,0.8,3.7,0.8c6.8,0,12.5-8.4,7.8-17.8
		c0.1,0,0.2,0,0.3,0c14.3,0,14.8-19.9,25.8-24.8C40.6,52.6,40.1,32.7,25.8,32.7z"/>
	<path class="st2" d="M49.5,51c-1.7-2-3.2-4.6-4.8-7.3c-3.1-5.5-6.8-12-13.9-14.2c0.9-4.3,0.3-8.5-1.9-12c-2.5-4.1-6.7-6.5-11.2-6.5
		c-0.1,0-0.2,0-0.2,0C16.3,5.5,13,1.9,8,0.5V0H4v3.8c4.5,0.4,9.9,2.5,10,11.9c1.2-0.6,2.5-0.8,3.7-0.8c6.8,0,12.5,8.4,7.8,17.8
		c0.1,0,0.2,0,0.3,0c14.3,0,14.8,19.9,25.8,24.8c-11,4.9-11.5,24.8-25.8,24.8c-0.1,0-0.2,0-0.3,0c4.8,9.5-1,17.8-7.8,17.8
		c-1.2,0-2.5-0.3-3.7-0.8c-0.2,9.5-5.5,11.5-10,11.9v3.8h4v-0.5c5-1.5,8.3-5,9.5-10.4c0.1,0,0.2,0,0.2,0c4.5,0,8.7-2.4,11.2-6.5
		c2.2-3.5,2.8-7.7,1.9-12c7-2.2,10.8-8.7,13.9-14.2c1.5-2.7,3-5.4,4.8-7.3c1.1-1.3,4.8-4.7,10.5-6.5C53.8,55.4,50.6,52.2,49.5,51z"
		/>
</g>
</svg>
