<?xml version="1.0" encoding="utf-8"?>
<!-- Generator: Adobe Illustrator 20.1.0, SVG Export Plug-In . SVG Version: 6.00 Build 0)  -->
<svg version="1.1" id="Layer_1" xmlns="http://www.w3.org/2000/svg" xmlns:xlink="http://www.w3.org/1999/xlink" x="0px" y="0px"
	 viewBox="0 0 1500 1400" style="enable-background:new 0 0 1500 1400;" xml:space="preserve">
<style type="text/css">
	.st0{fill:#E5A428;}
	.st1{fill:#00667A;}
	.st2{fill:#F4F4F4;}
</style>
<path class="st0" d="M1366,637.2L1366,637.2c-18.3-16.4-30.2-36.2-32.3-61.4c-7.2,1.3-14.6,2-22.2,1.9
	c-61-0.8-110.7-50.7-111.2-111.7c-0.1-14,2.3-27.5,6.9-39.9c-18.3-19.3-29.5-45.3-29.5-73.9c0-11.3,1.7-22.2,5-32.4
	c-28.2-10.9-49.8-35.2-56.6-65.2l0,0c-1.7-7.5-2.5-15.4-2.3-23.5c1.5-48.9,41.7-88.5,90.7-89.1c22.2-0.3,42.7,7.3,58.7,20.1
	c1.4-7.2,2.1-14.6,2.1-22.1c0-65.5-53.1-118.6-118.6-118.6c-25.8,0-49.7,8.2-69.1,22.2c15.8,7.6,26.6,23.9,26,42.7
	c-0.7,23.8-20.1,43.3-43.9,44.2c-26.1,1-47.5-19.8-47.5-45.7c0-19,11.6-35.3,28.1-42.2c-19.3-25.8-50.1-42.5-84.8-42.5
	c-35.7,0-67.2,17.6-86.4,44.7c-14.4-7.4-30.8-11.6-48.1-11.6c-54.2,0-98.9,40.8-105,93.3c4.1-1.4,8.5-2.2,13.1-2.2
	c22.1,0,39.9,17.9,39.9,39.9c0,22.1-17.9,39.9-39.9,39.9c-21.3,0-38.8-16.7-39.9-37.8c-30.1,15.8-50.7,47.4-50.7,83.8
	c0,52.3,1.6,112.6,53.8,112.6l-13,648.7c-52.3,0-40.8,86.2-40.8,138.4c0,36.4,20.5,67.9,50.7,83.8c1.1-21.1,18.6-37.8,39.9-37.8
	c22.1,0,39.9,17.9,39.9,39.9s-17.9,39.9-39.9,39.9c-4.6,0-9-0.8-13.1-2.2c6.2,52.5,50.9,93.3,105.1,93.3c17.3,0,33.7-4.2,48.1-11.6
	c19.2,27,50.7,44.7,86.4,44.7c34.7,0,65.5-16.7,84.8-42.5c-17-7.1-28.8-24.3-28-44.1c1-23.6,20.2-42.9,43.9-43.8
	c26.1-1,47.6,19.8,47.6,45.7c0,18.2-10.6,33.9-26,41.3c19.5,14,43.3,22.2,69.1,22.2c65.5,0,118.6-53.1,118.6-118.6
	c0-7.6-0.7-15-2.1-22.1c-16.1,12.8-36.5,20.4-58.7,20.1c-49-0.7-89.2-40.2-90.7-89.1c-0.2-8.1,0.6-16,2.3-23.5l0,0
	c6.9-30,28.4-54.4,56.6-65.2c-3.2-10.2-5-21.1-5-32.4c0-28.6,11.2-54.6,29.5-73.9c-4.6-12.4-7-25.9-6.9-39.9
	c0.5-61,50.2-110.9,111.2-111.7c7.6-0.1,15,0.6,22.2,1.9c2.1-25.2,13.9-45,32.3-61.4v0c31.1-27.8,81.1-45.7,134.1-62.9
	C1447.1,682.8,1397.1,665,1366,637.2z"/>
<path class="st1" d="M0.1,700.1c80.3,55.7,64.1,182.3,188.5,203.2c6.3,58.3,47.5,106.1,106.1,106.1c5.1,0,10.1-0.4,15.1-1.1
	c-5.3-8.3-8.3-18.1-8.3-28.6c0-29.4,23.8-53.2,53.3-53.2c29.4,0,53.3,23.8,53.3,53.2c0,29.4-23.8,53.2-53.3,53.2
	c-4.6,0-9.1-0.6-13.4-1.7c7.7,44.7,46.7,78.8,93.6,78.8c14.7,0,28.6-3.3,41-9.3c7.2,35.4,38.6,62,76.1,62
	c29.9,0,55.9-16.9,68.9-41.7c15.4,15,36.4,24.3,59.5,24.3c41.2,0,75.5-29.2,83.5-68l0.2-1.1c-34.5-3.2-61.6-32.3-61.6-67.7
	c0-34.9,26.3-63.7,60.2-67.5c-10.9-14.5-17.4-32.4-17.4-51.9c0-36,22-66.8,53.4-79.8c13.5-36.8,59.3-91.4,111.2-109.2
	c-51.9-17.8-97.7-72.4-111.2-109.2c-31.3-13-53.4-43.8-53.4-79.8c0-19.5,6.5-37.5,17.4-51.9c-33.9-3.8-60.2-32.6-60.2-67.5
	c0-35.4,27-64.4,61.6-67.7l-0.2-1.1c-7.9-38.8-42.3-68-83.5-68c-23.2,0-44.2,9.3-59.5,24.3c-13-24.8-38.9-41.7-68.9-41.7
	c-37.5,0-68.9,26.6-76.1,62c-12.4-5.9-26.3-9.3-41-9.3c-46.9,0-85.9,34-93.6,78.8c4.3-1.1,8.8-1.7,13.4-1.7
	c29.4,0,53.3,23.8,53.3,53.2c0,29.4-23.8,53.2-53.3,53.2c-29.4,0-53.3-23.8-53.3-53.2c0-10.5,3.1-20.3,8.3-28.6
	c-4.9-0.7-10-1.1-15.1-1.1c-58.6,0-99.8,47.9-106.1,106.1C64.2,517.8,80.5,644.4,0.1,700.1z"/>
<path class="st2" d="M1176.2,650.3c2.4-33.6-50.8-48.2-66.9-18.1c19.7,16.2,18.8,50.1,7.5,59.8c-168.6-95.5,18.1-239.7-25.4-345.9
	c-31.1-76-93.1-81.1-132.3-72.4c0.9-3.7,1.4-7.4,1.4-10.4c0-8.8-7.3-16-16.3-16c-4,0-7.7,1.4-10.5,3.8c-2.9-3.8-7.6-6.2-12.8-6.2
	c-9,0-16.3,7.2-16.3,16c0,3.8,1.3,7.3,3.6,10c-2.2,2.7-3.6,6.2-3.6,10c0,7.4,5.1,13.6,12.1,15.4c-36.7,38.6-31.6,113.1,56.5,127.1
	c-19.5-36.8,27.2-50.6,14.6-86.9c144.5,68.3-137.2,213.4,49.6,363.6c-186.8,150.3,94.9,295.4-49.6,363.6
	c12.6-36.3-34.1-50.1-14.6-86.9c-88.1,14-93.2,88.5-56.5,127.1c-7,1.8-12.1,8-12.1,15.4c0,3.8,1.3,7.3,3.6,10
	c-2.2,2.7-3.6,6.2-3.6,10c0,8.8,7.3,16,16.3,16c5.2,0,9.8-2.5,12.8-6.2c2.8,2.4,6.5,3.8,10.5,3.8c9,0,16.3-7.2,16.3-16
	c0-3-0.4-6.7-1.4-10.4c39.2,8.7,101.2,3.6,132.3-72.4c43.5-106.3-143.3-250.5,25.5-346c11.2,9.8,12,43.6-7.6,59.6
	c16.1,30.1,69.3,15.5,66.9-18.1c28.2,2.1,47.2-22.5,69.6-49.7C1223.4,672.7,1204.4,648.2,1176.2,650.3z"/>
<path class="st2" d="M616.5,610.1c0,0-11.6-32.3-55.4-30.3c-57.3,3.6-112.7,100.8-169.3,120.3c56.6,19.6,112.1,116.7,169.3,120.3
	c43.8,2,55.4-30.3,55.4-30.3c22.7-2.7,32.6-18.6,29.9-35.4c0,17-14,30.7-31.3,30.7c-20.5-0.4-48-30.8-73.3-33.4
	c11.9-27.4,39.4-46.4,71.6-46.4c43,0,77.8,34.2,77.8,76.4s-45.9,86.4-88.4,92.7c-36.7,5.9-67.4,2.9-93.8-5.9
	c-0.2,5.7-4.4,10.6-10.4,11.4c-5.3,0.8-10.3-1.9-12.6-6.4c-2,4.4-6.2,7.8-11.5,8.5c-8.3,1.2-15.9-4.3-17.1-12.4
	c-0.6-3.8,0.4-7.5,2.4-10.5c-4.4-1.2-7.8-4.9-8.5-9.6c-0.6-3.8,0.8-7.5,3.3-10.1c-66.2-49.6-97.2-121.5-158.6-126.5
	c-14.3,0-23.5,10.4-23.5,23.1c0,0-0.7,9.6,11.7,22.7c-20,5.9-43.1-5.1-49.2-26c0-0.1,0-0.1,0-0.1l0,0c-16.9-0.4-31.2-14.9-44.3-33
	c13.1-18.1,27.4-32.6,44.3-33l0,0V667c6.1-20.9,29.3-31.9,49.2-26c-12.4,13.1-11.7,22.7-11.7,22.7c0,12.8,9.2,23.1,23.5,23.1
	c61.3-5,92.2-76.9,158.6-126.5c-2.5-2.6-3.8-6.2-3.3-10.1c0.8-4.7,4.1-8.3,8.5-9.6c-2-3-3-6.6-2.4-10.5c1.2-8.1,8.9-13.6,17.1-12.4
	c5.3,0.8,9.4,4.1,11.5,8.5c2.3-4.4,7.3-7.2,12.6-6.4c6,0.9,10.2,5.8,10.4,11.4c26.4-8.7,57-11.8,93.8-5.9
	c42.5,6.3,88.4,50.6,88.4,92.7c0,42.2-34.8,76.4-77.8,76.4c-32.2,0-59.8-19.1-71.6-46.4c25.3-2.6,52.8-33,73.3-33.4
	c17.3,0,31.3,13.7,31.3,30.7C649.1,628.7,639.2,612.7,616.5,610.1z"/>
</svg>
