<?xml version="1.0" encoding="utf-8"?>
<!-- Generator: Adobe Illustrator 20.1.0, SVG Export Plug-In . SVG Version: 6.00 Build 0)  -->
<svg version="1.1" id="Layer_1" xmlns="http://www.w3.org/2000/svg" xmlns:xlink="http://www.w3.org/1999/xlink" x="0px" y="0px"
	 viewBox="0 0 1600 1400" style="enable-background:new 0 0 1600 1400;" xml:space="preserve">
<style type="text/css">
	.st0{fill:#E5A428;}
	.st1{fill:#E7E7E7;stroke:#00667A;stroke-width:40px;}
	.st2{fill:#F4F4F4;}
</style>
<path class="st0" d="M1,700.9C64.4,745,51.6,845.1,150,861.6c5,46.1,37.6,83.9,83.9,83.9c4,0,7.9-0.3,11.9-0.9
	c-4.2-6.5-6.6-14.3-6.6-22.6c0-23.3,18.8-42.1,42.1-42.1c23.2,0,42.1,18.9,42.1,42.1c0,23.3-18.8,42.1-42.1,42.1
	c-3.6,0-7.2-0.4-10.6-1.3c6.1,35.3,36.9,62.3,74,62.3c11.6,0,22.6-2.7,32.4-7.4c5.7,28,30.5,49,60.2,49c23.7,0,44.2-13.4,54.5-33
	c12.1,11.8,28.7,19.2,47,19.2c32.6,0,59.7-23.1,66-53.8l0.2-0.9c-27.3-2.5-48.7-25.5-48.7-53.5c0-27.1,20-49.5,46.1-53.2
	c-15-18.9-23.9-42.8-23.9-68.7c0-61.2,49.6-110.7,110.7-110.7c59.8,0,108.4,47.3,110.6,106.5c6.2-1.1,12.6-1.6,19.1-1.5
	c58,0.8,105.3,48.3,105.8,106.3c0.1,13.4-2.2,26.2-6.6,38c17.4,18.3,28.1,43.1,28.1,70.3c0,10.7-1.8,21.1-4.8,30.8
	c26.9,10.2,47.3,33.5,53.9,62c1.6,7.2,2.4,14.7,2.2,22.4c-1.4,46.6-39.7,84.1-86.3,84.8c-21.2,0.3-40.6-6.9-55.9-19.1
	c-1.3,6.7-2,13.8-2,21c0,62.3,50.5,112.8,112.8,112.8c24.5,0,47.1-7.8,65.7-21.1c-14.6-7-24.7-22-24.7-39.3
	c0-24.7,20.5-44.5,45.3-43.5c22.6,0.9,40.8,19.2,41.8,41.7c0.8,18.9-10.4,35.2-26.6,42c18.4,24.5,47.7,40.4,80.7,40.4
	c34,0,63.9-16.8,82.2-42.5c13.7,7,29.3,11,45.8,11c48.6,0,89.2-34.6,98.6-80.4c-41.7-5.4-79.1-30.7-100.8-67.8
	c-25.6-42.5-30.2-101.2,4.1-163.3c-208.5,2.4-214.9-259.2-373.3-322.9c158.5-63.7,164.8-325.3,373.3-322.9
	c-34.4-62.5-29.8-121.2-4.3-163.7c21.6-37.1,59-62.2,100.9-67.5c-9.3-45.8-49.9-80.3-98.5-80.3c-16.5,0-32.1,4-45.8,11
	c-18.3-25.8-48.2-42.5-82.2-42.5c-33,0-62.3,15.9-80.7,40.4c15.7,6.6,26.7,22.1,26.7,40.2c0,24.7-20.4,44.5-45.2,43.5
	c-22.7-0.9-41.1-19.5-41.8-42.1c-0.6-17.9,9.7-33.4,24.7-40.6c-18.4-13.3-41.2-21.1-65.7-21.1c-62.3,0-112.8,50.5-112.8,112.8
	c0,7.1,0.7,14.1,2,21c15.3-12.2,34.8-19.4,55.9-19.1c46.6,0.6,84.9,38.3,86.3,84.8c0.2,7.7-0.6,15.3-2.2,22.4
	c-6.5,28.5-27.1,51.6-53.9,62c3.2,9.7,4.8,20,4.8,30.8c0,27.2-10.7,51.9-28.1,70.3c4.4,11.8,6.7,24.7,6.6,38
	c-0.5,58.1-47.8,105.5-105.8,106.3c-6.7,0.1-13.1-0.5-19.4-1.5c-2.3,59.1-50.9,106.4-110.6,106.4c-61.2,0-110.7-49.6-110.7-110.7
	c0-25.9,8.9-49.7,23.8-68.6c-26-3.7-46-26.1-46-53.2c0-28,21.3-50.9,48.7-53.5l-0.2-0.9c-6.2-30.7-33.4-53.8-66-53.8
	c-18.3,0-34.9,7.3-47,19.2c-10.3-19.6-30.8-33-54.5-33c-29.7,0-54.5,21-60.2,49c-9.8-4.7-20.8-7.4-32.4-7.4
	c-37.1,0-67.9,26.9-74,62.3c3.4-0.8,7-1.3,10.6-1.3c23.2,0,42.1,18.8,42.1,42.1s-18.8,42.1-42.1,42.1c-23.2,0-42.1-18.9-42.1-42.1
	c0-8.3,2.5-16,6.6-22.6c-3.8-0.6-7.9-0.9-11.9-0.9c-46.3,0-78.9,37.9-83.9,83.9C51.6,556.4,64.5,656.5,1,700.9z"/>
<path class="st1" d="M1601.9,1399.7c-64.6-5.2-155.2-31.9-157.4-155.1c-115.8,49.7-245.7-76.5-164.8-221.2
	c-210,3.7-216-259.1-374.8-322.9c158.8-63.9,164.7-326.6,374.8-322.9c-80.9-145.5,48.3-270.9,164.8-221.2
	c2.3-123.2,92.8-149.9,157.4-155.1"/>
<path class="st2" d="M192.2,700.2c38.8,53.5,81,96.3,131,97.5c0,0,0,0,0,0.3c18,61.8,86.3,94.3,145.4,76.9
	c-36.7-38.7-34.6-67.1-34.6-67.1c0-14.3,4-27.6,11.2-38.6c22.7,5.9,48.4-6.7,55.3-30.3c0-0.1,0-0.1,0-0.1c19.5-0.5,35.9-17.2,51-38
	c-15.1-20.8-31.5-37.5-51-38v0.1c-6.8-23.4-32.4-36.1-54.9-30.4c-7.4-11.1-11.5-24.6-11.5-39.3c0,0-2.1-28.4,34.6-67.1
	c-58.8-17.4-127.4,15.1-145.4,76.9v-0.3C273.3,603.9,231,646.7,192.2,700.2z"/>
</svg>
