<?xml version="1.0" encoding="utf-8"?>
<!-- Generator: Adobe Illustrator 20.1.0, SVG Export Plug-In . SVG Version: 6.00 Build 0)  -->
<svg version="1.1" id="Layer_1" xmlns="http://www.w3.org/2000/svg" xmlns:xlink="http://www.w3.org/1999/xlink" x="0px" y="0px"
	 viewBox="0 0 110 200" style="enable-background:new 0 0 110 200;" xml:space="preserve">
<style type="text/css">
	.st0{fill:#01687A;}
	.st1{fill:#F4F4F5;}
	.st2{fill:#00667A;}
	.st3{fill:#E7A429;}
</style>
<polygon class="st0" points="0,199 3.3,199 3.3,200 0,200 "/>
<path class="st1" d="M4.7,195.2L0,195.7v3.3l2.3-0.2c13.3-1,21.3-7.7,23.5-19.5c0.9,0.1,1.8,0.2,2.7,0.2c8.1,0,15.8-4.4,20-11.4
	c3.7-6.1,4.5-13.3,2.3-20.5c14-2.7,21.2-14.2,27.6-24.4c5.1-8.1,9.9-15.8,17.5-18.9l11.3-4.6L96,95.1C88.4,92,83.6,84.3,78.5,76.2
	C72.1,66,64.9,54.5,50.9,51.8c2.1-7.2,1.4-14.4-2.3-20.5c-4.3-7.1-11.9-11.4-20-11.4c-0.9,0-1.8,0.1-2.7,0.2C24,9.7,17.6,3.3,7,1.2
	V0H3.5"/>
<path class="st0" d="M8,0v0.4C18.3,2.7,24.6,9,26.7,19c0.6-0.1,1.3-0.1,1.9-0.1c8.4,0,16.4,4.5,20.9,11.9c3.6,5.9,4.5,13,2.7,20.3
	C65.9,54.2,73,65.6,79.3,75.7c5,7.9,9.7,15.5,17,18.5l13.4,5.5l-13.5,5.5c-7.3,3-12,10.6-17,18.5c-6.3,10.1-13.5,21.5-27.2,24.6
	c1.9,7.1,1,14.2-2.7,20.3c-4.4,7.4-12.4,11.9-20.9,11.9c-0.6,0-1.3,0-1.9-0.1c-2.5,11.8-10.9,18.4-24.2,19.4L0,200v-2l2.2-0.2
	c12.8-1,20.4-7.3,22.6-18.7l0.2-0.9l0.9,0.1c0.9,0.1,1.7,0.2,2.6,0.2c7.8,0,15.1-4.2,19.1-10.9c3.5-5.8,4.3-12.8,2.2-19.7l-0.3-1.1
	l1.1-0.2c13.6-2.6,20.7-14,26.9-23.9c5.2-8.2,10.1-16.1,18-19.3l9.1-3.7l-9-3.7c-7.9-3.2-12.8-11.1-18-19.3
	c-6.2-10-13.3-21.3-26.9-23.9l-1.1-0.2l0.3-1c2.1-7,1.3-14-2.2-19.7C43.6,25.1,36.3,21,28.6,21c-0.8,0-1.7,0.1-2.6,0.2l-0.9,0.1
	l-0.2-0.9C23.1,10.3,17,4.2,6.8,2.2L6,2V0H8z"/>
<path class="st2" d="M0,5.7C8.7,6.4,20.9,10,21.2,26.6c15.7-6.7,33.1,10.2,22.2,29.8c28.3-0.5,29.1,34.9,50.5,43.5
	c-21.4,8.6-22.2,44-50.5,43.5c10.9,19.5-6.6,36.5-22.2,29.8C20.9,189.8,8.7,193.4,0,194.1"/>
<path class="st3" d="M0,196.1v-3.9l1.8-0.2c11.8-0.9,17.4-7,17.6-18.9l0.1-2.9l2.7,1.2c6.3,2.6,13.4,1.2,18.2-3.9
	c4.3-4.7,7-13.1,1.5-23.1l-1.7-2.9l3.4,0.1c0.2,0,0.4,0,0.5,0c14.7,0,21.3-10.6,28.3-21.8c4.7-7.5,9.6-15.3,17.2-19.8
	C82,95.3,77.1,87.5,72.4,80c-7-11.5-13.7-22.2-28.8-21.9l-3.4,0.1l1.6-2.9c5.5-10,2.9-18.5-1.4-23.1c-4.7-5.1-11.9-6.6-18.2-3.9
	l-2.7,1.2l-0.1-2.9c-0.2-12.1-5.8-18.1-17.6-19L0,7.3V0h4v3.7C15.8,5.2,22.2,12,23.3,23.6c7.2-2,14.9,0.2,20.1,5.8
	c4.8,5.2,8,14.2,3.4,24.9C61.9,55.5,69,66.9,75.9,77.8c5.4,8.5,10.4,16.7,19,20.1l4.5,1.8l-4.5,1.9c-8.6,3.4-13.6,11.6-19,20.1
	c-6.9,11-14,22.4-29.1,23.5c4.6,10.6,1.4,19.6-3.4,24.8c-5.3,5.7-12.9,7.7-20.1,5.8c-1.1,12.4-8.2,19.1-21.1,20.1L0,196.1z"/>
</svg>
