<?xml version="1.0" encoding="utf-8"?>
<!-- Generator: Adobe Illustrator 20.1.0, SVG Export Plug-In . SVG Version: 6.00 Build 0)  -->
<svg version="1.1" id="Layer_2" xmlns="http://www.w3.org/2000/svg" xmlns:xlink="http://www.w3.org/1999/xlink" x="0px" y="0px"
	 viewBox="0 0 52 150" style="enable-background:new 0 0 52 150;" xml:space="preserve">
<style type="text/css">
	.st0{fill:#00667A;}
	.st1{fill:#F0A000;}
	.st2{fill:#F4F4F4;}
</style>
<g>
	<path class="st0" d="M28.5,50.5c-3.7-14.8-6.6-24.1-17.4-26.9l-5.2-1.3l-0.1-12L0,3.4V142h3.6l2.2-2.3v-12.1l5.2-1.3
		c10.8-2.8,13.8-11.9,17.5-26.7C30.6,91,32.9,81.7,38.6,75C32.9,68.3,30.6,59,28.5,50.5z"/>
	<path class="st1" d="M32.4,49.5c-3.3-13.4-6.5-26-20.4-29.6l-2.2-0.6V8.9L4,2V0H0v3.4l5.8,6.9v12.1l5.2,1.3
		c10.8,2.8,13.8,11.9,17.5,26.7C30.6,59,32.9,68.3,38.6,75c-5.7,6.7-8,16-10.1,24.5c-3.7,14.8-6.7,23.9-17.5,26.7l-5.2,1.3v12.1
		L3.6,142H0v4h5.5l4.2-4.9v-10.4l2.2-0.6c13.9-3.6,17.1-16.2,20.4-29.6c2.4-9.7,4.9-19.6,11.9-25.5C37.2,69.1,34.8,59.2,32.4,49.5z"
		/>
	<path class="st2" d="M34.3,49C31,35.7,27.6,21.8,12.5,18l-0.7-0.2V8.2L6,1.3V0H4v2l5.8,6.9v10.4l2.2,0.6
		c13.9,3.6,17.1,16.2,20.4,29.6c2.4,9.7,4.9,19.6,11.9,25.5c-7,5.9-9.5,15.8-11.9,25.5c-3.3,13.4-6.5,26-20.4,29.6l-2.2,0.6v10.4
		L5.5,146H0v2h6.5l5.2-6.2v-9.5l0.7-0.2c15.1-3.9,18.5-17.7,21.8-31.1c2.8-10.8,5.3-21,13.5-26C39.5,70,37,59.8,34.3,49z"/>
	<path class="st0" d="M50.2,74.1C41.5,69.9,39,59.5,36.3,48.6c-3.4-13.7-6.9-27.9-22.5-32.3V7.6L8,0.7V0H6v1.3l5.8,6.9v9.5l0.7,0.2
		C27.6,21.8,31,35.7,34.3,49c2.7,10.8,5.2,21,13.4,26c-8.2,5-10.7,15.2-13.4,26c-3.3,13.4-6.8,27.2-21.8,31.1l-0.7,0.2v9.5L6.5,148
		H0v2h7.5l6.3-7.6v-8.7c15.6-4.4,19.1-18.6,22.5-32.3c2.7-11,5.3-21.3,13.9-25.5L52,75L50.2,74.1z"/>
</g>
</svg>
