<?xml version="1.0" encoding="utf-8"?>
<!-- Generator: Adobe Illustrator 20.1.0, SVG Export Plug-In . SVG Version: 6.00 Build 0)  -->
<svg version="1.1" id="Layer_1" xmlns="http://www.w3.org/2000/svg" xmlns:xlink="http://www.w3.org/1999/xlink" x="0px" y="0px"
	 viewBox="0 0 110 200" style="enable-background:new 0 0 110 200;" xml:space="preserve">
<style type="text/css">
	.st0{fill:#01687A;}
	.st1{fill:#F4F4F5;}
	.st2{fill:#00667A;}
	.st3{fill:#E7A429;}
</style>
<g>
	<polygon class="st0" points="107.4,199.3 110,199.3 110,200 107.4,200 	"/>
	<path class="st1" d="M106.5,0H103v1.2C92.4,3.3,86,9.7,84.1,20.1c-0.9-0.1-1.8-0.2-2.7-0.2c-8.1,0-15.7,4.3-20,11.4
		c-3.7,6.1-4.4,13.3-2.3,20.5c-14,2.7-21.2,14.2-27.6,24.4C26.4,84.3,21.6,92,14,95.1L2.8,99.7l11.3,4.6
		c7.6,3.1,12.4,10.8,17.5,18.9c6.4,10.2,13.6,21.7,27.6,24.4c-2.2,7.2-1.4,14.4,2.3,20.5c4.2,7,11.9,11.4,20,11.4
		c0.9,0,1.8-0.1,2.7-0.2c2.2,11.8,10.2,18.5,23.5,19.5l2.3,0.2v-3.3l-4.7-0.6"/>
	<path class="st0" d="M102,0v0.4C91.7,2.7,85.4,9,83.3,19c-0.6-0.1-1.3-0.1-1.9-0.1c-8.4,0-16.4,4.5-20.9,11.9
		C57,36.7,56,43.8,57.9,51C44.1,54.2,37,65.6,30.7,75.7c-5,7.9-9.7,15.5-17,18.5L0.3,99.7l13.5,5.5c7.3,3,12,10.6,17,18.5
		c6.3,10.1,13.5,21.5,27.2,24.6c-1.9,7.1-1,14.2,2.7,20.3c4.4,7.4,12.4,11.9,20.9,11.9c0.6,0,1.3,0,1.9-0.1
		c2.5,11.8,10.9,18.4,24.2,19.4l2.3,0.2v-2l-2.1-0.2c-12.8-1-20.4-7.3-22.6-18.7l-0.2-0.9l-0.9,0.1c-0.9,0.1-1.7,0.2-2.6,0.2
		c-7.8,0-15.1-4.2-19.1-10.9c-3.5-5.8-4.3-12.8-2.2-19.7l0.3-1.1l-1.1-0.2c-13.6-2.6-20.7-14-26.9-23.9c-5.2-8.2-10.1-16.1-18-19.3
		l-9.1-3.7l9-3.7c7.9-3.2,12.8-11.1,18-19.3c6.1-10,13.2-21.3,26.8-23.9l1.1-0.2l-0.3-1c-2.1-7-1.3-14,2.2-19.7
		C66.4,25.1,73.7,21,81.4,21c0.8,0,1.7,0.1,2.6,0.2l0.9,0.1l0.2-0.9C86.9,10.3,93,4.2,103.2,2.2L104,2V0H102z"/>
	<path class="st2" d="M110,194.1c-8.7-0.7-20.9-4.3-21.2-20.9c-15.6,6.7-33.1-10.3-22.2-29.8c-28.3,0.5-29.1-34.9-50.5-43.5
		c21.4-8.6,22.2-44,50.5-43.5c-10.9-19.6,6.5-36.5,22.2-29.8C89.1,10,101.3,6.4,110,5.7"/>
	<path class="st3" d="M110,196.1v-3.9l-1.8-0.2c-11.8-0.9-17.4-7-17.6-18.9l-0.1-2.9l-2.7,1.2c-6.3,2.6-13.4,1.2-18.2-3.9
		c-4.3-4.7-7-13.1-1.5-23.1l1.7-2.9l-3.4,0.1c-0.2,0-0.4,0-0.5,0c-14.7,0-21.3-10.6-28.3-21.8c-4.7-7.5-9.6-15.3-17.2-19.8
		C28,95.3,32.9,87.5,37.6,80c7-11.5,13.7-22.2,28.8-21.9l3.4,0.1l-1.6-2.9c-5.5-10-2.9-18.5,1.4-23.1c4.7-5.1,11.9-6.6,18.2-3.9
		l2.7,1.2l0.1-2.9c0.2-12,5.8-18,17.6-18.9l1.8-0.1V0h-4v3.7C94.2,5.2,87.8,12,86.7,23.6c-7.2-2-14.9,0.2-20.1,5.8
		c-4.8,5.2-8,14.2-3.4,24.9C48.1,55.5,41,66.9,34.1,77.8c-5.4,8.5-10.4,16.7-19,20.1l-4.5,1.8l4.5,1.9c8.6,3.4,13.6,11.6,19,20.1
		c6.9,11,14,22.4,29.1,23.5c-4.6,10.6-1.4,19.6,3.4,24.8c5.3,5.7,12.9,7.7,20.1,5.8c1.1,12.4,8.2,19.1,21.1,20.1L110,196.1z"/>
</g>
</svg>
