<?xml version="1.0" encoding="utf-8"?>
<!-- Generator: Adobe Illustrator 20.1.0, SVG Export Plug-In . SVG Version: 6.00 Build 0)  -->
<svg version="1.1" id="Layer_2" xmlns="http://www.w3.org/2000/svg" xmlns:xlink="http://www.w3.org/1999/xlink" x="0px" y="0px"
	 viewBox="0 0 52 150" style="enable-background:new 0 0 52 150;" xml:space="preserve">
<style type="text/css">
	.st0{fill:#00667A;}
	.st1{fill:#F0A000;}
	.st2{fill:#F4F4F4;}
</style>
<g>
	<path class="st0" d="M23.5,50.5c3.7-14.8,6.7-23.9,17.5-26.7l5.2-1.5v-12L52,3.4V142h-3.6l-2.2-2.3v-12.1l-5.2-1.3
		c-10.8-2.8-13.8-11.9-17.5-26.7C21.4,91,19.1,81.7,13.4,75C19.1,68.3,21.4,59,23.5,50.5z"/>
	<path class="st1" d="M19.6,49.5c3.3-13.4,6.5-26,20.4-29.6l2.2-0.6V8.9L48,2V0h4v3.4l-5.8,6.9v12.1L41,23.8
		c-10.8,2.8-13.8,11.9-17.5,26.7C21.4,59,19.1,68.3,13.4,75c5.7,6.7,8,16,10.1,24.5c3.7,14.8,6.7,23.9,17.5,26.7l5.2,1.3v12.1
		l2.2,2.3H52v4h-5.5l-4.2-4.9v-10.4l-2.2-0.6c-13.9-3.6-17.1-16.2-20.4-29.6c-2.5-9.6-4.9-19.5-12-25.4
		C14.8,69.1,17.2,59.2,19.6,49.5z"/>
	<path class="st2" d="M17.7,49c3.3-13.3,6.7-27.2,21.8-31l0.7-0.2V8.2L46,1.3V0h2v2l-5.8,6.9v10.4L40,19.9
		c-13.9,3.6-17.1,16.2-20.4,29.6C17.2,59.2,14.8,69.1,7.7,75c7,5.9,9.5,15.8,11.9,25.5c3.3,13.4,6.5,26,20.4,29.6l2.2,0.6v10.4
		l4.2,4.9H52v2h-6.5l-5.2-6.2v-9.5l-0.7-0.2C24.4,128.2,21,114.3,17.7,101C15,90.2,12.5,80,4.3,75C12.5,70,15,59.8,17.7,49z"/>
	<path class="st0" d="M1.8,74.1c8.6-4.2,11.2-14.6,13.9-25.5c3.4-13.7,6.9-27.9,22.5-32.3V7.6L44,0.7V0h2v1.3l-5.8,6.9v9.5L39.5,18
		C24.4,21.8,21,35.7,17.7,49C15,59.8,12.5,70,4.3,75c8.2,5,10.7,15.2,13.4,26c3.3,13.4,6.8,27.2,21.8,31.1l0.7,0.2v9.5l5.2,6.2H52v2
		h-7.5l-6.3-7.6v-8.7c-15.6-4.4-19.1-18.6-22.5-32.3c-2.7-11-5.3-21.3-13.9-25.5L0,75L1.8,74.1z"/>
</g>
</svg>
