<?xml version="1.0" encoding="utf-8"?>
<!-- Generator: Adobe Illustrator 20.1.0, SVG Export Plug-In . SVG Version: 6.00 Build 0)  -->
<svg version="1.1" xmlns="http://www.w3.org/2000/svg" xmlns:xlink="http://www.w3.org/1999/xlink" x="0px" y="0px"
	 viewBox="0 0 700 700" style="enable-background:new 0 0 700 700;" xml:space="preserve" id='iran-svg'>
<style type="text/css">
	#iran-svg .sea{fill:#357FC9;}
	#iran-svg .st1{fill:#EDEDED;stroke:#878787;stroke-width:0.5;transition:.3s;}
	#iran-svg .st1:hover{fill:#71B9D8;}
	#iran-svg path.selected{fill:#e3a23d;}
</style>
<path class="sea" d="M146.9,415c-0.9-1.2,0-2.6,0.4-3.8c3.4,3.3,7.5,6.1,12.7,6.3c0.1,1.3,0.2,2.6,0.2,3.9c3.1-0.8,6.3-1,9.5-0.2
	c0.1,2.6,0.2,5.2,0.3,7.8c4.8-2,9.5-4.1,13.9-6.8c2.4-1.4,5.1-3,8-2.4c3.1,3.7,1.7,10.5,5,14.1c2.4,2.8,4.3,5.8,6.4,8.8
	c2.1,2.9,4.9,3.3,6.3,6.8c1.4,3.5,4.7,7,6.3,10.4c-1.1,2.2-1.7,4.5-2.1,6.9c2.1,1.2,6.5,0.3,8.9-0.4c1.1,0.5,2.1,1,3.2,1.5
	c-1.3,2.5-2.5,5.1-3.8,7.6c0.9,1.2,1.8,2.4,3,3.4c2.1,1.5,2.9,4.9,4.9,6.5c0.6,3.4-1-1.1-0.1,2.3c1,4.3,1.2,9.3,4,12.6
	c1.8,1.7,2,8.3,2.2,10.5c-0.2,1.6,1.3,2.5,2.2,3.7c1.9,1.8,2.8,4.5,5.3,5.6c2.7,1.3,3.8-0.4,6.5,0.7c4.3,0.5,8.7-0.3,13,0.4
	c2.6,0.1,3.9-0.4,5.6,1.1c3.2,3.6,8.4,6.9,12.4,9c3.1,1.5,4.9,2.7,6.9,5.4c-1,0.6-2.1-1.8-3.1-1.2c1.1,1.5,2.1,6.3,3.9,7
	c4.2,2,8.2,4.4,11.7,7.4c1.9,1.6,3.9,3.1,6.2,3.8c4.8,1.5,9.5,3.3,14.3,5.1c0,1.2,0.1,2.4,0.1,3.6c2.6,2.8,5.3,5.7,9,7
	c4.1,1.3,8.6,1.1,12.6-0.5c3.4,1.3,7.2-0.1,10.7-2c4.6,3.4,10.7,7.8,14.1,12.7c2.1,0.1,4.4,0.6,6.5,0c2.7-1.1,4.7-6.2,7-8
	c3.7-3.1,6-4.2,9.9-6.9c1.9,0.4,3.8-1.9,5.8-2.1c2.3-0.4,4.5-1.4,6.7-2.2c0.1-2.4-1.3-5.8,1.3-7.4c2.9-1.2,8.3,1.1,11.3,0.2
	c3.1-0.6,5.7-2.3,8.1-4.4c2.8-2.5,6.5-3.3,10.1-4.1c1.4-0.4,2.9,0.1,4.3,0.4c4.7,1.3,9.6,6.3,14.3,7.9c0,1.5-0.1,2.9,0.2,4.4
	c2,3.7,6.8,8.1,8.1,12.3c1.8,5.1,1.9,5.6,2.4,10.9c0.2,3,1.5,8.7,3,11.2c2,2.8,0.5,6.4,0.5,9.5c3.7,2.4,4.8,1.6,5.6,5.6
	c3.6,1.1,7.3,2.2,11.1,2.1c3,0.1,6.3-1.2,9,0.8c1.9,1.4,4.1,1.2,6.3,0.8c2.2,2.1,4.1,4.8,6.9,6.3c4.4,1.6,8-3.1,12.3-2.4
	c6,0.5,12.2,0.3,17.9,2.4c2.9,1,4.4,3.8,6.8,5.5c5.2-0.1,9.8-3.2,14.9-3.6c3.2-0.8,5.6,2,8.4,2.9c2.6,0.2,5.2-0.6,7.7-1.1
	c1,0.6,2,1.2,3.1,1.7c2.4,0,4.6-5,7-5.1c0.8,0.6,1.5,1.3,2.3,2c1.4,0,2.7,0.1,4.1,0.1c-0.1-0.8-0.1-1.5-0.2-2.3
	c3.7,1.3,7.1-0.7,10.8,0.4c-0.2-2.6-1.6-5-2.6-7.3c1.8,0,3.5,0,5.3,0c0.4,1.7,0.8,3.3,1.1,5c2.7,1,5.4,10,8.2,10.6
	c3.9,0.8,8,0.7,11.9,1.7c3.3,0.8,5.9,3.1,9.2,3.7c2.5,0.6,5,0.3,7.5,0c0.5-1.9,1.1-3.7,1.7-5.5c3.6,0,7.3-0.3,10.6,1.5
	c4.3,2.2,8.6,4.6,13.5,5.1c6,0.6,12.5,0.9,18.1-2c2.9-1.4,4.8-4.3,7.7-5.6c4.9-0.7,10,0,14.8-1.5c0,20.4,1,51.7,1,72.1
	c-77.1-0.1-154.1,0-231.2,0c-3.6-0.2-7.8,0.9-10.9-1.5c-3.1-2.2-6.1-4.7-7.9-8.1c-1.9-3.5-4.3-6.7-7.4-9.2
	c-3.7-2.9-5.3-7.5-7.4-11.6c-2.1-4.8-5.4-9.3-5.6-14.7c-0.2-6.5,0.2-13.1-0.2-19.6c-0.1-3.1-2.9-4.8-4.4-7.1
	c0.6-3.7,4.2-5.9,5.5-9.4c2.1-6.9-0.3-23.2,0.3-30.3c-1.4-0.5-2.7-1-4-1.5c-1.4,2.3-1.6,8.7-2.7,11.1c-1.2-0.4-2.4-0.8-3.6-1.1
	c-1.9,2-3.3,9.5-4.4,12.1c-1.7,3.7-1.6,8.2-4.3,11.6c-2.3,3.2-5.8,5.3-8.9,7.6c-2.3,1.6-4,3.9-5.6,6.1c-0.2-1.4-0.4-2.7-0.6-4.1
	c-2.3,3.5-4.1,7.4-7.2,10.4c-4.4,4.2-7.7,9.4-11.8,13.9c-3.1,3.5-7.2,5.8-10.8,8.8c-2.3,1.9-4.7,3.5-7.1,5.1
	c-0.1,2.4,0.2,4.8-0.5,7.1c-0.7,2-2.7,3.1-4.4,4.2c1.1,1.1,2.2,2.3,3.4,3.4c-2.6-0.6-5.1-1.3-7.7-2c0.2,2.4,1.6,5.3-0.1,7.5
	c-1.9,1.6-4.5,2-6.8,2.9c-2.2-2.2-4.7-4.3-8-3.7c1.1,2.6,2.9,4.8,4.8,6.8c-3.1,0.8-6.1,1.8-9,3c-4.4,1.8-9.2,1.1-13.8,1
	c-1.4-0.7-2.7-1.6-4.2-2c-2.5-0.2-4.9,0.6-7.4,0.5c-2.2-1.1-4.1-2.7-6.5-3.4c-0.2,0.7-0.5,2.2-0.6,2.9c-1.9-1-3.7-2.8-6-1.9
	c-5.3,1.4-11,0.5-15.6-2.5c-4.4,7.3-13.2,10.6-21.4,10.6c-3.1-0.1-6.5,0.2-9.2-1.4c-2.3-3.8-0.8-8.6-1-12.8c-3.1-0.8-5.6,1.1-8,2.7
	c-1.8-1.5-3.3-3.4-5.5-4.4c-2.3-0.7-4.6,0.5-6.7,1.1c0.7-2.2,1.4-4.6,2.8-6.5c1.7-2.2,4-3.8,6.2-5.4c-1-0.8-1.9-1.6-2.9-2.4
	c1-3.5,1.8-7.3,4.2-10.2c1.5-2.1,3.7-4.2,3.5-7c-0.2-4-0.5-8,0.1-12c-1.2-0.3-2.3-0.6-3.5-1c0.7-3.3-0.8-6.4-1.3-9.6
	c0.7-2.3,2.3-4.3,3.2-6.5c1.3-3.3,0.8-6.9,0.9-10.3c-2.1-1.7-4.6-2.6-7.3-2.2c-0.6-2.5-1.3-5-2.1-7.5c-2.1-0.6-4.5-2.3-6.6-0.7
	c-3.5,2.4-8.8,3.8-9.7,8.6c-1,4.3-2.5,8.4-4,12.6c-1.1-1.3-2.4-2.6-3.5-3.9c-0.9,1.2-2.1,2.3-2.5,3.8c0.2,3,1.7,5.8,1.1,8.8
	c-1.2,8.1-0.7,16.4,2.3,24c1.1,2.2,0.6,4.7,0.2,7c-0.5,0-1.4,0.1-1.9,0.2c-0.5-3-0.8-6.2-3.2-8.4c-0.7-2.2-1.6-4.3-2.9-6.2
	c-0.8,0.1-1.5,0.3-2.3,0.5c-0.2-5.2-0.3-10.5-2.1-15.5c-1.1-3.6-5.7-4-7.5-7.1c-1.4-2.4-3.3-4.6-5.7-6.1c1.1-0.4,2.1-0.8,3.2-1.2
	c-1.4-1.9-3.1-3.8-3.8-6.1c-0.4-1.7-0.2-3.4-0.2-5.1c-1.5-1.1-3-2.2-4.6-3.3c0-1.9,0.2-3.9,0.7-5.7c1.4,2.6,2.3,5.3,3.5,8
	c2.7-4.5,5.9-9.4,5-14.9c-0.1-3.8-4.7-4.3-6.8-6.6c-1.6-2.5-1.4-5.6-1.7-8.3c1.5,0.3,3,0.6,4.5,0.8c-1.2-3.3-2.7-6.7-5.7-8.7
	c-3.5-1.8-7.7-2.5-10.5-5.5c-2.4-2.8-3.5-6.3-4.9-9.7c-1.1-0.3-2.2-0.5-3.3-0.8c-0.5,1-0.9,2-1.4,3c-1.4-1.6-2.8-3.1-4.5-4.4
	c-0.4-2.2-0.4-4.8-2.1-6.5c-1.3-1.1-3-1.7-4.6-2.5c2.5,0.2,5.1,0.3,7.6,0.5c-0.7-1.6-1-3.6-2.4-4.8c-2.6-0.5-5.2-0.2-7.8-0.7
	c-2-0.4-2.7-2.6-3.8-4c-0.3,0-0.9,0-1.3-0.1c0.1-1.2,0.1-2.5,0.1-3.7c-1.2-1.4-3.2-0.3-4.7-0.2c0.9-0.5,1.9-1.1,2.8-1.6
	c0.3-3.9-2.5-6.7-5-9.3c0.7-0.2,2.1-0.6,2.9-0.8c-2.3-1.7-5-3-7.1-5c-0.6-1.4-0.2-3-0.3-4.5c0.3-2-1.6-3.3-2.6-4.8
	c-2.2-2.6-1.7-6.2-1.9-9.3c-1.1-1.2-2.3-2.3-3-3.7c-0.8-2.4-0.5-5.1-1.8-7.4c-1.2-2-2.3-4.1-3.1-6.3c-1.8-1.9-3.8-3.8-4.4-6.4
	c-1.3-4.6-0.5-10.1-3.9-13.9c-2-2.5-5.4-1-8.1-0.7c0.1-0.7-0.8-2.3-0.7-3c-1.2-0.3-1.4,0.3-2.6,0c2-1.3,2.9-3.7,4.7-5.4
	c1.6-1.3,3.1-3.4,5.4-2.8c3.7,0,8.3,2.1,11.2-1c1.6-1.9,3.8-4.6,2.1-7.1c-2-3.3-4.5-6.3-5.6-10.1c2.7,1.4,5.1,3.3,8.1,3.9
	c7.1,1.2,14.3-1.1,19.9-5.6C148.4,421.8,148.6,418.1,146.9,415"/>
<path class="sea" d="M163.8,0.7c54.7-0.1,109.5,0,164.2,0c-1,4.1-2.2,13.3-2.7,17.5c-0.2,1.9-0.3,4,0.6,5.8
	c2.5,2.3,6.4,10.6,7.5,14.2c0,5.1-2.8,19.6-4.2,24.3c-1.4,5,1.7,9.9,1,14.9c-0.4,3.3-1.2,6.5-1.5,9.7c-1.1,7.5,0,15.1,1.9,22.4
	c1.1,4.1,1.2,8.5,2.2,12.6c1.5,6.6,3.8,10.4,6.4,16.7c-3.3,0.3-8.1,3.7-11.4,2.7c-2-0.6-3.4-2.4-5.4-2.8
	c-12.2-0.5-23.6,4.5-35.3,7.6c-4,1.1-8.2,0.6-12.1,2.3c-3.4,1.4-6.9,3.4-10.7,3.2c-5.3-0.2-10.2-2.6-15.3-3.9
	c-4.1-1.2-8.4-1.3-12.3-3.1c-3.2-1.4-6.1-3.3-9-5.2c-4.1-2.9-8.5-5-12.4-8.2c-3.2-2.6-7.2-4.9-8.5-9.2c-1.3-2.9-1.2-7-4.3-8.7
	c-4.4-2.6-9.7-2.8-14.7-3.3c-4.2-0.5-8.8-0.3-12.6-2.5c-3.1-1.7-6.2-3.6-8.9-5.8c-3.4-2.8-3.8-7.6-4.7-11.6c-2-10.2-1.6-20.6-1.5-31
	c0.1-3.5-0.8-17-0.6-20.5c1.1-2.9,3.8-12,3.8-15.2C163.5,17.5,162.8,6.6,163.8,0.7z"/>
<g id="ir-map-g">
	<g id="IR">
		<desc>
			<name>Iran</name>
			<labelrank>2</labelrank>
			<country-abbrev>Iran</country-abbrev>
			<subregion>Southern Asia</subregion>
			<region-wb>Middle East &amp; North Africa</region-wb>
			<iso-a3>IRN</iso-a3>
			<iso-a2>IR</iso-a2>
			<woe-id>23424851</woe-id>
			<continent>Asia</continent>
			<hc-key>ir</hc-key>
			<hc-a2>IR</hc-a2>
		</desc>
	</g>
	<path id="IR.5428" class="st1" d="M154.2,408.7l0.3,1.6l-2.1-0.1l0.2-1.4L154.2,408.7z">
		<desc>
			<labelrank>20</labelrank>
			<hasc>-99</hasc>
			<alt-name>NULL</alt-name>
			<woe-id>-99</woe-id>
			<subregion>NULL</subregion>
			<fips>NULL</fips>
			<postal-code>NULL</postal-code>
			<name>NULL</name>
			<country>Iran</country>
			<type-en>NULL</type-en>
			<region>NULL</region>
			<longitude>55.3044</longitude>
			<woe-name>NULL</woe-name>
			<latitude>26.2642</latitude>
			<woe-label>NULL</woe-label>
			<type>NULL</type>
			<hc-middle-x>0.52</hc-middle-x>
			<hc-middle-y>0.47</hc-middle-y>
			<hc-key>ir-5428</hc-key>
			<hc-a2>NU</hc-a2>
		</desc>
	</path>
	<path id="IR.HG" class="st1" d="M342.3,582.8l-3.6,0.1l-2.1-1.8l5.1-0.7L342.3,582.8z M316.4,569.7l-6.1,0.2l-1.7-2.4l6.1,1.2
		L316.4,569.7z M423.9,563.4l-3.3,5.4l-5.1,3.9l-2.7-1.9l-6.6,2.2l-7.7,4.5l-7.9,2.4l-0.6-5l2.6,0.5l16.1-6.8l-0.8-6.8l5.5,1.9
		l5.4-3.1l5.1-1.3l4.5,1.9L423.9,563.4z M546.2,622.3l-8.8,1.6l-4.2-4.5l-4.4-2l-15.5-1.4l-9.6,3.4l-5-1.1l-3.4-5l-7.4,2.8l-1.6-4.8
		l-8.4,0.5l-7.6-1.2l-3.1-7.7l-3.7-5.7l1.8-3.2l-3.3-4.1l-2.4-7.8l0.2-7.4l-2.8-9.9l-7.3-7.9l1.5-1.4l-3-2.8l-8.7-0.3l-8.9-1.9
		l-8.8,2.1l-6.9,5.9l-9.8,1.3l-2.9,2.2l-2,6.2l-2.6,1.9l-8.3-0.9l-2.4,2.9l-4,1.2l-11.5,8.9l-7-0.3l-2.3-3.3l-6.7-0.7l-3.2-4.7
		l-6.1,0.4l-6-1.6l-6.7,2l-4-0.3l-8.8-6.2l-3.1-6l-13.1-4.3l-15.1-9.7l1.8-1.8l7.2,0.4l2.2-1.2l3.9,4.7l8.5,0.7l6.1,3.6l3.7-0.7
		l11.8,1.9l4-2.1l1.9-9.2l5.6-3.5l10.2-1.1l4.2,0.9l5.4-1.7l10.2,1.2l7-3.7l2.6-6.2l5.1-2.9l7.7-2.1l0.8-3.5l-5.1-5.5l2-15.1
		l-1.1-2.7l-11.7-10.7l1-4.2l-2.3-6.5l10.1,1.9l5.1,4.7l5.3,1.4l7.5-6l5.5-2.3l1.1,1.5l1.2,16.4l0.1,7.4l3.5,4.2l7.4,5.2l4.5,0.5
		l6.9-2.8l6.8-7l6.1,1.8l1.8,11.8l4.6,2.6l6.2,8l-1.3,4.4l4.3,7.1l1.9,16.1l0.8,2.5l16.1,7.9l4.2-4.2l2.5-0.1l5.7,3.8l3.3,5.7
		l-2.5-1.4l-2.2,22.9l11.8-1.1l6.1,1.5l1.1,5.6l5.2-0.1l2.2-1.6l4.9,3.3l-1,3.5l9.6,7.2l7.9,10.3L546.2,622.3z">
		<desc>
			<labelrank>4</labelrank>
			<hasc>IR.HG</hasc>
			<alt-name>Banader va Jazayer-e Bahr-e Oman|Ports and Islands of the Sea of Oman|Saheli</alt-name>
			<woe-id>2345776</woe-id>
			<subregion>NULL</subregion>
			<fips>IR11</fips>
			<postal-code>HG</postal-code>
			<name>Hormozgan</name>
			<country>Iran</country>
			<type-en>Province</type-en>
			<region>NULL</region>
			<longitude>56.2505</longitude>
			<woe-name>Hormozgan</woe-name>
			<latitude>27.6455</latitude>
			<woe-label>Hormozgan, IR, Iran</woe-label>
			<type>Ostan</type>
			<hc-middle-x>0.54</hc-middle-x>
			<hc-middle-y>0.37</hc-middle-y>
			<hc-key>ir-hg</hc-key>
			<hc-a2>HG</hc-a2>
		</desc>
	</path>
	<path id="IR.BS" class="st1" d="M211.6,425.5l0.9,5.3l4,6.6l10.4,1.6l5.2,1.7l9.4,14.3l6.3,4.2l16.8,31.9l0.8,3.9l5.5,15.7l6.8,6.4
		l5.2,11.5l9.9,10.8l7.7,5.5l-2.2,1.2l-7.2-0.4l-1.8,1.8l-3.8-3l3.8-1.4l-4.3-5l-5.5-4.5l-6.8-1.5l-8.9-6.6l-5.8-0.6l-5.3,0.9
		l-5.2-1.1l-7.8-6.2l-4.3-7.3v-4.7l-4.6-5.7l-2.5-7.1l-0.4-7.3l-3-3.5l-3.9-0.8l-2.3-3.6l0.4-3.5l2.4,2.4l1.7-3.8l-3.4-4.8l-7.4-0.2
		l1.8-6.3l-1.1-6.8l-1.8-0.9l-5.6-7.2l-2.2-1l-5.6-9.2l-3.6-3.1l-0.5-7.9l-2.8-3.8l6.3-1.7l7.9,1.5l4.3,1.7l1.4,1l0.7,0.5V425.5z">
		<desc>
			<labelrank>6</labelrank>
			<hasc>IR.BS</hasc>
			<alt-name>Banader va Jazayer-e Khalij-e Fars|Bushire|Persian Gulf|Ports and Islands of the Persian Gulf</alt-name>
			<woe-id>2345781</woe-id>
			<subregion>NULL</subregion>
			<fips>IR22</fips>
			<postal-code>BS</postal-code>
			<name>Bushehr</name>
			<country>Iran</country>
			<type-en>Province</type-en>
			<region>NULL</region>
			<longitude>51.4225</longitude>
			<woe-name>Bushehr</woe-name>
			<latitude>28.8273</latitude>
			<woe-label>Bushehr, IR, Iran</woe-label>
			<type>Ostan</type>
			<hc-middle-x>0.44</hc-middle-x>
			<hc-middle-y>0.48</hc-middle-y>
			<hc-key>ir-bs</hc-key>
			<hc-a2>BS</hc-a2>
		</desc>
	</path>
	<path id="IR.KB" class="st1" d="M211.6,425.5l-2.1-1.6l-4.3-1.7l-0.5-6.8l-2-6.4l2.2-5l-0.6-2.3l-5.5-3.5l-4.3-4.9l-6.4,0.7
		l0.5-6.2l-1.5-6.1l1.6-5.1l4.2-2.1l7-7l9,4.3l3.1,0.1l13.5,12.5l5.5,0.6l3.9-2.6l3.7-0.4l2.2,8.2l4,4.3l5.9,4.5l1,7.5l-5.1,2.9
		l-3.9-1l-7.4-4.3l-3.6-0.1l2.4,11.3l-0.9,3.8l-10,5.7l-7.9-0.3L211.6,425.5z">
		<desc>
			<labelrank>4</labelrank>
			<hasc>IR.KB</hasc>
			<alt-name>
				Bovir Ahmadi and Kohkiluyeh|Boyer-Ahmad and Koh-Giluye|Boyer Ahmad e Kohkiluyeh|Boyer Ahmadi-ye Sardir va Kohkiluyeh|Kohgil
				</alt-name>
			<woe-id>2345771</woe-id>
			<subregion>NULL</subregion>
			<fips>IR05</fips>
			<postal-code>KB</postal-code>
			<name>Kohgiluyeh and Buyer Ahmad</name>
			<country>Iran</country>
			<type-en>Province</type-en>
			<region>NULL</region>
			<longitude>50.7947</longitude>
			<woe-name>Kohgiluyeh and Buyer Ahmad</woe-name>
			<latitude>30.6977</latitude>
			<woe-label>Kohgiluyeh va Buyer Ahmad, IR, Iran</woe-label>
			<type>Ostan</type>
			<hc-middle-x>0.50</hc-middle-x>
			<hc-middle-y>0.53</hc-middle-y>
			<hc-key>ir-kb</hc-key>
			<hc-a2>KB</hc-a2>
		</desc>
	</path>
	<path id="IR.FA" class="st1" d="M215.3,424.5l7.9,0.3l10-5.7l0.9-3.8l-2.4-11.3l3.6,0.1l7.4,4.3l3.9,1l5.1-2.9l-1-7.5l3.8-0.7v-7.7
		l3.2-7.8l1.7-7.3l-1.1-2.9l-5.2-2.5l-1.8-4.5l6.4,0.6l11.7-7.5l3.3,6.8l10.9,1.8l12.6-3.6l9.4,3.5l5.6,5.1l4.8,5.7l8.8,21.7l6.3,11
		l7.7,10l2.6,12l5.9,4.3l7.6,3.7l1.1,4.3l5.4,10.2l1.7,1l10.8,1.6l8.1,18.7l2.3,6.5l-1,4.2l11.7,10.7l1.1,2.7l-2,15.1l5.1,5.5
		l-0.8,3.5l-7.7,2.1l-5.1,2.9l-2.6,6.2l-7,3.7l-10.2-1.2l-5.4,1.7l-4.2-0.9l-10.2,1.1l-5.6,3.5l-1.9,9.2l-4,2.1l-11.8-1.9l-3.7,0.7
		l-6.1-3.6l-8.5-0.7l-3.9-4.7l-7.7-5.5l-9.9-10.8l-5.2-11.5l-6.8-6.4l-5.5-15.7l-0.8-3.9l-16.8-31.9l-6.3-4.2l-9.4-14.3l-5.2-1.7
		l-10.4-1.6l-4-6.6l-0.9-5.3v-0.1L215.3,424.5z">
		<desc>
			<labelrank>4</labelrank>
			<hasc>IR.FA</hasc>
			<alt-name>NULL</alt-name>
			<woe-id>2345772</woe-id>
			<subregion>NULL</subregion>
			<fips>IR07</fips>
			<postal-code>FA</postal-code>
			<name>Fars</name>
			<country>Iran</country>
			<type-en>Province</type-en>
			<region>NULL</region>
			<longitude>53.0793</longitude>
			<woe-name>Fars</woe-name>
			<latitude>29.4007</latitude>
			<woe-label>Fars, IR, Iran</woe-label>
			<type>Ostan</type>
			<hc-middle-x>0.56</hc-middle-x>
			<hc-middle-y>0.56</hc-middle-y>
			<hc-key>ir-fa</hc-key>
			<hc-a2>FA</hc-a2>
		</desc>
	</path>
	<path id="IR.ES" class="st1" d="M250.7,399l-5.9-4.5l-4-4.3l-2.2-8.2l0.5-4.8l-3.2-11.1l-0.5-7.2l2.8-1.6l-1.9-4l2.9-4.6l-2.5-8
		l-10.7-8.9l-0.1-6.5l-4.6-7.7l-3.9,1.6l-6.2,0.3l-4.2,2.6l-6.9-0.1l-4.4-3.2l-6.6,0.7l-7.2,3.7l1.8-4.4l-1.4-2.1l-8.7-2.4l-1.7-4.4
		l1.6-2.9l4.7-2l0.7-5.1l2.2-2.4l5.4-1.4l5.1-9.5l1-5.9l8.8-5.6l15.1-3.7l4.3-3l4.4-0.6l5-12.5l-1.7-2.4l1.2-8.4l5.2-4l10.5-0.6
		l12-3l6.9,3.8l3.4,0.6l12.2-0.2l17.1,5.2l85.1-3.8l3.3,1.7v0.1l1.1,29.1l-3.8,8.5l-8.3,3.8l-1.9,2.5l-1.5,7.2l-2.5,5.9l-5.7,4.7
		l-38.3,13.8l-11.5-2.5l-6.2,1.5l-10.2,5.8l0.8,14.7l-1.8,8.8l-1,9.3l1.6,6.3l-12.6,3.6l-10.9-1.8l-3.3-6.8l-11.7,7.5l-6.4-0.6
		l1.8,4.5l5.2,2.5l1.1,2.9l-1.7,7.3l-3.2,7.8v7.7L250.7,399z">
		<desc>
			<labelrank>6</labelrank>
			<hasc>IR.ES</hasc>
			<alt-name>Isfahan|Ispahan</alt-name>
			<woe-id>2345787</woe-id>
			<subregion>NULL</subregion>
			<fips>IR28</fips>
			<postal-code>ES</postal-code>
			<name>Esfahan</name>
			<country>Iran</country>
			<type-en>Province</type-en>
			<region>NULL</region>
			<longitude>52.4195</longitude>
			<woe-name>Esfahan</woe-name>
			<latitude>32.9837</latitude>
			<woe-label>Esfahan, IR, Iran</woe-label>
			<type>Ostan</type>
			<hc-middle-x>0.50</hc-middle-x>
			<hc-middle-y>0.34</hc-middle-y>
			<hc-key>ir-es</hc-key>
			<hc-a2>ES</hc-a2>
		</desc>
	</path>
	<path id="IR.SM" class="st1" d="M382.1,242.5l-85.1,3.8l-17.1-5.2l-12.2,0.2l-3.4-0.6l-6.9-3.8l3.8-9.1l-0.4-5.2l3.6-10.8l-5.5-8.2
		l1.1-10.3l4.6,0.5l8.3,5.6l13.2,3.3l2.8,0.1l7.5-3.2l5.6-5.1l1.1-3.9l-1.6-9.1l9.8-3l5.5-0.6l4-2.7l2-3.4l4.9-4.8l1.3-6.1l3.8-5.1
		l6.3-2.8l12-0.5l4.8-2.4l7.9-7.1l6-3.6l2.9-0.4l12.5,1.3l1.7-0.8l1.6-7.8l2.6-6.4l7.5-11.3l5.5,6.8l5.5,1.9l-3.3,3.1l-0.1,8.3
		l5,5.8l4.1,3.2l7,1.6l5.3-1.1l3.2,0.6l1,3.3l-2.1,6.8l-0.3,4.7l1,8.1l2.4,7.5l11.1,9l-0.4,3l-8.1,15.2l-7.3,3.1l-8.3,6.9l-5.5,7.2
		l-12,22l-3.9,2.1l-9.2,0.1l-3.8,1v0.1L382.1,242.5z">
		<desc>
			<labelrank>6</labelrank>
			<hasc>IR.SM</hasc>
			<alt-name>NULL</alt-name>
			<woe-id>2345784</woe-id>
			<subregion>NULL</subregion>
			<fips>IR25</fips>
			<postal-code>SM</postal-code>
			<name>Semnan</name>
			<country>Iran</country>
			<type-en>Province</type-en>
			<region>NULL</region>
			<longitude>54.4381</longitude>
			<woe-name>Semnan</woe-name>
			<latitude>35.4243</latitude>
			<woe-label>Semnan, IR, Iran</woe-label>
			<type>Ostan</type>
			<hc-middle-x>0.61</hc-middle-x>
			<hc-middle-y>0.62</hc-middle-y>
			<hc-key>ir-sm</hc-key>
			<hc-a2>SM</hc-a2>
		</desc>
	</path>
	<path id="IR.GO" class="st1" d="M324.6,138.9l6.3,0.9l4.3-1.3l0.6-5.5l-4-13.2l-0.3-3.7l9.4,0.7l6-1.8l5.8-3.4l2.8,0.2l5.7-3.7
		v-5.8l2.2-4.8l5.1-3.6l4.1-4.9l3-0.8l6.8-4.8l9.7-2.1l9.2,1.9l6.4-0.8l0.8,8.6l-0.4,4.7l4.3,3.1l0.7,2.6l-1.8,2.7l-9.3,4.4
		l-3.4,5.5l-7.5,11.3l-2.6,6.4l-1.6,7.8l-1.7,0.8l-12.5-1.3l-2.9,0.4l-6,3.6l-7.9,7.1l-4.8,2.4l-12,0.5l-5.1-5.9l-7.8-4.5
		L324.6,138.9z">
		<desc>
			<labelrank>4</labelrank>
			<hasc>IR.GO</hasc>
			<alt-name>NULL</alt-name>
			<woe-id>20070201</woe-id>
			<subregion>NULL</subregion>
			<fips>IR37</fips>
			<postal-code>GO</postal-code>
			<name>Golestan</name>
			<country>Iran</country>
			<type-en>Province</type-en>
			<region>NULL</region>
			<longitude>55.0042</longitude>
			<woe-name>Golestan</woe-name>
			<latitude>37.312</latitude>
			<woe-label>Golestan, IR, Iran</woe-label>
			<type>Ostan</type>
			<hc-middle-x>0.57</hc-middle-x>
			<hc-middle-y>0.52</hc-middle-y>
			<hc-key>ir-go</hc-key>
			<hc-a2>GO</hc-a2>
		</desc>
	</path>
	<path id="IR.MN" class="st1" d="M216.4,130.9l17.5,11.2l9.7,2.1l18.7,4.9l6.4-0.8l5.8-2.1l18-3.8l11.6-3.6l13.1-2.9l13.6-0.9
		l4.1-2.1l-0.1,1.6l-6.4,1.8h-7.2l3.4,2.6l1.6,3.7l7.8,4.5l5.1,5.9l-6.3,2.8l-3.8,5.1l-1.3,6.1l-4.9,4.8l-2,3.4l-4,2.7l-5.5,0.6
		l-9.8,3l-4.7-2.5l-2.9,0.9l-6.7-2.7l-8-1.9l-7.7,8l-2.5,0.9l-5.5-1.4l-6.8-9.2l-4.7-1.9l-5.4-0.5l-3.7-2.2l-2.3-2.7l-7.1-2
		l-1.9-2.2l-8-2.2l-0.4-2l-7.4-5.5l-9.1-8l4-4.8l0.9-3.6L216.4,130.9z">
		<desc>
			<labelrank>4</labelrank>
			<hasc>IR.MN</hasc>
			<alt-name>NULL</alt-name>
			<woe-id>2345780</woe-id>
			<subregion>NULL</subregion>
			<fips>IR17</fips>
			<postal-code>MN</postal-code>
			<name>Mazandaran</name>
			<country>Iran</country>
			<type-en>Province</type-en>
			<region>NULL</region>
			<longitude>52.2123</longitude>
			<woe-name>Mazandaran</woe-name>
			<latitude>36.231</latitude>
			<woe-label>Mazandaran, IR, Iran</woe-label>
			<type>Ostan</type>
			<hc-middle-x>0.63</hc-middle-x>
			<hc-middle-y>0.60</hc-middle-y>
			<hc-key>ir-mn</hc-key>
			<hc-a2>MN</hc-a2>
		</desc>
	</path>
	<path id="IR.TH" class="st1" d="M301.5,181.5l1.6,9.1l-1.1,3.9l-5.6,5.1l-7.5,3.2l-2.8-0.1l-13.2-3.3l-8.3-5.6l-4.6-0.5l-1.1,10.3
		l5.5,8.2l-3.6,10.8l-20-12.2l-8.5-2.7l-10.1-0.4l0,0l3.2-9.8v-3l-2.4-3.8l5.1-5.7l1-2.6l3.2-0.1l0.6-4.9l2.2-2.4l7.6-1.8l0.2-4.2
		l3.7,2.2l5.4,0.5l4.7,1.9l6.8,9.2l5.5,1.4l2.5-0.9l7.7-8l8,1.9l6.7,2.7l2.9-0.9L301.5,181.5z">
		<desc>
			<labelrank>7</labelrank>
			<hasc>IR.TH</hasc>
			<alt-name>Teheran|T?h?ran</alt-name>
			<woe-id>2345785</woe-id>
			<subregion>NULL</subregion>
			<fips>IR26</fips>
			<postal-code>TH</postal-code>
			<name>Tehran</name>
			<country>Iran</country>
			<type-en>Province</type-en>
			<region>NULL</region>
			<longitude>51.6548</longitude>
			<woe-name>Tehran</woe-name>
			<latitude>35.5146</latitude>
			<woe-label>Tehran, IR, Iran</woe-label>
			<type>Ostan</type>
			<hc-middle-x>0.31</hc-middle-x>
			<hc-middle-y>0.46</hc-middle-y>
			<hc-key>ir-th</hc-key>
			<hc-a2>TH</hc-a2>
		</desc>
	</path>
	<path id="IR.MK" class="st1" d="M222.2,207.3l-2.3,4.7l-1.2,8.3l-19.3,5.3l0.2,4.7l-3.7,4l3.4,3.8l4.7,2.4l1.2,5.2l3.9,4.1l9.2,1.1
		l3.7,2.1l8.2,2.3l-5,12.5l-4.4,0.6l-4.3,3l-15.1,3.7l-8.8,5.6l-6-7.4l-3.1,3.9l-6.4-5.8l1-3.6l-4.4-4.3l-5.5,2.4l-1.3,3.7l-3.6,2.4
		l-5.1-0.8l-4.6-3l2.2-5.3l0.4-4.4l4.6-5.1l-1.1-7.5l-2.4-5.1l-1.6-9.7l6.1,1.2l-0.3-6.4l2.1-6.8l9.5,0.5l0.5,4.8l2.5,2.8l2.4-1.5
		l-0.6-4.7l-2.4-4.2l-5.6-2.1l-2.4-2.3l5.5-3.3l-2.4-7.6l2.1-1.4l3.1,1.9l-0.8-5.3h6.2l2.6-3.5l11.7-3.1l6.3-2.5l3.2,0.1l8.5,1.7
		l2.8,2.4l-0.9-3.2l2.4-1.1l1.5,5.4l3.7-2.2l2.4,3.8v3L222.2,207.3L222.2,207.3L222.2,207.3z">
		<desc>
			<labelrank>4</labelrank>
			<hasc>IR.MK</hasc>
			<alt-name>NULL</alt-name>
			<woe-id>2345783</woe-id>
			<subregion>NULL</subregion>
			<fips>IR34</fips>
			<postal-code>MK</postal-code>
			<name>Markazi</name>
			<country>Iran</country>
			<type-en>Province</type-en>
			<region>NULL</region>
			<longitude>49.964</longitude>
			<woe-name>Markazi</woe-name>
			<latitude>34.5595</latitude>
			<woe-label>Markazi, IR, Iran</woe-label>
			<type>Ostan</type>
			<hc-middle-x>0.38</hc-middle-x>
			<hc-middle-y>0.54</hc-middle-y>
			<hc-key>ir-mk</hc-key>
			<hc-a2>MK</hc-a2>
		</desc>
	</path>
	<path id="IR.YA" class="st1" d="M354.9,440.7l-7.6-3.7l-5.9-4.3l-2.6-12l-7.7-10l-6.3-11L316,378l-4.8-5.7l-5.6-5.1l-9.4-3.5
		l-1.6-6.3l1-9.3l1.8-8.8l-0.8-14.7l10.2-5.8l6.2-1.5l11.5,2.5l38.3-13.8l5.7-4.7l2.5-5.9l1.5-7.2l1.9-2.5l8.3-3.8l3.8-8.5
		l-1.1-29.1v-0.1l3.8-1l9.2-0.1l3.9-2.1l12-22l14.4-4.3l13.8-7.2l8.8-2.7l3.9,0.8L466,213l1,5.4l-3.3,3.6l-13.6,10.6l-2.3,4.5
		l-3.9,13.7l0.1,7.3l2.7,12.3l1.8,2.6l7.2,0.5l9.1-2.5l3.2,4.5l3.6,18.1l2.7,5.3l9.6,4.9l4.2,5.1l-1.3,7.9l5,9l-1.4,9l-4.5,6.8
		l-6.9,15.8l-40.2-15.3l-4.7-0.6l-2.4,3.1l-7.4,4.6l-2.5,2.8l-19.3,10.9l-1.5,3.6l-0.6,16.5l-6.2,3l-6.9,1.1l-7.8-0.6l-20.8,4.1
		l-4.8,6.9l-0.7,5.3l4.4,9.6l1,4.3l2.5,2.2l-0.3,14l1.1,5.4L354.9,440.7z">
		<desc>
			<labelrank>6</labelrank>
			<hasc>IR.YA</hasc>
			<alt-name>NULL</alt-name>
			<woe-id>2345790</woe-id>
			<subregion>NULL</subregion>
			<fips>IR40</fips>
			<postal-code>YA</postal-code>
			<name>Yazd</name>
			<country>Iran</country>
			<type-en>Province</type-en>
			<region>NULL</region>
			<longitude>55.5242</longitude>
			<woe-name>Yazd</woe-name>
			<latitude>32.7074</latitude>
			<woe-label>Yazd, IR, Iran</woe-label>
			<type>Ostan</type>
			<hc-middle-x>0.52</hc-middle-x>
			<hc-middle-y>0.50</hc-middle-y>
			<hc-key>ir-ya</hc-key>
			<hc-a2>YA</hc-a2>
		</desc>
	</path>
	<path id="IR.CM" class="st1" d="M238.6,382l-3.7,0.4L231,385l-5.5-0.6L212,371.9l-3.1-0.1l-9-4.3l3.4-5l-0.8-4.4l-5.6-6.4l-4.1-9.8
		l-4-3.1l-6.3-11.7l-0.6-3.9l7.2-3.7l6.6-0.7l4.4,3.2l6.9,0.1l4.2-2.6l6.2-0.3l3.9-1.6l4.6,7.7l0.1,6.5l10.7,8.9l2.5,8l-2.9,4.6
		l1.9,4l-2.8,1.6l0.5,7.2l3.2,11.1L238.6,382z">
		<desc>
			<labelrank>4</labelrank>
			<hasc>IR.CM</hasc>
			<alt-name>Bakhtiari|Chaharmahal va Bakhtiyari|Charmahal-Bakhtiyari</alt-name>
			<woe-id>2345769</woe-id>
			<subregion>NULL</subregion>
			<fips>IR03</fips>
			<postal-code>CM</postal-code>
			<name>Chahar Mahall and Bakhtiari</name>
			<country>Iran</country>
			<type-en>Province</type-en>
			<region>NULL</region>
			<longitude>50.5298</longitude>
			<woe-name>Chahar Mahall and Bakhtiari</woe-name>
			<latitude>31.9975</latitude>
			<woe-label>Chahar Mahall va Bakhtiari, IR, Iran</woe-label>
			<type>Ostan</type>
			<hc-middle-x>0.60</hc-middle-x>
			<hc-middle-y>0.48</hc-middle-y>
			<hc-key>ir-cm</hc-key>
			<hc-a2>CM</hc-a2>
		</desc>
	</path>
	<path id="IR.KZ" class="st1" d="M171.9,309.9l1.7,4.4l8.7,2.4l1.4,2.1l-1.8,4.4l0.6,3.9l6.3,11.7l4,3.1l4.1,9.8l5.6,6.4l0.8,4.4
		l-3.4,5l-7,7l-4.2,2.1l-1.6,5.1l1.5,6.1l-0.5,6.2l6.4-0.7l4.3,4.9l5.5,3.5l0.6,2.3l-2.2,5l2,6.4l0.5,6.8l-7.9-1.5l-6.3,1.7h-5.1
		l-11.9,7.2l-2.6,0.3l-1.8-5.8l-8.7-0.3l-0.8-4.7l-2.3,1.7L152,417l-1.9-4.1l4.2-0.1l5.2,2.8l2.1-3.2l-1.6-3.7l-8.5-0.7l1.2,4.4
		l-3.1-0.2l-2.8,3l2.1,4.2l0.2,7.4l-2.2,2.3l-6.5-0.6l-3.6,3.1l-5.8-2.1l-2.4-6.8l0.6-2.7l-4.5-4.6l-2.7-0.1l-1.4-4.5l-5.3-1.8
		l1-22.1l-0.5-0.8l-12.2-0.5l1-17.8l6.3-15l-5.5-11.1l-3-4.1l6.3-4.7l-0.3-5l2.9-3.6l3.7-7.6l2.1-2.8l5.6-12.8l2-1.4l15.4-1.1
		l7.8,3.9l8,1.1l8.2,6.1L171.9,309.9z">
		<desc>
			<labelrank>4</labelrank>
			<hasc>IR.KZ</hasc>
			<alt-name>Khuzistan|Kouzistan</alt-name>
			<woe-id>2345778</woe-id>
			<subregion>NULL</subregion>
			<fips>IR15</fips>
			<postal-code>KZ</postal-code>
			<name>Khuzestan</name>
			<country>Iran</country>
			<type-en>Province</type-en>
			<region>NULL</region>
			<longitude>48.7558</longitude>
			<woe-name>Khuzestan</woe-name>
			<latitude>31.3484</latitude>
			<woe-label>Khuzestan, IR, Iran</woe-label>
			<type>Ostan</type>
			<hc-middle-x>0.48</hc-middle-x>
			<hc-middle-y>0.50</hc-middle-y>
			<hc-key>ir-kz</hc-key>
			<hc-a2>KZ</hc-a2>
		</desc>
	</path>
	<path id="IR.LO" class="st1" d="M192.6,280.7l-1,5.9l-5.1,9.5l-5.4,1.4l-2.2,2.4l-0.7,5.1l-4.7,2l-1.6,2.9l-7.8-0.2l-8.2-6.1
		l-8-1.1l-7.8-3.9l-15.4,1.1l-2,1.4l-5.6,12.8l-2.1,2.8l-6.4-14.1l-8.2-10.7l-7.8-4.3l-4.2-4.1l-3.4-1.3l-0.5-2.9l-6.3-5.9l0.8-2.3
		l4.5-4.2l12.8-2.9l4.2-4l-1.1-6.1l0.8-5.3l6.4-1.7l0.3-5.7l4.2-0.2l18,13.4l10.3,1.6l1.9-1.9l5.2-0.2l9.7,4.6l-0.4,4.4l-2.2,5.3
		l4.6,3l5.1,0.8l3.6-2.4l1.3-3.7l5.5-2.4l4.4,4.3l-1,3.6l6.4,5.8l3.1-3.9L192.6,280.7z">
		<desc>
			<labelrank>4</labelrank>
			<hasc>IR.LO</hasc>
			<alt-name>NULL</alt-name>
			<woe-id>2345782</woe-id>
			<subregion>NULL</subregion>
			<fips>IR23</fips>
			<postal-code>LO</postal-code>
			<name>Lorestan</name>
			<country>Iran</country>
			<type-en>Province</type-en>
			<region>NULL</region>
			<longitude>48.4141</longitude>
			<woe-name>Lorestan</woe-name>
			<latitude>33.5323</latitude>
			<woe-label>Lorestan, IR, Iran</woe-label>
			<type>Ostan</type>
			<hc-middle-x>0.53</hc-middle-x>
			<hc-middle-y>0.49</hc-middle-y>
			<hc-key>ir-lo</hc-key>
			<hc-a2>LO</hc-a2>
		</desc>
	</path>
	<path id="IR.IL" class="st1" d="M115,316.7l-3.7,7.6l-2.9,3.6l0.3,5l-6.3,4.7l-3.2-2.1l0.7-2.2l-3.8-6.1l0.9-1.6l-2.6-3.7l-3.3-1.3
		l-4.8,0.8l-2.2-1.6l-11.9-11.9l-8.3-6.4l-7.3-3.3l-6.4-0.2l1.1-4.6l-3.1-2.1l5.1-2.4l-0.2-4l-4-4.9l-3.9-7.5l-0.8-4.2l-5.6,1.7
		l-0.2-2.2l3.7-11l0.9-5.2l7.7-0.1l5.2,2.6l5.8,1.2l4.8,4.1l8.9,3.4l4.2,0.6l6.2-1.3l5.6,0.6l1.5-4.2l-1.3-3.9l7.6-0.7l1.1,6.1
		l-4.2,4l-12.8,2.9l-4.5,4.2l-0.8,2.3l6.3,5.9l0.5,2.9l3.4,1.3l4.2,4.1l7.8,4.3l8.2,10.7L115,316.7z">
		<desc>
			<labelrank>7</labelrank>
			<hasc>IR.IL</hasc>
			<alt-name>Ilam and Poshtkuh</alt-name>
			<woe-id>2345775</woe-id>
			<subregion>NULL</subregion>
			<fips>IR10</fips>
			<postal-code>IL</postal-code>
			<name>Ilam</name>
			<country>Iran</country>
			<type-en>Province</type-en>
			<region>NULL</region>
			<longitude>46.8116</longitude>
			<woe-name>Ilam</woe-name>
			<latitude>33.2369</latitude>
			<woe-label>Ilam, IR, Iran</woe-label>
			<type>Ostan</type>
			<hc-middle-x>0.37</hc-middle-x>
			<hc-middle-y>0.35</hc-middle-y>
			<hc-key>ir-il</hc-key>
			<hc-a2>IL</hc-a2>
		</desc>
	</path>
	<path id="IR.AR" class="st1" d="M99,31.2l3.3-5l6.5-2.7l3-3.1l6.2-2.6l10.1-6.5l3.7-0.7l3.1,2.6l9,12.2l-7.4,3.1l0.4,5.1l4.1,3.3
		l1.1,2.8l-2.3,3l-6.3,0.8l-2.4,2.3l0.6,3.1l6.5,4.2l0.5,3l2.6,2.8l3.6-0.6l0.5,2.1l5.8,7.8l4.2,5.2l-8,8.8l-2.6,7.9l2.8,8.8
		l5.3,9.2l5.1,5.4l0.2,6.4l-2.2-1.3l-5.5,0.6l-2.1,2.4l-4.8-3.2l-8.4-5.7l-1-5.3l-7.5-4.6l-0.8-4.7l1.7-6.7l-5-6.8l-2.3-11l-2.3-1.3
		l-7.7,0.7l-2.5-1.7l-3.9,0.6v-3.5l2.9-4.6l4.3-3.2l6.5-1.1l-2.2-3.2l1.9-5.7l-1.7-5l0.3-8.9l-1.3-0.6l-8.6,4.4l-4.2,6.5l0.9,1
		l-5.6,4.7l-4.9-1.8l-7,2.3l-2.5-3.5l3.5-5.4l3,0.5l1.1-3.5l2.1,1.4l5-1l4.3-4.4L99,31.2z">
		<desc>
			<labelrank>7</labelrank>
			<hasc>IR.AR</hasc>
			<alt-name>Ardabil</alt-name>
			<woe-id>20070198</woe-id>
			<subregion>NULL</subregion>
			<fips>IR32</fips>
			<postal-code>AR</postal-code>
			<name>Ardebil</name>
			<country>Iran</country>
			<type-en>Province</type-en>
			<region>NULL</region>
			<longitude>47.7241</longitude>
			<woe-name>Ardebil</woe-name>
			<latitude>38.9113</latitude>
			<woe-label>Ardabil, IR, Iran</woe-label>
			<type>Ostan</type>
			<hc-middle-x>0.64</hc-middle-x>
			<hc-middle-y>0.54</hc-middle-y>
			<hc-key>ir-ar</hc-key>
			<hc-a2>AR</hc-a2>
		</desc>
	</path>
	<path id="IR.QM" class="st1" d="M260.8,222.6l0.4,5.2l-3.8,9.1l-12,3l-10.5,0.6l-5.2,4l-1.2,8.4l1.7,2.4L222,253l-3.7-2.1l-9.2-1.1
		l-3.9-4.1l-1.2-5.2l-4.7-2.4l-3.4-3.8l3.7-4l-0.2-4.7l19.3-5.3l1.2-8.3l2.3-4.7v0.1l10.1,0.3l8.5,2.7L260.8,222.6z">
		<desc>
			<labelrank>7</labelrank>
			<hasc>IR.QM</hasc>
			<alt-name>NULL</alt-name>
			<woe-id>20070199</woe-id>
			<subregion>NULL</subregion>
			<fips>IR39</fips>
			<postal-code>QM</postal-code>
			<name>Qom</name>
			<country>Iran</country>
			<type-en>Province</type-en>
			<region>NULL</region>
			<longitude>50.978</longitude>
			<woe-name>Qom</woe-name>
			<latitude>34.6662</latitude>
			<woe-label>Qom, IR, Iran</woe-label>
			<type>Ostan</type>
			<hc-middle-x>0.45</hc-middle-x>
			<hc-middle-y>0.55</hc-middle-y>
			<hc-key>ir-qm</hc-key>
			<hc-a2>QM</hc-a2>
		</desc>
	</path>
	<path id="IR.HD" class="st1" d="M156.2,258.5l-9.7-4.6l-5.2,0.2l-1.9,1.9l-10.3-1.6l-18-13.4l2.1-3.1l7.5,1l1.7-5.7l-1-2.9
		l-5.7,3.9l-1.2-3.3l-4.7-2.4l-2-3.3l5.3-1.2l4.9-8.6l5.7-3l1.8,3.3l3.4-6.2l-0.8-4l-5-5.2l-3.4-8.7l-2.3-3.7l3.4-3.1l2.6,3.9
		l4.7-2.2l-1.8-5.1l6.3,2.7l2.7,3.3l7.5,0.6l6,2.6l4-3.3l5.5-0.4l4.2,3.5l1.2,3.5l5.5,0.7l5.8,2.1l0.8,5.3l-3.1-1.9l-2.1,1.4
		l2.4,7.6l-5.5,3.3l2.4,2.3l5.6,2.1l2.4,4.2l0.6,4.7l-2.4,1.5l-2.5-2.8l-0.5-4.8l-9.5-0.5l-2.1,6.8l0.3,6.4l-6.1-1.2l1.6,9.7
		l2.4,5.1l1.1,7.5L156.2,258.5z">
		<desc>
			<labelrank>7</labelrank>
			<hasc>IR.HD</hasc>
			<alt-name>Hamedan</alt-name>
			<woe-id>2345774</woe-id>
			<subregion>NULL</subregion>
			<fips>IR09</fips>
			<postal-code>HD</postal-code>
			<name>Hamadan</name>
			<country>Iran</country>
			<type-en>Province</type-en>
			<region>NULL</region>
			<longitude>48.5738</longitude>
			<woe-name>Hamadan</woe-name>
			<latitude>34.8342</latitude>
			<woe-label>Hamadan, IR, Iran</woe-label>
			<type>Ostan</type>
			<hc-middle-x>0.47</hc-middle-x>
			<hc-middle-y>0.50</hc-middle-y>
			<hc-key>ir-hd</hc-key>
			<hc-a2>HD</hc-a2>
		</desc>
	</path>
	<path id="IR.ZA" class="st1" d="M152.8,187.3l-4,3.3l-6-2.6l-7.5-0.6l-2.7-3.3l-1.5-2.7l-9.4-6.4l1.7-4l1.1-7.5l-0.6-5.6l-2.4-5.1
		l-17.4-4.4l-1-1l-4.2-11.1l0.8-4.8l7.1-7.3l7.9-4.7l10.9-0.7l13.7,1.6l4.3-2l4.8,3.2l2.1-2.4l5.5-0.6l2.2,1.3l5.1,3.5l5.1,6.6
		l1.8,7.2l-6.7,3.2l-1,6l3.9,7l5,2.7l2.8,7l-0.4,5.7l-6.4,1.5l-5.9,4.3l-0.2,2.1l-3.1-1.6l-11.4,2.3l-0.7,1.8L152.8,187.3z">
		<desc>
			<labelrank>7</labelrank>
			<hasc>IR.ZA</hasc>
			<alt-name>NULL</alt-name>
			<woe-id>2345786</woe-id>
			<subregion>NULL</subregion>
			<fips>IR36</fips>
			<postal-code>ZA</postal-code>
			<name>Zanjan</name>
			<country>Iran</country>
			<type-en>Province</type-en>
			<region>NULL</region>
			<longitude>48.2959</longitude>
			<woe-name>Zanjan</woe-name>
			<latitude>36.3989</latitude>
			<woe-label>Zanjan, IR, Iran</woe-label>
			<type>Ostan</type>
			<hc-middle-x>0.61</hc-middle-x>
			<hc-middle-y>0.46</hc-middle-y>
			<hc-key>ir-za</hc-key>
			<hc-a2>ZA</hc-a2>
		</desc>
	</path>
	<path id="IR.QZ" class="st1" d="M206.7,144.4l9.1,8l7.4,5.5l0.4,2l-8.2-1l-5,1.7l2.9,3.6l4.1,2.2l-3.4,8.8l-10.4,6.2l1.4,6.3
		l-3.2-0.1l-6.3,2.5l-11.7,3.1l-2.6,3.5H175l-5.8-2.1l-5.5-0.7l-1.2-3.5l-4.2-3.5l-5.5,0.4l-6.7-8.1l0.7-1.8l11.4-2.3l3.1,1.6
		l0.2-2.1l5.9-4.3l6.4-1.5l0.4-5.7l-2.8-7l-5-2.7l-3.9-7l1-6l6.7-3.2l7.5,8.4l11.5,3l9.9-4.2H206.7z">
		<desc>
			<labelrank>7</labelrank>
			<hasc>IR.QZ</hasc>
			<alt-name>NULL</alt-name>
			<woe-id>20070200</woe-id>
			<subregion>NULL</subregion>
			<fips>IR38</fips>
			<postal-code>QZ</postal-code>
			<name>Qazvin</name>
			<country>Iran</country>
			<type-en>Province</type-en>
			<region>NULL</region>
			<longitude>49.6996</longitude>
			<woe-name>Qazvin</woe-name>
			<latitude>36.0552</latitude>
			<woe-label>Qazvin, IR, Iran</woe-label>
			<type>Ostan</type>
			<hc-middle-x>0.56</hc-middle-x>
			<hc-middle-y>0.59</hc-middle-y>
			<hc-key>ir-qz</hc-key>
			<hc-a2>QZ</hc-a2>
		</desc>
	</path>
	<path id="IR.WA" class="st1" d="M98.9,136.3l4.2,11.1l-4.3,5.7l-2.7,1.1l-7.5-1.8l-3.6-3.9L66.9,149l-8.7-1.8l-3.1,1l-2.9,5.4
		l-5.8,1.4l-5.9,8l-2.7,1.9l-5.1,0.9l-1.5-1.6l1.5-3.2l-2.6-7.8l-0.2-6.1l-4.5-0.4l-3.7-6l2.3-4.8l-1.4-4.1l-5.5-2.7l2.1-3.9l0.4-6
		l-4.1-4.1l2.3-7.7l-7.5-7.3l1.1-6.6L10.1,92l2.2-3.4l-2.8-3l-2,0.4l-2.2-4L0,80.6l0.4-4.1l5.5-7.3l0.8-4.3L9.9,62l-1-2.5l-4.5-0.6
		l1.2-10.4l-1.7-1.7l1.8-7.9l-2.6-2.3L1.7,32l2.2-6.4l-3.4-2.7l0.3-8.7l6.9,1.4l4.7-1.8l2.9-11.2L19.1,0l8.2,6.7L28.8,7l2.1,8.5
		l4.3,4.4l1.4,5.6l6.4,2.7l4.3,8.3l-4.2,3.8l-2.3,6.3l1,4.8l-1.7,4.3l-6.3,5.6l-2.3,6.4l2.7,4.7l-0.2,20l3.6,7.4l-0.8,5.3l1.4,4.4
		l9.6,7.4l8.1,1.4l5,5.9l7.1,5l3.7-4.4l8.8-2.6l5.1,3.6l0.5,8.5l4.5,2.5L98.9,136.3z">
		<desc>
			<labelrank>4</labelrank>
			<hasc>IR.WA</hasc>
			<alt-name>Azarbayjan-e Bakhtari|Azarbaijan-e Gharbi|West Azarbayejan|Azerba?djan e Gharbi</alt-name>
			<woe-id>2345767</woe-id>
			<subregion>NULL</subregion>
			<fips>IR01</fips>
			<postal-code>WA</postal-code>
			<name>West Azarbaijan</name>
			<country>Iran</country>
			<type-en>Province</type-en>
			<region>NULL</region>
			<longitude>45.6734</longitude>
			<woe-name>West Azarbaijan</woe-name>
			<latitude>36.6666</latitude>
			<woe-label>Azarbayjan-e Gharbi, IR, Iran</woe-label>
			<type>Ostan</type>
			<hc-middle-x>0.20</hc-middle-x>
			<hc-middle-y>0.35</hc-middle-y>
			<hc-key>ir-wa</hc-key>
			<hc-a2>WA</hc-a2>
		</desc>
	</path>
	<path id="IR.EA" class="st1" d="M98.9,136.3l-8.3,0.5l-4.5-2.5l-0.5-8.5l-5.1-3.6l-8.8,2.6l-3.7,4.4l-7.1-5l-5-5.9l-8.1-1.4
		l-9.6-7.4l-1.4-4.4l0.8-5.3L34,92.4l0.2-20l-2.7-4.7l2.3-6.4l6.3-5.6l1.7-4.3l-1-4.8l2.3-6.3l4.2-3.8l16.8,4.9l4.1,1.8l9.2-1.9
		l4.6,2l7.6-6.3l4.4-5.2l5-0.6l2.7,6.1l-4.3,4.4l-5,1l-2.1-1.4l-1.1,3.5l-3-0.5l-3.5,5.4l2.5,3.5l7-2.3l4.9,1.8l5.6-4.7l-0.9-1
		l4.2-6.5l8.6-4.4l1.3,0.6l-0.3,8.9l1.7,5l-1.9,5.7l2.2,3.2l-6.5,1.1l-4.3,3.2l-2.9,4.6v3.5l3.9-0.6l2.5,1.7l7.7-0.7l2.3,1.3l2.3,11
		l5,6.8l-1.7,6.7l0.8,4.7l7.5,4.6l1,5.3l8.4,5.7l-4.3,2l-13.7-1.6l-10.9,0.7l-7.9,4.7l-7.1,7.3L98.9,136.3z">
		<desc>
			<labelrank>4</labelrank>
			<hasc>IR.EA</hasc>
			<alt-name>Azarbayjan-e Khavari|Azarbaijan-e Sharghi|Azarbaijan-Sharqi|East Azarbayejan|Azerba?djan e Sharqi</alt-name>
			<woe-id>2345768</woe-id>
			<subregion>NULL</subregion>
			<fips>IR01</fips>
			<postal-code>EA</postal-code>
			<name>East Azarbaijan</name>
			<country>Iran</country>
			<type-en>Province</type-en>
			<region>NULL</region>
			<longitude>46.7723</longitude>
			<woe-name>East Azarbaijan</woe-name>
			<latitude>37.8501</latitude>
			<woe-label>Azarbayjan-e Sharqi, IR, Iran</woe-label>
			<type>Ostan</type>
			<hc-middle-x>0.42</hc-middle-x>
			<hc-middle-y>0.48</hc-middle-y>
			<hc-key>ir-ea</hc-key>
			<hc-a2>EA</hc-a2>
		</desc>
	</path>
	<path id="IR.BK" class="st1" d="M111.1,241l-4.2,0.2l-0.3,5.7l-6.4,1.7l-0.8,5.3l-7.6,0.7l1.3,3.9l-1.5,4.2l-5.6-0.6l-6.2,1.3
		l-4.2-0.6l-8.9-3.4l-4.8-4.1l-5.8-1.2l-5.2-2.6l-7.7,0.1l-0.9,5.2l-3.7,11l-2.3-2.2l-5.4-11.5l-3.7-1.8l6-6.3l1.3-5.8l-2.7-3
		l-1.9-5.1l3.3-2l0.2-4.2l6.8,2.3l-0.6-6.1l-1.3-1.4l2-4.1l2.6-0.8l0.5-3l2.8,1.1l1.2-5.6l2.1-2.8l3.4,1.4l4.8-1.3l1.3-5l-1.4-3.1
		l7.4,6.1l7.8,12.2l2.2,1.1l0.8,5.2l9.2-0.4l3.6-5.4l3.7-2.5l4.4-0.3l0.8-3.6l5-0.1l2.4-4.4l5.3,3.3l5.1,6.4l2.7,0.3l-4.9,8.6
		l-5.3,1.2l2,3.3l4.7,2.4l1.2,3.3l5.7-3.9l1,2.9l-1.7,5.7l-7.5-1L111.1,241z">
		<desc>
			<labelrank>7</labelrank>
			<hasc>IR.BK</hasc>
			<alt-name>Bakhtaran|Kermanshahan</alt-name>
			<woe-id>2345777</woe-id>
			<subregion>NULL</subregion>
			<fips>IR13</fips>
			<postal-code>BK</postal-code>
			<name>Kermanshah</name>
			<country>Iran</country>
			<type-en>Province</type-en>
			<region>NULL</region>
			<longitude>46.6893</longitude>
			<woe-name>Kermanshah</woe-name>
			<latitude>34.2796</latitude>
			<woe-label>Kermanshah, IR, Iran</woe-label>
			<type>Ostan</type>
			<hc-middle-x>0.45</hc-middle-x>
			<hc-middle-y>0.52</hc-middle-y>
			<hc-key>ir-bk</hc-key>
			<hc-a2>BK</hc-a2>
		</desc>
	</path>
	<path id="IR.GI" class="st1" d="M216.4,130.9l-4.8,5.1l-0.9,3.6l-4,4.8h-7.6l-9.9,4.2l-11.5-3l-7.5-8.4l-1.8-7.2l-5.1-6.6l-5.1-3.5
		l-0.2-6.4l-5.1-5.4l-5.3-9.2l-2.8-8.8l2.6-7.9l8-8.8l-4.2-5.2l5.6-1.9l3.3,0.6l-0.5,5l1.9,17l2.2,8.1l3.8,5.1l10.4,6l13.2,2.2
		l3.7,0.1l7.3,2.3l2.5,3.3l3.2,7.6L216.4,130.9z">
		<desc>
			<labelrank>4</labelrank>
			<hasc>IR.GI</hasc>
			<alt-name>NULL</alt-name>
			<woe-id>2345773</woe-id>
			<subregion>NULL</subregion>
			<fips>IR08</fips>
			<postal-code>GI</postal-code>
			<name>Gilan</name>
			<country>Iran</country>
			<type-en>Province</type-en>
			<region>NULL</region>
			<longitude>49.5162</longitude>
			<woe-name>Gilan</woe-name>
			<latitude>37.0503</latitude>
			<woe-label>Gilan, IR, Iran</woe-label>
			<type>Ostan</type>
			<hc-middle-x>0.63</hc-middle-x>
			<hc-middle-y>0.76</hc-middle-y>
			<hc-key>ir-gi</hc-key>
			<hc-a2>GI</hc-a2>
		</desc>
	</path>
	<path id="IR.KD" class="st1" d="M132.6,184.1l-6.3-2.7l1.8,5.1l-4.7,2.2l-2.6-3.9l-3.4,3.1l2.3,3.7l3.4,8.7l5,5.2l0.8,4l-3.4,6.2
		l-1.8-3.3l-5.7,3l-2.7-0.3l-5.1-6.4l-5.3-3.3l-2.4,4.4l-5,0.1l-0.8,3.6l-4.4,0.3l-3.7,2.5l-3.6,5.4l-9.2,0.4l-0.8-5.2l-2.2-1.1
		L65,203.6l-7.4-6.1l-5.1-9.4l1.6-7l1.6-1.3l7.1-0.6l2.8-2.2l-1-2.6l-3.4,1.1l-4.2-2.8l-8.1,1.5l-4-1.1l-2.2-4.7l-4.9-3.5l2.7-1.9
		l5.9-8l5.8-1.4l2.9-5.4l3.1-1l8.7,1.8l18.1-0.5l3.6,3.9l7.5,1.8l2.7-1.1l4.3-5.7l1,1l17.4,4.4l2.4,5.1l0.6,5.6l-1.1,7.5l-1.7,4
		l9.4,6.4L132.6,184.1z">
		<desc>
			<labelrank>4</labelrank>
			<hasc>IR.KD</hasc>
			<alt-name>Kurdistan</alt-name>
			<woe-id>2345779</woe-id>
			<subregion>NULL</subregion>
			<fips>IR16</fips>
			<postal-code>KD</postal-code>
			<name>Kordestan</name>
			<country>Iran</country>
			<type-en>Province</type-en>
			<region>NULL</region>
			<longitude>46.8636</longitude>
			<woe-name>Kordestan</woe-name>
			<latitude>35.5778</latitude>
			<woe-label>Kordestan, IR, Iran</woe-label>
			<type>Ostan</type>
			<hc-middle-x>0.62</hc-middle-x>
			<hc-middle-y>0.49</hc-middle-y>
			<hc-key>ir-kd</hc-key>
			<hc-a2>KD</hc-a2>
		</desc>
	</path>
	<path id="IR.KJ" class="st1" d="M569,245.9l2.3,10.2l-1.1,5.8l1.2,3.1l5.4,2.9l8.2-0.1l-1.8,6.4l-2.1,1.8l-6.1,9.8l0.9,6.8
		l11.7,31.5l-0.2,7.7l-1.1,2l3.5,22.9l11.3,1.1l0.8,7.7l-3.2,12.4l0.5,14.6l2.5,8.3l-0.5,2.3l-6.3,1.1l-3.2-2.4l-6.5-7.9l-4.9-3.1
		l-7.9-2.8l-28.6,10.4l-16.1-20.7l-5.6-3.6L479,357.4l6.9-15.8l4.5-6.8l1.4-9l-5-9l1.3-7.9l2.3-3.9l0.9-5.2l4.6-7.9l11-8.1l4.2-8.1
		l-5.7-3.6l-2.7-3.7l1.2-16.3l-1.4-4.5l1.9-0.9l9.5,1.3l1.9-2l10.5-2.3l6.8-3.7l6,7l4.8,1.3l22.4-1.7L569,245.9z">
		<desc>
			<labelrank>4</labelrank>
			<hasc>IR.KJ</hasc>
			<alt-name>Khorasan-e Janubi</alt-name>
			<woe-id>56189825</woe-id>
			<subregion>NULL</subregion>
			<fips>IR41</fips>
			<postal-code>KJ</postal-code>
			<name>South Khorasan</name>
			<country>Iran</country>
			<type-en>Province</type-en>
			<region>NULL</region>
			<longitude>59.489</longitude>
			<woe-name>NULL</woe-name>
			<latitude>32.4563</latitude>
			<woe-label>NULL</woe-label>
			<type>Ostan</type>
			<hc-middle-x>0.52</hc-middle-x>
			<hc-middle-y>0.55</hc-middle-y>
			<hc-key>ir-kj</hc-key>
			<hc-a2>KJ</hc-a2>
		</desc>
	</path>
	<path id="IR.KV" class="st1" d="M461.6,87.7l15.5,4.5l1.1,4.1L484,98l4.7-2.9l6.7,1.6l3.2-2.4l8.6,2.7l6,4l4.8,0.6l1.2,7.5l7.4,5.4
		l8,2.5l3.8,2.4l4.2,0.7l4.4,6.3l8.1,9.6l25.5-2.6l3.2,0.2l0.9,2.4l-0.5,7.5l3.6,12.3l-1.3,4.9l3.1,5.4l0.2,8.9l2.5,5.2l-2.8,8
		l-2.6,4.2l-0.1,3.7l2.2,3.8l-1,1.9l-0.9,10.7l-3.4,4.3l-0.2,3.7l-8.4,6l7.5,8l-8.8,1.2l-4.8,7.7v2.5l-2.7,0.7l-22.4,1.7l-4.8-1.3
		l-6-7l-6.8,3.7l-10.5,2.3l-1.9,2l-9.5-1.3l-1.9,0.9l1.4,4.5l-1.2,16.3l2.7,3.7l5.7,3.6l-4.2,8.1l-11,8.1l-4.6,7.9l-0.9,5.2
		l-2.3,3.9l-4.2-5.1l-9.6-4.9l-2.7-5.3l-3.6-18.1l-3.2-4.5l-9.1,2.5l-7.2-0.5l-1.8-2.6l-2.7-12.3l-0.1-7.3l3.9-13.7l2.3-4.5
		l13.6-10.6l3.3-3.6l-1-5.4l-10.8-7.4l-3.9-0.8l-8.8,2.7l-13.8,7.2l-14.4,4.3l5.5-7.2l8.3-6.9l7.3-3.1l8.1-15.2l0.4-3l-11.1-9
		l-2.4-7.5l-1-8.1l0.3-4.7l2.1-6.8l-1-3.3l-3.2-0.6l-0.1-4.7l1.9-2.7l8-7.1h5.5l23.6,11.5l9.7,1l3.9-2.1l0.9-3.5l-2.1-2.6l2.1-3.6
		l-2.5-3.5l-1.8,1.7l-3.5-3.2l4.5-14.3l1.5-2.6l-1.4-3.6l-3.3-2.7l-2.1-4L457,97.8l-1.4-0.9l0.7-5L461.6,87.7z">
		<desc>
			<labelrank>4</labelrank>
			<hasc>IR.KV</hasc>
			<alt-name>Khorasan-e Razavi</alt-name>
			<woe-id>2345789</woe-id>
			<subregion>NULL</subregion>
			<fips>IR42</fips>
			<postal-code>KV</postal-code>
			<name>Razavi Khorasan</name>
			<country>Iran</country>
			<type-en>Province</type-en>
			<region>NULL</region>
			<longitude>58.7976</longitude>
			<woe-name>Razavi Khorasan</woe-name>
			<latitude>35.584</latitude>
			<woe-label>Khorasan, IR, Iran</woe-label>
			<type>Ostan</type>
			<hc-middle-x>0.49</hc-middle-x>
			<hc-middle-y>0.45</hc-middle-y>
			<hc-key>ir-kv</hc-key>
			<hc-a2>KV</hc-a2>
		</desc>
	</path>
	<path id="IR.KS" class="st1" d="M427.6,143.6l-5.3,1.1l-7-1.6l-4.1-3.2l-5-5.8l0.1-8.3l3.3-3.1l-5.5-1.9l-5.5-6.8l3.4-5.5l9.3-4.4
		l1.8-2.7l-0.7-2.6l-4.3-3.1l0.4-4.7l-0.8-8.6l4.5-0.2l-0.2-3.7l4.6-4l5.1,0.7l5.1-1.8l3.1,1.8l7.3,1.3l4.1-4.1l1.8,0.4l4.7,7.8
		l0.5,4.8l5,1.7l8.3,0.6l-5.3,4.2l-0.7,5l1.4,0.9l15.4-0.2l2.1,4l3.3,2.7l1.4,3.6l-1.5,2.6l-4.5,14.3l3.5,3.2l1.8-1.7l2.5,3.5
		l-2.1,3.6l2.1,2.6l-0.9,3.5l-3.9,2.1l-9.7-1l-23.6-11.5h-5.5l-8,7.1l-1.9,2.7L427.6,143.6z">
		<desc>
			<labelrank>4</labelrank>
			<hasc>IR.KS</hasc>
			<alt-name>Khorasan-e Shemali</alt-name>
			<woe-id>-56189824</woe-id>
			<subregion>NULL</subregion>
			<fips>IR43</fips>
			<postal-code>KS</postal-code>
			<name>North Khorasan</name>
			<country>Iran</country>
			<type-en>Province</type-en>
			<region>NULL</region>
			<longitude>57.0475</longitude>
			<woe-name>NULL</woe-name>
			<latitude>37.5789</latitude>
			<woe-label>NULL</woe-label>
			<type>Ostan</type>
			<hc-middle-x>0.41</hc-middle-x>
			<hc-middle-y>0.50</hc-middle-y>
			<hc-key>ir-ks</hc-key>
			<hc-a2>KS</hc-a2>
		</desc>
	</path>
	<path id="IR.SB" class="st1" d="M546.2,622.3l0.1-3.2l-7.9-10.3l-9.6-7.2l1-3.5l0.7-6.2l2-5.9l-2.7-5.7l2-3.5l-2-3.5l1.9-5.3
		l-5.4-7.2l-2.5-15.2l3.6-17.5l0.2-5l-1-14.9l4.1-6l1-3.9l-6.3-6.5l6.4-2.9l8.6-5.7l2.7-2.7l-1.8-5.5l-0.6-9.2l2.9-5l0.8-8.1
		l-1.8-9.1l-4.5-5.6l0.2-3.6l5.5-36l28.6-10.4l7.9,2.8l4.9,3.1l6.5,7.9l3.2,2.4l6.3-1.1l0.5-2.3l-2.5-8.3l-0.5-14.6l3.2-12.4
		l-0.8-7.7l20.2,1.3l3.5,3.2v2.7l3.9,8.6l-0.8,8.9l-32.1,44.9l17.9,18.3l2.3,1.2l0.6,5.2l6.1,7.1l3.7,8.8l3.6,4.7l9.9,8.6l6.2,1.9
		l12.2,2l8.9,7.5l6.1-1.8l1.3,2l-0.4,9.5l2.3,7l2.5,14.4l-1.7,6.6l2.2,5.2h4.6l9.4-2.7l3.5,1.5l3,4.1l-3.3,3.1l2,7l-3,2.9l-0.8,9
		l-15.2,0.4l-6,3.3l-6.4,1.2l-5.1,3.1l-1.4,6.7l-4.8-0.7l-0.9,2.7L646,581l-1.6,3.4l-0.9,14.4l-3.7,3.3l-0.2,21l-5.1,4.4l0.8,2.9
		l-3.2,3.1l-9.2-2.2l-0.6-1.8l-5.7-1.6l-15.8-1.8l-1.6-5.6l-2.1-1.7l-5.9,3.4l3.1,3.6l-6-1.4l-2-2l-2.3,2.7l-5.1-1.7l-6.9,1.9
		l-5.2-2.3l-9.3,0.1l-3.4-2.5L546.2,622.3z">
		<desc>
			<labelrank>4</labelrank>
			<hasc>IR.SB</hasc>
			<alt-name>Baluchestan va Sistan|Seistan and Baluchistan|Sistan e Baloutchistan</alt-name>
			<woe-id>2345770</woe-id>
			<subregion>NULL</subregion>
			<fips>IR04</fips>
			<postal-code>SB</postal-code>
			<name>Sistan and Baluchestan</name>
			<country>Iran</country>
			<type-en>Province</type-en>
			<region>NULL</region>
			<longitude>61.0471</longitude>
			<woe-name>Sistan and Baluchestan</woe-name>
			<latitude>27.4268</latitude>
			<woe-label>Sistan va Baluchestan, IR, Iran</woe-label>
			<type>Ostan</type>
			<hc-middle-x>0.46</hc-middle-x>
			<hc-middle-y>0.65</hc-middle-y>
			<hc-key>ir-sb</hc-key>
			<hc-a2>SB</hc-a2>
		</desc>
	</path>
	<path id="IR.KE" class="st1" d="M479,357.4l43.1,16.7l5.6,3.6l16.1,20.7l-5.5,36l-0.2,3.6l4.5,5.6l1.8,9.1l-0.8,8.1l-2.9,5l0.6,9.2
		l1.8,5.5l-2.7,2.7l-8.6,5.7l-6.4,2.9l6.3,6.5l-1,3.9l-4.1,6l1,14.9l-0.2,5l-3.6,17.5l2.5,15.2l5.4,7.2l-1.9,5.3l2,3.5l-2,3.5
		l2.7,5.7l-2,5.9l-0.7,6.2l-4.9-3.3l-2.2,1.6l-5.2,0.1l-1.1-5.6l-6.1-1.5l-11.8,1.1l2.2-22.9l2.5,1.4l-3.3-5.7l-5.7-3.8l-2.5,0.1
		l-4.2,4.2l-16.1-7.9l-0.8-2.5l-1.9-16.1l-4.3-7.1l1.3-4.4l-6.2-8l-4.6-2.6l-1.8-11.8l-6.1-1.8l-6.8,7l-6.9,2.8l-4.5-0.5l-7.4-5.2
		l-3.5-4.2l-0.1-7.4l-1.2-16.4l-1.1-1.5l-5.5,2.3l-7.5,6l-5.3-1.4l-5.1-4.7l-10.1-1.9l-8.1-18.7l-10.8-1.6l-1.7-1L356,445l-1.1-4.3
		l7-2.4l-1.1-5.4l0.3-14l-2.5-2.2l-1-4.3l-4.4-9.6l0.7-5.3l4.8-6.9l20.8-4.1l7.8,0.6l6.9-1.1l6.2-3l0.6-16.5l1.5-3.6l19.3-10.9
		l2.5-2.8l7.4-4.6l2.4-3.1l4.7,0.6L479,357.4z">
		<desc>
			<labelrank>6</labelrank>
			<hasc>IR.KE</hasc>
			<alt-name>NULL</alt-name>
			<woe-id>2345788</woe-id>
			<subregion>NULL</subregion>
			<fips>IR29</fips>
			<postal-code>KE</postal-code>
			<name>Kerman</name>
			<country>Iran</country>
			<type-en>Province</type-en>
			<region>NULL</region>
			<longitude>56.9567</longitude>
			<woe-name>Kerman</woe-name>
			<latitude>30.1234</latitude>
			<woe-label>Kerman, IR, Iran</woe-label>
			<type>Ostan</type>
			<hc-middle-x>0.60</hc-middle-x>
			<hc-middle-y>0.41</hc-middle-y>
			<hc-key>ir-ke</hc-key>
			<hc-a2>KE</hc-a2>
		</desc>
	</path>
	<path id="IR.AL" class="st1" d="M223.6,159.9l8,2.2l1.9,2.2l7.1,2l2.3,2.7l-0.2,4.2l-7.6,1.8l-2.2,2.4l-0.6,4.9l-3.2,0.1l-1,2.6
		l-5.1,5.7l-3.7,2.2l-1.5-5.4l-2.4,1.1l0.9,3.2l-2.8-2.4l-8.5-1.7l-1.4-6.3l10.4-6.2l3.4-8.8l-4.1-2.2l-2.9-3.6l5-1.7L223.6,159.9z"
		>
		<desc>
			<labelrank>7</labelrank>
			<hasc>IR.AL</hasc>
			<alt-name>NULL</alt-name>
			<woe-id>-20070200</woe-id>
			<subregion>NULL</subregion>
			<fips>IR26</fips>
			<postal-code>AL</postal-code>
			<name>Alborz</name>
			<country>Iran</country>
			<type-en>Province</type-en>
			<region>NULL</region>
			<longitude>50.7848</longitude>
			<woe-name>NULL</woe-name>
			<latitude>35.9651</latitude>
			<woe-label>NULL</woe-label>
			<type>Ostan</type>
			<hc-middle-x>0.55</hc-middle-x>
			<hc-middle-y>0.36</hc-middle-y>
			<hc-key>ir-al</hc-key>
			<hc-a2>AL</hc-a2>
		</desc>
	</path>
</g>
<script type="text/javascript">
	<![CDATA[
	var w = document.getElementById('iran-svg');
	w.addEventListener('load', function()
	{
		for (var i = 0; i < w.querySelectorAll('g > path').length; i++)
		{
			if ( w.querySelectorAll('g > path')[i].hasAttribute('id') )
			{
				w.querySelectorAll('g > path')[i].onmousemove = function(event)
				{
					var id = this.querySelectorAll('desc > name')[0].textContent;
				}
			}
		}

		function shuffle()
		{
			var min  = 0;
			var max  = w.querySelectorAll('g > path').length;
			var rand = Math.floor(Math.random() * (max - min + 1)) + min;
			var path = w.querySelectorAll('g > path')[rand];
			if(path)
			{
				var name = path.querySelectorAll('desc > name')[0].textContent;
				console.log(name);
				path.setAttribute('class', 'st1 selected');
				setTimeout(function()
				{
					path.setAttribute('class', 'st1');
				}, 3100);
			}
		}

		setInterval(function()
		{
			shuffle();
		}, 3000);
	 }, false);
	]]>
</script>
</svg>
