<?xml version="1.0" encoding="utf-8"?>
<!-- Generator: Adobe Illustrator 20.1.0, SVG Export Plug-In . SVG Version: 6.00 Build 0)  -->
<svg version="1.1" id="Layer_1" xmlns="http://www.w3.org/2000/svg" xmlns:xlink="http://www.w3.org/1999/xlink" x="0px" y="0px"
	 viewBox="0 0 255.5 119.1" style="enable-background:new 0 0 255.5 119.1;" xml:space="preserve">
<style type="text/css">
	.st0{opacity:0.25;}
	.st1{fill:none;stroke:#A2A1A1;stroke-width:0.119;stroke-miterlimit:10;}
	.st2{fill:none;stroke:#A2A1A1;stroke-width:0.119;stroke-miterlimit:10;stroke-dasharray:0.7984,0.7984;}
	.st3{fill:none;stroke:#A2A1A1;stroke-width:0.119;stroke-miterlimit:10;stroke-dasharray:0.7977,0.7977;}
	.st4{opacity:0.2;fill:#FFFFFF;enable-background:new    ;}
	.st5{opacity:0.6;}
	.st6{fill:#FFFFFF;}
	.st7{fill:#00667A;}
	.st8{opacity:0.5;fill:#CC1030;enable-background:new    ;}
	.st9{fill:none;stroke:#999999;stroke-width:0.2;stroke-miterlimit:10;}
	.st10{fill:none;stroke:#B7B7B7;stroke-width:0.1;stroke-miterlimit:10;}
	.st11{fill:none;stroke:#CE516F;stroke-width:0.5;stroke-miterlimit:10;}
	.st12{fill:none;stroke:#AAAAAA;stroke-width:0.1;stroke-miterlimit:10;}
	.st13{fill:none;stroke:#EA6081;stroke-width:0.5;stroke-miterlimit:10;}
	.st14{fill:none;stroke:#A5A5A5;stroke-width:0.25;stroke-miterlimit:10;}
	.st15{fill:none;stroke:#999999;stroke-width:0.3893;stroke-miterlimit:10;}
	.st16{opacity:0.25;fill:none;stroke:#021EC1;stroke-width:0.2;stroke-miterlimit:10;enable-background:new    ;}
	.st17{opacity:0.25;fill:none;stroke:#AF1233;stroke-width:0.2;stroke-miterlimit:10;enable-background:new    ;}
	.st18{fill:none;stroke:#E2E200;stroke-width:0.2;stroke-miterlimit:10;}
	.st19{fill:none;stroke:#04AD18;stroke-width:0.2;stroke-miterlimit:10;}
	.st20{fill:#A0A0A0;}
	.st21{fill:none;stroke:#B5B5B5;stroke-width:0.3;stroke-miterlimit:10;}
	.st22{fill:none;stroke:#878787;stroke-width:0.1;stroke-miterlimit:10;}
	.st23{fill:none;stroke:#FFFFFF;stroke-width:0.1;stroke-miterlimit:10;}
	.st24{fill:none;stroke:#B22020;stroke-width:0.1;stroke-miterlimit:10;}
	.st25{opacity:0.25;enable-background:new    ;}
	.st26{fill:#AF1233;}
	.st27{opacity:0.25;fill:none;stroke:#021EC1;stroke-width:0.1585;stroke-miterlimit:10;enable-background:new    ;}
	.st28{fill:none;stroke:#E2E200;stroke-width:0.1585;stroke-miterlimit:10;}
	.st29{fill:none;stroke:#04AD18;stroke-width:0.1585;stroke-miterlimit:10;}
	.st30{opacity:0.25;fill:none;stroke:#AF1233;stroke-width:0.1585;stroke-miterlimit:10;enable-background:new    ;}
</style>
<g class="st0">
	<g>
		<g>
			<g>
				<polyline class="st1" points="141.7,-31.5 142.1,-31.5 142.1,-31.5 141.7,-31.5 				"/>
				<line class="st2" x1="140.9" y1="-31.5" x2="-16.8" y2="-31.5"/>
				<polyline class="st1" points="-17.2,-31.5 -17.6,-31.5 -17.6,-31.5 -17.2,-31.5 				"/>
				<line class="st2" x1="-16.4" y1="-31.5" x2="141.3" y2="-31.5"/>
			</g>
		</g>
		<g>
			<g>
				<polyline class="st1" points="141.7,-22.4 142.1,-22.4 142.1,-22.4 141.7,-22.4 				"/>
				<line class="st2" x1="140.9" y1="-22.4" x2="-16.8" y2="-22.4"/>
				<polyline class="st1" points="-17.2,-22.4 -17.6,-22.4 -17.6,-22.4 -17.2,-22.4 				"/>
				<line class="st2" x1="-16.4" y1="-22.4" x2="141.3" y2="-22.4"/>
			</g>
		</g>
		<g>
			<g>
				<polyline class="st1" points="141.7,-13.4 142.1,-13.4 142.1,-13.3 141.7,-13.3 				"/>
				<line class="st2" x1="140.9" y1="-13.3" x2="-16.8" y2="-13.3"/>
				<polyline class="st1" points="-17.2,-13.3 -17.6,-13.3 -17.6,-13.4 -17.2,-13.4 				"/>
				<line class="st2" x1="-16.4" y1="-13.4" x2="141.3" y2="-13.4"/>
			</g>
		</g>
		<g>
			<g>
				<polyline class="st1" points="141.7,-4.3 142.1,-4.3 142.1,-4.2 141.7,-4.2 				"/>
				<line class="st2" x1="140.9" y1="-4.2" x2="-16.8" y2="-4.2"/>
				<polyline class="st1" points="-17.2,-4.2 -17.6,-4.2 -17.6,-4.3 -17.2,-4.3 				"/>
				<line class="st2" x1="-16.4" y1="-4.3" x2="141.3" y2="-4.3"/>
			</g>
		</g>
		<g>
			<g>
				<polyline class="st1" points="141.7,4.8 142.1,4.8 142.1,4.9 141.7,4.9 				"/>
				<line class="st2" x1="140.9" y1="4.9" x2="-16.8" y2="4.9"/>
				<polyline class="st1" points="-17.2,4.9 -17.6,4.9 -17.6,4.8 -17.2,4.8 				"/>
				<line class="st2" x1="-16.4" y1="4.8" x2="141.3" y2="4.8"/>
			</g>
		</g>
		<g>
			<g>
				<polyline class="st1" points="141.7,13.9 142.1,13.9 142.1,13.9 141.7,13.9 				"/>
				<line class="st2" x1="140.9" y1="13.9" x2="-16.8" y2="13.9"/>
				<polyline class="st1" points="-17.2,13.9 -17.6,13.9 -17.6,13.9 -17.2,13.9 				"/>
				<line class="st2" x1="-16.4" y1="13.9" x2="141.3" y2="13.9"/>
			</g>
		</g>
		<g>
			<g>
				<polyline class="st1" points="141.7,23 142.1,23 142.1,23 141.7,23 				"/>
				<line class="st2" x1="140.9" y1="23" x2="-16.8" y2="23"/>
				<polyline class="st1" points="-17.2,23 -17.6,23 -17.6,23 -17.2,23 				"/>
				<line class="st2" x1="-16.4" y1="23" x2="141.3" y2="23"/>
			</g>
		</g>
		<g>
			<g>
				<polyline class="st1" points="141.7,32.1 142.1,32.1 142.1,32.1 141.7,32.1 				"/>
				<line class="st2" x1="140.9" y1="32.1" x2="-16.8" y2="32.1"/>
				<polyline class="st1" points="-17.2,32.1 -17.6,32.1 -17.6,32.1 -17.2,32.1 				"/>
				<line class="st2" x1="-16.4" y1="32.1" x2="141.3" y2="32.1"/>
			</g>
		</g>
		<g>
			<g>
				<polyline class="st1" points="141.7,41.1 142.1,41.1 142.1,41.2 141.7,41.2 				"/>
				<line class="st2" x1="140.9" y1="41.2" x2="-16.8" y2="41.2"/>
				<polyline class="st1" points="-17.2,41.2 -17.6,41.2 -17.6,41.1 -17.2,41.1 				"/>
				<line class="st2" x1="-16.4" y1="41.1" x2="141.3" y2="41.1"/>
			</g>
		</g>
		<g>
			<g>
				<polyline class="st1" points="141.7,50.2 142.1,50.2 142.1,50.3 141.7,50.3 				"/>
				<line class="st2" x1="140.9" y1="50.3" x2="-16.8" y2="50.3"/>
				<polyline class="st1" points="-17.2,50.3 -17.6,50.3 -17.6,50.2 -17.2,50.2 				"/>
				<line class="st2" x1="-16.4" y1="50.2" x2="141.3" y2="50.2"/>
			</g>
		</g>
		<g>
			<g>
				<polyline class="st1" points="141.7,59.3 142.1,59.3 142.1,59.4 141.7,59.4 				"/>
				<line class="st2" x1="140.9" y1="59.4" x2="-16.8" y2="59.4"/>
				<polyline class="st1" points="-17.2,59.4 -17.6,59.4 -17.6,59.3 -17.2,59.3 				"/>
				<line class="st2" x1="-16.4" y1="59.3" x2="141.3" y2="59.3"/>
			</g>
		</g>
		<g>
			<g>
				<polyline class="st1" points="141.7,68.4 142.1,68.4 142.1,68.4 141.7,68.4 				"/>
				<line class="st2" x1="140.9" y1="68.4" x2="-16.8" y2="68.4"/>
				<polyline class="st1" points="-17.2,68.4 -17.6,68.4 -17.6,68.4 -17.2,68.4 				"/>
				<line class="st2" x1="-16.4" y1="68.4" x2="141.3" y2="68.4"/>
			</g>
		</g>
		<g>
			<g>
				<polyline class="st1" points="141.7,77.5 142.1,77.5 142.1,77.5 141.7,77.5 				"/>
				<line class="st2" x1="140.9" y1="77.5" x2="-16.8" y2="77.5"/>
				<polyline class="st1" points="-17.2,77.5 -17.6,77.5 -17.6,77.5 -17.2,77.5 				"/>
				<line class="st2" x1="-16.4" y1="77.5" x2="141.3" y2="77.5"/>
			</g>
		</g>
		<g>
			<g>
				<polyline class="st1" points="141.7,86.6 142.1,86.6 142.1,86.6 141.7,86.6 				"/>
				<line class="st2" x1="140.9" y1="86.6" x2="-16.8" y2="86.6"/>
				<polyline class="st1" points="-17.2,86.6 -17.6,86.6 -17.6,86.6 -17.2,86.6 				"/>
				<line class="st2" x1="-16.4" y1="86.6" x2="141.3" y2="86.6"/>
			</g>
		</g>
		<g>
			<g>
				<polyline class="st1" points="141.7,95.7 142.1,95.7 142.1,95.7 141.7,95.7 				"/>
				<line class="st2" x1="140.9" y1="95.7" x2="-16.8" y2="95.7"/>
				<polyline class="st1" points="-17.2,95.7 -17.6,95.7 -17.6,95.7 -17.2,95.7 				"/>
				<line class="st2" x1="-16.4" y1="95.7" x2="141.3" y2="95.7"/>
			</g>
		</g>
		<g>
			<g>
				<polyline class="st1" points="141.7,104.7 142.1,104.7 142.1,104.8 141.7,104.8 				"/>
				<line class="st2" x1="140.9" y1="104.8" x2="-16.8" y2="104.8"/>
				<polyline class="st1" points="-17.2,104.8 -17.6,104.8 -17.6,104.7 -17.2,104.7 				"/>
				<line class="st2" x1="-16.4" y1="104.7" x2="141.3" y2="104.7"/>
			</g>
		</g>
		<g>
			<g>
				<polyline class="st1" points="141.7,113.8 142.1,113.8 142.1,113.9 141.7,113.9 				"/>
				<line class="st2" x1="140.9" y1="113.9" x2="-16.8" y2="113.9"/>
				<polyline class="st1" points="-17.2,113.9 -17.6,113.9 -17.6,113.8 -17.2,113.8 				"/>
				<line class="st2" x1="-16.4" y1="113.8" x2="141.3" y2="113.8"/>
			</g>
		</g>
		<g>
			<g>
				<polyline class="st1" points="-17.7,-31 -17.7,-31.4 -17.7,-31.4 -17.7,-31 				"/>
				<line class="st3" x1="-17.7" y1="-30.2" x2="-17.7" y2="113"/>
				<polyline class="st1" points="-17.7,113.4 -17.7,113.8 -17.7,113.8 -17.7,113.4 				"/>
				<line class="st3" x1="-17.7" y1="112.6" x2="-17.7" y2="-30.6"/>
			</g>
		</g>
		<g>
			<g>
				<polyline class="st1" points="-7.7,-31 -7.7,-31.4 -7.7,-31.4 -7.7,-31 				"/>
				<line class="st3" x1="-7.7" y1="-30.2" x2="-7.7" y2="113"/>
				<polyline class="st1" points="-7.7,113.4 -7.7,113.8 -7.7,113.8 -7.7,113.4 				"/>
				<line class="st3" x1="-7.7" y1="112.6" x2="-7.7" y2="-30.6"/>
			</g>
		</g>
		<g>
			<g>
				<polyline class="st1" points="2.3,-31 2.3,-31.4 2.3,-31.4 2.3,-31 				"/>
				<line class="st3" x1="2.3" y1="-30.2" x2="2.3" y2="113"/>
				<polyline class="st1" points="2.3,113.4 2.3,113.8 2.3,113.8 2.3,113.4 				"/>
				<line class="st3" x1="2.3" y1="112.6" x2="2.3" y2="-30.6"/>
			</g>
		</g>
		<g>
			<g>
				<polyline class="st1" points="12.3,-31 12.3,-31.4 12.3,-31.4 12.3,-31 				"/>
				<line class="st3" x1="12.3" y1="-30.2" x2="12.3" y2="113"/>
				<polyline class="st1" points="12.3,113.4 12.3,113.8 12.3,113.8 12.3,113.4 				"/>
				<line class="st3" x1="12.3" y1="112.6" x2="12.3" y2="-30.6"/>
			</g>
		</g>
		<g>
			<g>
				<polyline class="st1" points="22.3,-31 22.3,-31.4 22.3,-31.4 22.3,-31 				"/>
				<line class="st3" x1="22.3" y1="-30.2" x2="22.3" y2="113"/>
				<polyline class="st1" points="22.3,113.4 22.3,113.8 22.3,113.8 22.3,113.4 				"/>
				<line class="st3" x1="22.3" y1="112.6" x2="22.3" y2="-30.6"/>
			</g>
		</g>
		<g>
			<g>
				<polyline class="st1" points="32.3,-31 32.3,-31.4 32.3,-31.4 32.3,-31 				"/>
				<line class="st3" x1="32.3" y1="-30.2" x2="32.3" y2="113"/>
				<polyline class="st1" points="32.3,113.4 32.3,113.8 32.3,113.8 32.3,113.4 				"/>
				<line class="st3" x1="32.3" y1="112.6" x2="32.3" y2="-30.6"/>
			</g>
		</g>
		<g>
			<g>
				<polyline class="st1" points="42.3,-31 42.3,-31.4 42.3,-31.4 42.3,-31 				"/>
				<line class="st3" x1="42.3" y1="-30.2" x2="42.3" y2="113"/>
				<polyline class="st1" points="42.3,113.4 42.3,113.8 42.3,113.8 42.3,113.4 				"/>
				<line class="st3" x1="42.3" y1="112.6" x2="42.3" y2="-30.6"/>
			</g>
		</g>
		<g>
			<g>
				<polyline class="st1" points="52.3,-31 52.3,-31.4 52.3,-31.4 52.3,-31 				"/>
				<line class="st3" x1="52.3" y1="-30.2" x2="52.3" y2="113"/>
				<polyline class="st1" points="52.3,113.4 52.3,113.8 52.3,113.8 52.3,113.4 				"/>
				<line class="st3" x1="52.3" y1="112.6" x2="52.3" y2="-30.6"/>
			</g>
		</g>
		<g>
			<g>
				<polyline class="st1" points="62.2,-31 62.2,-31.4 62.3,-31.4 62.3,-31 				"/>
				<line class="st3" x1="62.3" y1="-30.2" x2="62.3" y2="113"/>
				<polyline class="st1" points="62.3,113.4 62.3,113.8 62.2,113.8 62.2,113.4 				"/>
				<line class="st3" x1="62.2" y1="112.6" x2="62.2" y2="-30.6"/>
			</g>
		</g>
		<g>
			<g>
				<polyline class="st1" points="72.2,-31 72.2,-31.4 72.3,-31.4 72.3,-31 				"/>
				<line class="st3" x1="72.3" y1="-30.2" x2="72.3" y2="113"/>
				<polyline class="st1" points="72.3,113.4 72.3,113.8 72.2,113.8 72.2,113.4 				"/>
				<line class="st3" x1="72.2" y1="112.6" x2="72.2" y2="-30.6"/>
			</g>
		</g>
		<g>
			<g>
				<polyline class="st1" points="82.2,-31 82.2,-31.4 82.3,-31.4 82.3,-31 				"/>
				<line class="st3" x1="82.3" y1="-30.2" x2="82.3" y2="113"/>
				<polyline class="st1" points="82.3,113.4 82.3,113.8 82.2,113.8 82.2,113.4 				"/>
				<line class="st3" x1="82.2" y1="112.6" x2="82.2" y2="-30.6"/>
			</g>
		</g>
		<g>
			<g>
				<polyline class="st1" points="92.2,-31 92.2,-31.4 92.3,-31.4 92.3,-31 				"/>
				<line class="st3" x1="92.3" y1="-30.2" x2="92.3" y2="113"/>
				<polyline class="st1" points="92.3,113.4 92.3,113.8 92.2,113.8 92.2,113.4 				"/>
				<line class="st3" x1="92.2" y1="112.6" x2="92.2" y2="-30.6"/>
			</g>
		</g>
		<g>
			<g>
				<polyline class="st1" points="102.2,-31 102.2,-31.4 102.3,-31.4 102.3,-31 				"/>
				<line class="st3" x1="102.3" y1="-30.2" x2="102.3" y2="113"/>
				<polyline class="st1" points="102.3,113.4 102.3,113.8 102.2,113.8 102.2,113.4 				"/>
				<line class="st3" x1="102.2" y1="112.6" x2="102.2" y2="-30.6"/>
			</g>
		</g>
		<g>
			<g>
				<polyline class="st1" points="112.2,-31 112.2,-31.4 112.3,-31.4 112.3,-31 				"/>
				<line class="st3" x1="112.3" y1="-30.2" x2="112.3" y2="113"/>
				<polyline class="st1" points="112.3,113.4 112.3,113.8 112.2,113.8 112.2,113.4 				"/>
				<line class="st3" x1="112.2" y1="112.6" x2="112.2" y2="-30.6"/>
			</g>
		</g>
		<g>
			<g>
				<polyline class="st1" points="122.2,-31 122.2,-31.4 122.3,-31.4 122.3,-31 				"/>
				<line class="st3" x1="122.3" y1="-30.2" x2="122.3" y2="113"/>
				<polyline class="st1" points="122.3,113.4 122.3,113.8 122.2,113.8 122.2,113.4 				"/>
				<line class="st3" x1="122.2" y1="112.6" x2="122.2" y2="-30.6"/>
			</g>
		</g>
		<g>
			<g>
				<polyline class="st1" points="132.2,-31 132.2,-31.4 132.2,-31.4 132.2,-31 				"/>
				<line class="st3" x1="132.2" y1="-30.2" x2="132.2" y2="113"/>
				<polyline class="st1" points="132.2,113.4 132.2,113.8 132.2,113.8 132.2,113.4 				"/>
				<line class="st3" x1="132.2" y1="112.6" x2="132.2" y2="-30.6"/>
			</g>
		</g>
		<g>
			<g>
				<polyline class="st1" points="142.2,-31 142.2,-31.4 142.2,-31.4 142.2,-31 				"/>
				<line class="st3" x1="142.2" y1="-30.2" x2="142.2" y2="113"/>
				<polyline class="st1" points="142.2,113.4 142.2,113.8 142.2,113.8 142.2,113.4 				"/>
				<line class="st3" x1="142.2" y1="112.6" x2="142.2" y2="-30.6"/>
			</g>
		</g>
	</g>
	<g>
		<g>
			<g>
				<polyline class="st1" points="301.8,-31.6 302.2,-31.6 302.2,-31.5 301.8,-31.5 				"/>
				<line class="st2" x1="301" y1="-31.5" x2="143.3" y2="-31.5"/>
				<polyline class="st1" points="142.9,-31.5 142.5,-31.5 142.5,-31.6 142.9,-31.6 				"/>
				<line class="st2" x1="143.7" y1="-31.6" x2="301.4" y2="-31.6"/>
			</g>
		</g>
		<g>
			<g>
				<polyline class="st1" points="301.8,-22.5 302.2,-22.5 302.2,-22.4 301.8,-22.4 				"/>
				<line class="st2" x1="301" y1="-22.4" x2="143.3" y2="-22.4"/>
				<polyline class="st1" points="142.9,-22.4 142.5,-22.4 142.5,-22.5 142.9,-22.5 				"/>
				<line class="st2" x1="143.7" y1="-22.5" x2="301.4" y2="-22.5"/>
			</g>
		</g>
		<g>
			<g>
				<polyline class="st1" points="301.8,-13.4 302.2,-13.4 302.2,-13.3 301.8,-13.3 				"/>
				<line class="st2" x1="301" y1="-13.3" x2="143.3" y2="-13.3"/>
				<polyline class="st1" points="142.9,-13.3 142.5,-13.3 142.5,-13.4 142.9,-13.4 				"/>
				<line class="st2" x1="143.7" y1="-13.4" x2="301.4" y2="-13.4"/>
			</g>
		</g>
		<g>
			<g>
				<polyline class="st1" points="301.8,-4.3 302.2,-4.3 302.2,-4.3 301.8,-4.3 				"/>
				<line class="st2" x1="301" y1="-4.3" x2="143.3" y2="-4.3"/>
				<polyline class="st1" points="142.9,-4.3 142.5,-4.3 142.5,-4.3 142.9,-4.3 				"/>
				<line class="st2" x1="143.7" y1="-4.3" x2="301.4" y2="-4.3"/>
			</g>
		</g>
		<g>
			<g>
				<polyline class="st1" points="301.8,4.8 302.2,4.8 302.2,4.8 301.8,4.8 				"/>
				<line class="st2" x1="301" y1="4.8" x2="143.3" y2="4.8"/>
				<polyline class="st1" points="142.9,4.8 142.5,4.8 142.5,4.8 142.9,4.8 				"/>
				<line class="st2" x1="143.7" y1="4.8" x2="301.4" y2="4.8"/>
			</g>
		</g>
		<g>
			<g>
				<polyline class="st1" points="301.8,13.9 302.2,13.9 302.2,13.9 301.8,13.9 				"/>
				<line class="st2" x1="301" y1="13.9" x2="143.3" y2="13.9"/>
				<polyline class="st1" points="142.9,13.9 142.5,13.9 142.5,13.9 142.9,13.9 				"/>
				<line class="st2" x1="143.7" y1="13.9" x2="301.4" y2="13.9"/>
			</g>
		</g>
		<g>
			<g>
				<polyline class="st1" points="301.8,23 302.2,23 302.2,23 301.8,23 				"/>
				<line class="st2" x1="301" y1="23" x2="143.3" y2="23"/>
				<polyline class="st1" points="142.9,23 142.5,23 142.5,23 142.9,23 				"/>
				<line class="st2" x1="143.7" y1="23" x2="301.4" y2="23"/>
			</g>
		</g>
		<g>
			<g>
				<polyline class="st1" points="301.8,32 302.2,32 302.2,32.1 301.8,32.1 				"/>
				<line class="st2" x1="301" y1="32.1" x2="143.3" y2="32.1"/>
				<polyline class="st1" points="142.9,32.1 142.5,32.1 142.5,32 142.9,32 				"/>
				<line class="st2" x1="143.7" y1="32" x2="301.4" y2="32"/>
			</g>
		</g>
		<g>
			<g>
				<polyline class="st1" points="301.8,41.1 302.2,41.1 302.2,41.2 301.8,41.2 				"/>
				<line class="st2" x1="301" y1="41.2" x2="143.3" y2="41.2"/>
				<polyline class="st1" points="142.9,41.2 142.5,41.2 142.5,41.1 142.9,41.1 				"/>
				<line class="st2" x1="143.7" y1="41.1" x2="301.4" y2="41.1"/>
			</g>
		</g>
		<g>
			<g>
				<polyline class="st1" points="301.8,50.2 302.2,50.2 302.2,50.3 301.8,50.3 				"/>
				<line class="st2" x1="301" y1="50.3" x2="143.3" y2="50.3"/>
				<polyline class="st1" points="142.9,50.3 142.5,50.3 142.5,50.2 142.9,50.2 				"/>
				<line class="st2" x1="143.7" y1="50.2" x2="301.4" y2="50.2"/>
			</g>
		</g>
		<g>
			<g>
				<polyline class="st1" points="301.8,59.3 302.2,59.3 302.2,59.3 301.8,59.3 				"/>
				<line class="st2" x1="301" y1="59.3" x2="143.3" y2="59.3"/>
				<polyline class="st1" points="142.9,59.3 142.5,59.3 142.5,59.3 142.9,59.3 				"/>
				<line class="st2" x1="143.7" y1="59.3" x2="301.4" y2="59.3"/>
			</g>
		</g>
		<g>
			<g>
				<polyline class="st1" points="301.8,68.4 302.2,68.4 302.2,68.4 301.8,68.4 				"/>
				<line class="st2" x1="301" y1="68.4" x2="143.3" y2="68.4"/>
				<polyline class="st1" points="142.9,68.4 142.5,68.4 142.5,68.4 142.9,68.4 				"/>
				<line class="st2" x1="143.7" y1="68.4" x2="301.4" y2="68.4"/>
			</g>
		</g>
		<g>
			<g>
				<polyline class="st1" points="301.8,77.5 302.2,77.5 302.2,77.5 301.8,77.5 				"/>
				<line class="st2" x1="301" y1="77.5" x2="143.3" y2="77.5"/>
				<polyline class="st1" points="142.9,77.5 142.5,77.5 142.5,77.5 142.9,77.5 				"/>
				<line class="st2" x1="143.7" y1="77.5" x2="301.4" y2="77.5"/>
			</g>
		</g>
		<g>
			<g>
				<polyline class="st1" points="301.8,86.6 302.2,86.6 302.2,86.6 301.8,86.6 				"/>
				<line class="st2" x1="301" y1="86.6" x2="143.3" y2="86.6"/>
				<polyline class="st1" points="142.9,86.6 142.5,86.6 142.5,86.6 142.9,86.6 				"/>
				<line class="st2" x1="143.7" y1="86.6" x2="301.4" y2="86.6"/>
			</g>
		</g>
		<g>
			<g>
				<polyline class="st1" points="301.8,95.6 302.2,95.6 302.2,95.7 301.8,95.7 				"/>
				<line class="st2" x1="301" y1="95.7" x2="143.3" y2="95.7"/>
				<polyline class="st1" points="142.9,95.7 142.5,95.7 142.5,95.6 142.9,95.6 				"/>
				<line class="st2" x1="143.7" y1="95.6" x2="301.4" y2="95.6"/>
			</g>
		</g>
		<g>
			<g>
				<polyline class="st1" points="301.8,104.7 302.2,104.7 302.2,104.8 301.8,104.8 				"/>
				<line class="st2" x1="301" y1="104.8" x2="143.3" y2="104.8"/>
				<polyline class="st1" points="142.9,104.8 142.5,104.8 142.5,104.7 142.9,104.7 				"/>
				<line class="st2" x1="143.7" y1="104.7" x2="301.4" y2="104.7"/>
			</g>
		</g>
		<g>
			<g>
				<polyline class="st1" points="301.8,113.8 302.2,113.8 302.2,113.9 301.8,113.9 				"/>
				<line class="st2" x1="301" y1="113.9" x2="143.3" y2="113.9"/>
				<polyline class="st1" points="142.9,113.9 142.5,113.9 142.5,113.8 142.9,113.8 				"/>
				<line class="st2" x1="143.7" y1="113.8" x2="301.4" y2="113.8"/>
			</g>
		</g>
		<g>
			<g>
				<polyline class="st1" points="142.4,-31 142.4,-31.4 142.4,-31.4 142.4,-31 				"/>
				<line class="st3" x1="142.4" y1="-30.2" x2="142.4" y2="112.9"/>
				<polyline class="st1" points="142.4,113.3 142.4,113.7 142.4,113.7 142.4,113.3 				"/>
				<line class="st3" x1="142.4" y1="112.5" x2="142.4" y2="-30.6"/>
			</g>
		</g>
		<g>
			<g>
				<polyline class="st1" points="152.4,-31 152.4,-31.4 152.4,-31.4 152.4,-31 				"/>
				<line class="st3" x1="152.4" y1="-30.2" x2="152.4" y2="112.9"/>
				<polyline class="st1" points="152.4,113.3 152.4,113.7 152.4,113.7 152.4,113.3 				"/>
				<line class="st3" x1="152.4" y1="112.5" x2="152.4" y2="-30.6"/>
			</g>
		</g>
		<g>
			<g>
				<polyline class="st1" points="162.3,-31 162.3,-31.4 162.4,-31.4 162.4,-31 				"/>
				<line class="st3" x1="162.4" y1="-30.2" x2="162.4" y2="112.9"/>
				<polyline class="st1" points="162.4,113.3 162.4,113.7 162.3,113.7 162.3,113.3 				"/>
				<line class="st3" x1="162.3" y1="112.5" x2="162.3" y2="-30.6"/>
			</g>
		</g>
		<g>
			<g>
				<polyline class="st1" points="172.3,-31 172.3,-31.4 172.4,-31.4 172.4,-31 				"/>
				<line class="st3" x1="172.4" y1="-30.2" x2="172.4" y2="112.9"/>
				<polyline class="st1" points="172.4,113.3 172.4,113.7 172.3,113.7 172.3,113.3 				"/>
				<line class="st3" x1="172.3" y1="112.5" x2="172.3" y2="-30.6"/>
			</g>
		</g>
		<g>
			<g>
				<polyline class="st1" points="182.3,-31 182.3,-31.4 182.4,-31.4 182.4,-31 				"/>
				<line class="st3" x1="182.4" y1="-30.2" x2="182.4" y2="112.9"/>
				<polyline class="st1" points="182.4,113.3 182.4,113.7 182.3,113.7 182.3,113.3 				"/>
				<line class="st3" x1="182.3" y1="112.5" x2="182.3" y2="-30.6"/>
			</g>
		</g>
		<g>
			<g>
				<polyline class="st1" points="192.3,-31 192.3,-31.4 192.4,-31.4 192.4,-31 				"/>
				<line class="st3" x1="192.4" y1="-30.2" x2="192.4" y2="112.9"/>
				<polyline class="st1" points="192.4,113.3 192.4,113.7 192.3,113.7 192.3,113.3 				"/>
				<line class="st3" x1="192.3" y1="112.5" x2="192.3" y2="-30.6"/>
			</g>
		</g>
		<g>
			<g>
				<polyline class="st1" points="202.3,-31 202.3,-31.4 202.4,-31.4 202.4,-31 				"/>
				<line class="st3" x1="202.4" y1="-30.2" x2="202.4" y2="112.9"/>
				<polyline class="st1" points="202.4,113.3 202.4,113.7 202.3,113.7 202.3,113.3 				"/>
				<line class="st3" x1="202.3" y1="112.5" x2="202.3" y2="-30.6"/>
			</g>
		</g>
		<g>
			<g>
				<polyline class="st1" points="212.3,-31 212.3,-31.4 212.4,-31.4 212.4,-31 				"/>
				<line class="st3" x1="212.4" y1="-30.2" x2="212.4" y2="112.9"/>
				<polyline class="st1" points="212.4,113.3 212.4,113.7 212.3,113.7 212.3,113.3 				"/>
				<line class="st3" x1="212.3" y1="112.5" x2="212.3" y2="-30.6"/>
			</g>
		</g>
		<g>
			<g>
				<polyline class="st1" points="222.3,-31 222.3,-31.4 222.4,-31.4 222.4,-31 				"/>
				<line class="st3" x1="222.4" y1="-30.2" x2="222.4" y2="112.9"/>
				<polyline class="st1" points="222.4,113.3 222.4,113.7 222.3,113.7 222.3,113.3 				"/>
				<line class="st3" x1="222.3" y1="112.5" x2="222.3" y2="-30.6"/>
			</g>
		</g>
		<g>
			<g>
				<polyline class="st1" points="232.3,-31 232.3,-31.4 232.3,-31.4 232.3,-31 				"/>
				<line class="st3" x1="232.3" y1="-30.2" x2="232.3" y2="112.9"/>
				<polyline class="st1" points="232.3,113.3 232.3,113.7 232.3,113.7 232.3,113.3 				"/>
				<line class="st3" x1="232.3" y1="112.5" x2="232.3" y2="-30.6"/>
			</g>
		</g>
		<g>
			<g>
				<polyline class="st1" points="242.3,-31 242.3,-31.4 242.3,-31.4 242.3,-31 				"/>
				<line class="st3" x1="242.3" y1="-30.2" x2="242.3" y2="112.9"/>
				<polyline class="st1" points="242.3,113.3 242.3,113.7 242.3,113.7 242.3,113.3 				"/>
				<line class="st3" x1="242.3" y1="112.5" x2="242.3" y2="-30.6"/>
			</g>
		</g>
		<g>
			<g>
				<polyline class="st1" points="252.3,-31 252.3,-31.4 252.3,-31.4 252.3,-31 				"/>
				<line class="st3" x1="252.3" y1="-30.2" x2="252.3" y2="112.9"/>
				<polyline class="st1" points="252.3,113.3 252.3,113.7 252.3,113.7 252.3,113.3 				"/>
				<line class="st3" x1="252.3" y1="112.5" x2="252.3" y2="-30.6"/>
			</g>
		</g>
		<g>
			<g>
				<polyline class="st1" points="262.3,-31 262.3,-31.4 262.3,-31.4 262.3,-31 				"/>
				<line class="st3" x1="262.3" y1="-30.2" x2="262.3" y2="112.9"/>
				<polyline class="st1" points="262.3,113.3 262.3,113.7 262.3,113.7 262.3,113.3 				"/>
				<line class="st3" x1="262.3" y1="112.5" x2="262.3" y2="-30.6"/>
			</g>
		</g>
		<g>
			<g>
				<polyline class="st1" points="272.3,-31 272.3,-31.4 272.3,-31.4 272.3,-31 				"/>
				<line class="st3" x1="272.3" y1="-30.2" x2="272.3" y2="112.9"/>
				<polyline class="st1" points="272.3,113.3 272.3,113.7 272.3,113.7 272.3,113.3 				"/>
				<line class="st3" x1="272.3" y1="112.5" x2="272.3" y2="-30.6"/>
			</g>
		</g>
		<g>
			<g>
				<polyline class="st1" points="282.3,-31 282.3,-31.4 282.3,-31.4 282.3,-31 				"/>
				<line class="st3" x1="282.3" y1="-30.2" x2="282.3" y2="112.9"/>
				<polyline class="st1" points="282.3,113.3 282.3,113.7 282.3,113.7 282.3,113.3 				"/>
				<line class="st3" x1="282.3" y1="112.5" x2="282.3" y2="-30.6"/>
			</g>
		</g>
		<g>
			<g>
				<polyline class="st1" points="292.3,-31 292.3,-31.4 292.3,-31.4 292.3,-31 				"/>
				<line class="st3" x1="292.3" y1="-30.2" x2="292.3" y2="112.9"/>
				<polyline class="st1" points="292.3,113.3 292.3,113.7 292.3,113.7 292.3,113.3 				"/>
				<line class="st3" x1="292.3" y1="112.5" x2="292.3" y2="-30.6"/>
			</g>
		</g>
		<g>
			<g>
				<polyline class="st1" points="302.3,-31 302.3,-31.4 302.3,-31.4 302.3,-31 				"/>
				<line class="st3" x1="302.3" y1="-30.2" x2="302.3" y2="112.9"/>
				<polyline class="st1" points="302.3,113.3 302.3,113.7 302.3,113.7 302.3,113.3 				"/>
				<line class="st3" x1="302.3" y1="112.5" x2="302.3" y2="-30.6"/>
			</g>
		</g>
	</g>
	<g>
		<g>
			<g>
				<polyline class="st1" points="141.7,113.9 142.1,113.9 142.1,114 141.7,114 				"/>
				<line class="st2" x1="140.9" y1="114" x2="-16.8" y2="114"/>
				<polyline class="st1" points="-17.2,114 -17.6,114 -17.6,113.9 -17.2,113.9 				"/>
				<line class="st2" x1="-16.4" y1="113.9" x2="141.3" y2="113.9"/>
			</g>
		</g>
		<g>
			<g>
				<polyline class="st1" points="141.7,123 142.1,123 142.1,123.1 141.7,123.1 				"/>
				<line class="st2" x1="140.9" y1="123.1" x2="-16.8" y2="123.1"/>
				<polyline class="st1" points="-17.2,123.1 -17.6,123.1 -17.6,123 -17.2,123 				"/>
				<line class="st2" x1="-16.4" y1="123" x2="141.3" y2="123"/>
			</g>
		</g>
		<g>
			<g>
				<polyline class="st1" points="141.7,132.1 142.1,132.1 142.1,132.2 141.7,132.2 				"/>
				<line class="st2" x1="140.9" y1="132.2" x2="-16.8" y2="132.2"/>
				<polyline class="st1" points="-17.2,132.2 -17.6,132.2 -17.6,132.1 -17.2,132.1 				"/>
				<line class="st2" x1="-16.4" y1="132.1" x2="141.3" y2="132.1"/>
			</g>
		</g>
		<g>
			<g>
				<polyline class="st1" points="141.7,141.2 142.1,141.2 142.1,141.2 141.7,141.2 				"/>
				<line class="st2" x1="140.9" y1="141.2" x2="-16.8" y2="141.2"/>
				<polyline class="st1" points="-17.2,141.2 -17.6,141.2 -17.6,141.2 -17.2,141.2 				"/>
				<line class="st2" x1="-16.4" y1="141.2" x2="141.3" y2="141.2"/>
			</g>
		</g>
		<g>
			<g>
				<polyline class="st1" points="141.7,150.3 142.1,150.3 142.1,150.3 141.7,150.3 				"/>
				<line class="st2" x1="140.9" y1="150.3" x2="-16.8" y2="150.3"/>
				<polyline class="st1" points="-17.2,150.3 -17.6,150.3 -17.6,150.3 -17.2,150.3 				"/>
				<line class="st2" x1="-16.4" y1="150.3" x2="141.3" y2="150.3"/>
			</g>
		</g>
		<g>
			<g>
				<polyline class="st1" points="141.7,159.4 142.1,159.4 142.1,159.4 141.7,159.4 				"/>
				<line class="st2" x1="140.9" y1="159.4" x2="-16.8" y2="159.4"/>
				<polyline class="st1" points="-17.2,159.4 -17.6,159.4 -17.6,159.4 -17.2,159.4 				"/>
				<line class="st2" x1="-16.4" y1="159.4" x2="141.3" y2="159.4"/>
			</g>
		</g>
		<g>
			<g>
				<polyline class="st1" points="141.7,168.5 142.1,168.5 142.1,168.5 141.7,168.5 				"/>
				<line class="st2" x1="140.9" y1="168.5" x2="-16.8" y2="168.5"/>
				<polyline class="st1" points="-17.2,168.5 -17.6,168.5 -17.6,168.5 -17.2,168.5 				"/>
				<line class="st2" x1="-16.4" y1="168.5" x2="141.3" y2="168.5"/>
			</g>
		</g>
		<g>
			<g>
				<polyline class="st1" points="141.7,177.5 142.1,177.5 142.1,177.6 141.7,177.6 				"/>
				<line class="st2" x1="140.9" y1="177.6" x2="-16.8" y2="177.6"/>
				<polyline class="st1" points="-17.2,177.6 -17.6,177.6 -17.6,177.5 -17.2,177.5 				"/>
				<line class="st2" x1="-16.4" y1="177.5" x2="141.3" y2="177.5"/>
			</g>
		</g>
		<g>
			<g>
				<polyline class="st1" points="141.7,186.6 142.1,186.6 142.1,186.7 141.7,186.7 				"/>
				<line class="st2" x1="140.9" y1="186.7" x2="-16.8" y2="186.7"/>
				<polyline class="st1" points="-17.2,186.7 -17.6,186.7 -17.6,186.6 -17.2,186.6 				"/>
				<line class="st2" x1="-16.4" y1="186.6" x2="141.3" y2="186.6"/>
			</g>
		</g>
		<g>
			<g>
				<polyline class="st1" points="141.7,195.7 142.1,195.7 142.1,195.8 141.7,195.8 				"/>
				<line class="st2" x1="140.9" y1="195.8" x2="-16.8" y2="195.8"/>
				<polyline class="st1" points="-17.2,195.8 -17.6,195.8 -17.6,195.7 -17.2,195.7 				"/>
				<line class="st2" x1="-16.4" y1="195.7" x2="141.3" y2="195.7"/>
			</g>
		</g>
		<g>
			<g>
				<polyline class="st1" points="141.7,204.8 142.1,204.8 142.1,204.8 141.7,204.8 				"/>
				<line class="st2" x1="140.9" y1="204.8" x2="-16.8" y2="204.8"/>
				<polyline class="st1" points="-17.2,204.8 -17.6,204.8 -17.6,204.8 -17.2,204.8 				"/>
				<line class="st2" x1="-16.4" y1="204.8" x2="141.3" y2="204.8"/>
			</g>
		</g>
		<g>
			<g>
				<polyline class="st1" points="141.7,213.9 142.1,213.9 142.1,213.9 141.7,213.9 				"/>
				<line class="st2" x1="140.9" y1="213.9" x2="-16.8" y2="213.9"/>
				<polyline class="st1" points="-17.2,213.9 -17.6,213.9 -17.6,213.9 -17.2,213.9 				"/>
				<line class="st2" x1="-16.4" y1="213.9" x2="141.3" y2="213.9"/>
			</g>
		</g>
		<g>
			<g>
				<polyline class="st1" points="141.7,223 142.1,223 142.1,223 141.7,223 				"/>
				<line class="st2" x1="140.9" y1="223" x2="-16.8" y2="223"/>
				<polyline class="st1" points="-17.2,223 -17.6,223 -17.6,223 -17.2,223 				"/>
				<line class="st2" x1="-16.4" y1="223" x2="141.3" y2="223"/>
			</g>
		</g>
		<g>
			<g>
				<polyline class="st1" points="141.7,232.1 142.1,232.1 142.1,232.1 141.7,232.1 				"/>
				<line class="st2" x1="140.9" y1="232.1" x2="-16.8" y2="232.1"/>
				<polyline class="st1" points="-17.2,232.1 -17.6,232.1 -17.6,232.1 -17.2,232.1 				"/>
				<line class="st2" x1="-16.4" y1="232.1" x2="141.3" y2="232.1"/>
			</g>
		</g>
		<g>
			<g>
				<polyline class="st1" points="141.7,241.1 142.1,241.1 142.1,241.2 141.7,241.2 				"/>
				<line class="st2" x1="140.9" y1="241.2" x2="-16.8" y2="241.2"/>
				<polyline class="st1" points="-17.2,241.2 -17.6,241.2 -17.6,241.1 -17.2,241.1 				"/>
				<line class="st2" x1="-16.4" y1="241.1" x2="141.3" y2="241.1"/>
			</g>
		</g>
		<g>
			<g>
				<polyline class="st1" points="141.7,250.2 142.1,250.2 142.1,250.3 141.7,250.3 				"/>
				<line class="st2" x1="140.9" y1="250.3" x2="-16.8" y2="250.3"/>
				<polyline class="st1" points="-17.2,250.3 -17.6,250.3 -17.6,250.2 -17.2,250.2 				"/>
				<line class="st2" x1="-16.4" y1="250.2" x2="141.3" y2="250.2"/>
			</g>
		</g>
		<g>
			<g>
				<polyline class="st1" points="141.7,259.3 142.1,259.3 142.1,259.4 141.7,259.4 				"/>
				<line class="st2" x1="140.9" y1="259.4" x2="-16.8" y2="259.4"/>
				<polyline class="st1" points="-17.2,259.4 -17.6,259.4 -17.6,259.3 -17.2,259.3 				"/>
				<line class="st2" x1="-16.4" y1="259.3" x2="141.3" y2="259.3"/>
			</g>
		</g>
		<g>
			<g>
				<polyline class="st1" points="-17.7,114.5 -17.7,114.1 -17.7,114.1 -17.7,114.5 				"/>
				<line class="st3" x1="-17.7" y1="115.3" x2="-17.7" y2="258.4"/>
				<polyline class="st1" points="-17.7,258.8 -17.7,259.2 -17.7,259.2 -17.7,258.8 				"/>
				<line class="st3" x1="-17.7" y1="258" x2="-17.7" y2="114.9"/>
			</g>
		</g>
		<g>
			<g>
				<polyline class="st1" points="-7.7,114.5 -7.7,114.1 -7.7,114.1 -7.7,114.5 				"/>
				<line class="st3" x1="-7.7" y1="115.3" x2="-7.7" y2="258.4"/>
				<polyline class="st1" points="-7.7,258.8 -7.7,259.2 -7.7,259.2 -7.7,258.8 				"/>
				<line class="st3" x1="-7.7" y1="258" x2="-7.7" y2="114.9"/>
			</g>
		</g>
		<g>
			<g>
				<polyline class="st1" points="2.3,114.5 2.3,114.1 2.3,114.1 2.3,114.5 				"/>
				<line class="st3" x1="2.3" y1="115.3" x2="2.3" y2="258.4"/>
				<polyline class="st1" points="2.3,258.8 2.3,259.2 2.3,259.2 2.3,258.8 				"/>
				<line class="st3" x1="2.3" y1="258" x2="2.3" y2="114.9"/>
			</g>
		</g>
		<g>
			<g>
				<polyline class="st1" points="12.3,114.5 12.3,114.1 12.3,114.1 12.3,114.5 				"/>
				<line class="st3" x1="12.3" y1="115.3" x2="12.3" y2="258.4"/>
				<polyline class="st1" points="12.3,258.8 12.3,259.2 12.3,259.2 12.3,258.8 				"/>
				<line class="st3" x1="12.3" y1="258" x2="12.3" y2="114.9"/>
			</g>
		</g>
		<g>
			<g>
				<polyline class="st1" points="22.3,114.5 22.3,114.1 22.3,114.1 22.3,114.5 				"/>
				<line class="st3" x1="22.3" y1="115.3" x2="22.3" y2="258.4"/>
				<polyline class="st1" points="22.3,258.8 22.3,259.2 22.3,259.2 22.3,258.8 				"/>
				<line class="st3" x1="22.3" y1="258" x2="22.3" y2="114.9"/>
			</g>
		</g>
		<g>
			<g>
				<polyline class="st1" points="32.3,114.5 32.3,114.1 32.3,114.1 32.3,114.5 				"/>
				<line class="st3" x1="32.3" y1="115.3" x2="32.3" y2="258.4"/>
				<polyline class="st1" points="32.3,258.8 32.3,259.2 32.3,259.2 32.3,258.8 				"/>
				<line class="st3" x1="32.3" y1="258" x2="32.3" y2="114.9"/>
			</g>
		</g>
		<g>
			<g>
				<polyline class="st1" points="42.3,114.5 42.3,114.1 42.3,114.1 42.3,114.5 				"/>
				<line class="st3" x1="42.3" y1="115.3" x2="42.3" y2="258.4"/>
				<polyline class="st1" points="42.3,258.8 42.3,259.2 42.3,259.2 42.3,258.8 				"/>
				<line class="st3" x1="42.3" y1="258" x2="42.3" y2="114.9"/>
			</g>
		</g>
		<g>
			<g>
				<polyline class="st1" points="52.3,114.5 52.3,114.1 52.3,114.1 52.3,114.5 				"/>
				<line class="st3" x1="52.3" y1="115.3" x2="52.3" y2="258.4"/>
				<polyline class="st1" points="52.3,258.8 52.3,259.2 52.3,259.2 52.3,258.8 				"/>
				<line class="st3" x1="52.3" y1="258" x2="52.3" y2="114.9"/>
			</g>
		</g>
		<g>
			<g>
				<polyline class="st1" points="62.2,114.5 62.2,114.1 62.3,114.1 62.3,114.5 				"/>
				<line class="st3" x1="62.3" y1="115.3" x2="62.3" y2="258.4"/>
				<polyline class="st1" points="62.3,258.8 62.3,259.2 62.2,259.2 62.2,258.8 				"/>
				<line class="st3" x1="62.2" y1="258" x2="62.2" y2="114.9"/>
			</g>
		</g>
		<g>
			<g>
				<polyline class="st1" points="72.2,114.5 72.2,114.1 72.3,114.1 72.3,114.5 				"/>
				<line class="st3" x1="72.3" y1="115.3" x2="72.3" y2="258.4"/>
				<polyline class="st1" points="72.3,258.8 72.3,259.2 72.2,259.2 72.2,258.8 				"/>
				<line class="st3" x1="72.2" y1="258" x2="72.2" y2="114.9"/>
			</g>
		</g>
		<g>
			<g>
				<polyline class="st1" points="82.2,114.5 82.2,114.1 82.3,114.1 82.3,114.5 				"/>
				<line class="st3" x1="82.3" y1="115.3" x2="82.3" y2="258.4"/>
				<polyline class="st1" points="82.3,258.8 82.3,259.2 82.2,259.2 82.2,258.8 				"/>
				<line class="st3" x1="82.2" y1="258" x2="82.2" y2="114.9"/>
			</g>
		</g>
		<g>
			<g>
				<polyline class="st1" points="92.2,114.5 92.2,114.1 92.3,114.1 92.3,114.5 				"/>
				<line class="st3" x1="92.3" y1="115.3" x2="92.3" y2="258.4"/>
				<polyline class="st1" points="92.3,258.8 92.3,259.2 92.2,259.2 92.2,258.8 				"/>
				<line class="st3" x1="92.2" y1="258" x2="92.2" y2="114.9"/>
			</g>
		</g>
		<g>
			<g>
				<polyline class="st1" points="102.2,114.5 102.2,114.1 102.3,114.1 102.3,114.5 				"/>
				<line class="st3" x1="102.3" y1="115.3" x2="102.3" y2="258.4"/>
				<polyline class="st1" points="102.3,258.8 102.3,259.2 102.2,259.2 102.2,258.8 				"/>
				<line class="st3" x1="102.2" y1="258" x2="102.2" y2="114.9"/>
			</g>
		</g>
		<g>
			<g>
				<polyline class="st1" points="112.2,114.5 112.2,114.1 112.3,114.1 112.3,114.5 				"/>
				<line class="st3" x1="112.3" y1="115.3" x2="112.3" y2="258.4"/>
				<polyline class="st1" points="112.3,258.8 112.3,259.2 112.2,259.2 112.2,258.8 				"/>
				<line class="st3" x1="112.2" y1="258" x2="112.2" y2="114.9"/>
			</g>
		</g>
		<g>
			<g>
				<polyline class="st1" points="122.2,114.5 122.2,114.1 122.3,114.1 122.3,114.5 				"/>
				<line class="st3" x1="122.3" y1="115.3" x2="122.3" y2="258.4"/>
				<polyline class="st1" points="122.3,258.8 122.3,259.2 122.2,259.2 122.2,258.8 				"/>
				<line class="st3" x1="122.2" y1="258" x2="122.2" y2="114.9"/>
			</g>
		</g>
		<g>
			<g>
				<polyline class="st1" points="132.2,114.5 132.2,114.1 132.2,114.1 132.2,114.5 				"/>
				<line class="st3" x1="132.2" y1="115.3" x2="132.2" y2="258.4"/>
				<polyline class="st1" points="132.2,258.8 132.2,259.2 132.2,259.2 132.2,258.8 				"/>
				<line class="st3" x1="132.2" y1="258" x2="132.2" y2="114.9"/>
			</g>
		</g>
		<g>
			<g>
				<polyline class="st1" points="142.2,114.5 142.2,114.1 142.2,114.1 142.2,114.5 				"/>
				<line class="st3" x1="142.2" y1="115.3" x2="142.2" y2="258.4"/>
				<polyline class="st1" points="142.2,258.8 142.2,259.2 142.2,259.2 142.2,258.8 				"/>
				<line class="st3" x1="142.2" y1="258" x2="142.2" y2="114.9"/>
			</g>
		</g>
	</g>
	<g>
		<g>
			<g>
				<polyline class="st1" points="301.8,113.7 302.2,113.7 302.2,113.8 301.8,113.8 				"/>
				<line class="st2" x1="301" y1="113.8" x2="143.3" y2="113.8"/>
				<polyline class="st1" points="142.9,113.8 142.5,113.8 142.5,113.7 142.9,113.7 				"/>
				<line class="st2" x1="143.7" y1="113.7" x2="301.4" y2="113.7"/>
			</g>
		</g>
		<g>
			<g>
				<polyline class="st1" points="301.8,122.8 302.2,122.8 302.2,122.9 301.8,122.9 				"/>
				<line class="st2" x1="301" y1="122.9" x2="143.3" y2="122.9"/>
				<polyline class="st1" points="142.9,122.9 142.5,122.9 142.5,122.8 142.9,122.8 				"/>
				<line class="st2" x1="143.7" y1="122.8" x2="301.4" y2="122.8"/>
			</g>
		</g>
		<g>
			<g>
				<polyline class="st1" points="301.8,131.9 302.2,131.9 302.2,132 301.8,132 				"/>
				<line class="st2" x1="301" y1="132" x2="143.3" y2="132"/>
				<polyline class="st1" points="142.9,132 142.5,132 142.5,131.9 142.9,131.9 				"/>
				<line class="st2" x1="143.7" y1="131.9" x2="301.4" y2="131.9"/>
			</g>
		</g>
		<g>
			<g>
				<polyline class="st1" points="301.8,141 302.2,141 302.2,141 301.8,141 				"/>
				<line class="st2" x1="301" y1="141" x2="143.3" y2="141"/>
				<polyline class="st1" points="142.9,141 142.5,141 142.5,141 142.9,141 				"/>
				<line class="st2" x1="143.7" y1="141" x2="301.4" y2="141"/>
			</g>
		</g>
		<g>
			<g>
				<polyline class="st1" points="301.8,150.1 302.2,150.1 302.2,150.1 301.8,150.1 				"/>
				<line class="st2" x1="301" y1="150.1" x2="143.3" y2="150.1"/>
				<polyline class="st1" points="142.9,150.1 142.5,150.1 142.5,150.1 142.9,150.1 				"/>
				<line class="st2" x1="143.7" y1="150.1" x2="301.4" y2="150.1"/>
			</g>
		</g>
		<g>
			<g>
				<polyline class="st1" points="301.8,159.2 302.2,159.2 302.2,159.2 301.8,159.2 				"/>
				<line class="st2" x1="301" y1="159.2" x2="143.3" y2="159.2"/>
				<polyline class="st1" points="142.9,159.2 142.5,159.2 142.5,159.2 142.9,159.2 				"/>
				<line class="st2" x1="143.7" y1="159.2" x2="301.4" y2="159.2"/>
			</g>
		</g>
		<g>
			<g>
				<polyline class="st1" points="301.8,168.2 302.2,168.2 302.2,168.3 301.8,168.3 				"/>
				<line class="st2" x1="301" y1="168.3" x2="143.3" y2="168.3"/>
				<polyline class="st1" points="142.9,168.3 142.5,168.3 142.5,168.2 142.9,168.2 				"/>
				<line class="st2" x1="143.7" y1="168.2" x2="301.4" y2="168.2"/>
			</g>
		</g>
		<g>
			<g>
				<polyline class="st1" points="301.8,177.3 302.2,177.3 302.2,177.4 301.8,177.4 				"/>
				<line class="st2" x1="301" y1="177.4" x2="143.3" y2="177.4"/>
				<polyline class="st1" points="142.9,177.4 142.5,177.4 142.5,177.3 142.9,177.3 				"/>
				<line class="st2" x1="143.7" y1="177.3" x2="301.4" y2="177.3"/>
			</g>
		</g>
		<g>
			<g>
				<polyline class="st1" points="301.8,186.4 302.2,186.4 302.2,186.5 301.8,186.5 				"/>
				<line class="st2" x1="301" y1="186.5" x2="143.3" y2="186.5"/>
				<polyline class="st1" points="142.9,186.5 142.5,186.5 142.5,186.4 142.9,186.4 				"/>
				<line class="st2" x1="143.7" y1="186.4" x2="301.4" y2="186.4"/>
			</g>
		</g>
		<g>
			<g>
				<polyline class="st1" points="301.8,195.5 302.2,195.5 302.2,195.5 301.8,195.5 				"/>
				<line class="st2" x1="301" y1="195.5" x2="143.3" y2="195.5"/>
				<polyline class="st1" points="142.9,195.5 142.5,195.5 142.5,195.5 142.9,195.5 				"/>
				<line class="st2" x1="143.7" y1="195.5" x2="301.4" y2="195.5"/>
			</g>
		</g>
		<g>
			<g>
				<polyline class="st1" points="301.8,204.6 302.2,204.6 302.2,204.6 301.8,204.6 				"/>
				<line class="st2" x1="301" y1="204.6" x2="143.3" y2="204.6"/>
				<polyline class="st1" points="142.9,204.6 142.5,204.6 142.5,204.6 142.9,204.6 				"/>
				<line class="st2" x1="143.7" y1="204.6" x2="301.4" y2="204.6"/>
			</g>
		</g>
		<g>
			<g>
				<polyline class="st1" points="301.8,213.7 302.2,213.7 302.2,213.7 301.8,213.7 				"/>
				<line class="st2" x1="301" y1="213.7" x2="143.3" y2="213.7"/>
				<polyline class="st1" points="142.9,213.7 142.5,213.7 142.5,213.7 142.9,213.7 				"/>
				<line class="st2" x1="143.7" y1="213.7" x2="301.4" y2="213.7"/>
			</g>
		</g>
		<g>
			<g>
				<polyline class="st1" points="301.8,222.8 302.2,222.8 302.2,222.8 301.8,222.8 				"/>
				<line class="st2" x1="301" y1="222.8" x2="143.3" y2="222.8"/>
				<polyline class="st1" points="142.9,222.8 142.5,222.8 142.5,222.8 142.9,222.8 				"/>
				<line class="st2" x1="143.7" y1="222.8" x2="301.4" y2="222.8"/>
			</g>
		</g>
		<g>
			<g>
				<polyline class="st1" points="301.8,231.8 302.2,231.8 302.2,231.9 301.8,231.9 				"/>
				<line class="st2" x1="301" y1="231.9" x2="143.3" y2="231.9"/>
				<polyline class="st1" points="142.9,231.9 142.5,231.9 142.5,231.8 142.9,231.8 				"/>
				<line class="st2" x1="143.7" y1="231.8" x2="301.4" y2="231.8"/>
			</g>
		</g>
		<g>
			<g>
				<polyline class="st1" points="301.8,240.9 302.2,240.9 302.2,241 301.8,241 				"/>
				<line class="st2" x1="301" y1="241" x2="143.3" y2="241"/>
				<polyline class="st1" points="142.9,241 142.5,241 142.5,240.9 142.9,240.9 				"/>
				<line class="st2" x1="143.7" y1="240.9" x2="301.4" y2="240.9"/>
			</g>
		</g>
		<g>
			<g>
				<polyline class="st1" points="301.8,250 302.2,250 302.2,250.1 301.8,250.1 				"/>
				<line class="st2" x1="301" y1="250.1" x2="143.3" y2="250.1"/>
				<polyline class="st1" points="142.9,250.1 142.5,250.1 142.5,250 142.9,250 				"/>
				<line class="st2" x1="143.7" y1="250" x2="301.4" y2="250"/>
			</g>
		</g>
		<g>
			<g>
				<polyline class="st1" points="301.8,259.1 302.2,259.1 302.2,259.1 301.8,259.1 				"/>
				<line class="st2" x1="301" y1="259.1" x2="143.3" y2="259.1"/>
				<polyline class="st1" points="142.9,259.1 142.5,259.1 142.5,259.1 142.9,259.1 				"/>
				<line class="st2" x1="143.7" y1="259.1" x2="301.4" y2="259.1"/>
			</g>
		</g>
		<g>
			<g>
				<polyline class="st1" points="142.4,114.3 142.4,113.9 142.4,113.9 142.4,114.3 				"/>
				<line class="st3" x1="142.4" y1="115" x2="142.4" y2="258.2"/>
				<polyline class="st1" points="142.4,258.6 142.4,259 142.4,259 142.4,258.6 				"/>
				<line class="st3" x1="142.4" y1="257.8" x2="142.4" y2="114.7"/>
			</g>
		</g>
		<g>
			<g>
				<polyline class="st1" points="152.4,114.3 152.4,113.9 152.4,113.9 152.4,114.3 				"/>
				<line class="st3" x1="152.4" y1="115" x2="152.4" y2="258.2"/>
				<polyline class="st1" points="152.4,258.6 152.4,259 152.4,259 152.4,258.6 				"/>
				<line class="st3" x1="152.4" y1="257.8" x2="152.4" y2="114.7"/>
			</g>
		</g>
		<g>
			<g>
				<polyline class="st1" points="162.3,114.3 162.3,113.9 162.4,113.9 162.4,114.3 				"/>
				<line class="st3" x1="162.4" y1="115" x2="162.4" y2="258.2"/>
				<polyline class="st1" points="162.4,258.6 162.4,259 162.3,259 162.3,258.6 				"/>
				<line class="st3" x1="162.3" y1="257.8" x2="162.3" y2="114.7"/>
			</g>
		</g>
		<g>
			<g>
				<polyline class="st1" points="172.3,114.3 172.3,113.9 172.4,113.9 172.4,114.3 				"/>
				<line class="st3" x1="172.4" y1="115" x2="172.4" y2="258.2"/>
				<polyline class="st1" points="172.4,258.6 172.4,259 172.3,259 172.3,258.6 				"/>
				<line class="st3" x1="172.3" y1="257.8" x2="172.3" y2="114.7"/>
			</g>
		</g>
		<g>
			<g>
				<polyline class="st1" points="182.3,114.3 182.3,113.9 182.4,113.9 182.4,114.3 				"/>
				<line class="st3" x1="182.4" y1="115" x2="182.4" y2="258.2"/>
				<polyline class="st1" points="182.4,258.6 182.4,259 182.3,259 182.3,258.6 				"/>
				<line class="st3" x1="182.3" y1="257.8" x2="182.3" y2="114.7"/>
			</g>
		</g>
		<g>
			<g>
				<polyline class="st1" points="192.3,114.3 192.3,113.9 192.4,113.9 192.4,114.3 				"/>
				<line class="st3" x1="192.4" y1="115" x2="192.4" y2="258.2"/>
				<polyline class="st1" points="192.4,258.6 192.4,259 192.3,259 192.3,258.6 				"/>
				<line class="st3" x1="192.3" y1="257.8" x2="192.3" y2="114.7"/>
			</g>
		</g>
		<g>
			<g>
				<polyline class="st1" points="202.3,114.3 202.3,113.9 202.4,113.9 202.4,114.3 				"/>
				<line class="st3" x1="202.4" y1="115" x2="202.4" y2="258.2"/>
				<polyline class="st1" points="202.4,258.6 202.4,259 202.3,259 202.3,258.6 				"/>
				<line class="st3" x1="202.3" y1="257.8" x2="202.3" y2="114.7"/>
			</g>
		</g>
		<g>
			<g>
				<polyline class="st1" points="212.3,114.3 212.3,113.9 212.4,113.9 212.4,114.3 				"/>
				<line class="st3" x1="212.4" y1="115" x2="212.4" y2="258.2"/>
				<polyline class="st1" points="212.4,258.6 212.4,259 212.3,259 212.3,258.6 				"/>
				<line class="st3" x1="212.3" y1="257.8" x2="212.3" y2="114.7"/>
			</g>
		</g>
		<g>
			<g>
				<polyline class="st1" points="222.3,114.3 222.3,113.9 222.4,113.9 222.4,114.3 				"/>
				<line class="st3" x1="222.4" y1="115" x2="222.4" y2="258.2"/>
				<polyline class="st1" points="222.4,258.6 222.4,259 222.3,259 222.3,258.6 				"/>
				<line class="st3" x1="222.3" y1="257.8" x2="222.3" y2="114.7"/>
			</g>
		</g>
		<g>
			<g>
				<polyline class="st1" points="232.3,114.3 232.3,113.9 232.3,113.9 232.3,114.3 				"/>
				<line class="st3" x1="232.3" y1="115" x2="232.3" y2="258.2"/>
				<polyline class="st1" points="232.3,258.6 232.3,259 232.3,259 232.3,258.6 				"/>
				<line class="st3" x1="232.3" y1="257.8" x2="232.3" y2="114.7"/>
			</g>
		</g>
		<g>
			<g>
				<polyline class="st1" points="242.3,114.3 242.3,113.9 242.3,113.9 242.3,114.3 				"/>
				<line class="st3" x1="242.3" y1="115" x2="242.3" y2="258.2"/>
				<polyline class="st1" points="242.3,258.6 242.3,259 242.3,259 242.3,258.6 				"/>
				<line class="st3" x1="242.3" y1="257.8" x2="242.3" y2="114.7"/>
			</g>
		</g>
		<g>
			<g>
				<polyline class="st1" points="252.3,114.3 252.3,113.9 252.3,113.9 252.3,114.3 				"/>
				<line class="st3" x1="252.3" y1="115" x2="252.3" y2="258.2"/>
				<polyline class="st1" points="252.3,258.6 252.3,259 252.3,259 252.3,258.6 				"/>
				<line class="st3" x1="252.3" y1="257.8" x2="252.3" y2="114.7"/>
			</g>
		</g>
		<g>
			<g>
				<polyline class="st1" points="262.3,114.3 262.3,113.9 262.3,113.9 262.3,114.3 				"/>
				<line class="st3" x1="262.3" y1="115" x2="262.3" y2="258.2"/>
				<polyline class="st1" points="262.3,258.6 262.3,259 262.3,259 262.3,258.6 				"/>
				<line class="st3" x1="262.3" y1="257.8" x2="262.3" y2="114.7"/>
			</g>
		</g>
		<g>
			<g>
				<polyline class="st1" points="272.3,114.3 272.3,113.9 272.3,113.9 272.3,114.3 				"/>
				<line class="st3" x1="272.3" y1="115" x2="272.3" y2="258.2"/>
				<polyline class="st1" points="272.3,258.6 272.3,259 272.3,259 272.3,258.6 				"/>
				<line class="st3" x1="272.3" y1="257.8" x2="272.3" y2="114.7"/>
			</g>
		</g>
		<g>
			<g>
				<polyline class="st1" points="282.3,114.3 282.3,113.9 282.3,113.9 282.3,114.3 				"/>
				<line class="st3" x1="282.3" y1="115" x2="282.3" y2="258.2"/>
				<polyline class="st1" points="282.3,258.6 282.3,259 282.3,259 282.3,258.6 				"/>
				<line class="st3" x1="282.3" y1="257.8" x2="282.3" y2="114.7"/>
			</g>
		</g>
		<g>
			<g>
				<polyline class="st1" points="292.3,114.3 292.3,113.9 292.3,113.9 292.3,114.3 				"/>
				<line class="st3" x1="292.3" y1="115" x2="292.3" y2="258.2"/>
				<polyline class="st1" points="292.3,258.6 292.3,259 292.3,259 292.3,258.6 				"/>
				<line class="st3" x1="292.3" y1="257.8" x2="292.3" y2="114.7"/>
			</g>
		</g>
		<g>
			<g>
				<polyline class="st1" points="302.3,114.3 302.3,113.9 302.3,113.9 302.3,114.3 				"/>
				<line class="st3" x1="302.3" y1="115" x2="302.3" y2="258.2"/>
				<polyline class="st1" points="302.3,258.6 302.3,259 302.3,259 302.3,258.6 				"/>
				<line class="st3" x1="302.3" y1="257.8" x2="302.3" y2="114.7"/>
			</g>
		</g>
	</g>
</g>
<circle class="st4" cx="127.6" cy="144.2" r="130"/>
<g class="st5">
	<path class="st6" d="M32.7,70.7c-12.9,16.6-21.5,36.6-24.2,58.4l24.2-24.2V70.7z"/>
	<path class="st6" d="M201.1,49.3c-16.6-12.8-36.6-21.4-58.5-24.2l24.2,24.2C166.8,49.3,201.1,49.3,201.1,49.3z"/>
	<path class="st6" d="M54,49.3h34.2l24.3-24.2C90.6,27.9,70.6,36.5,54,49.3z"/>
	<polygon class="st6" points="152.7,49.3 127.6,24.2 102.4,49.3 	"/>
	<polygon class="st6" points="78.3,59.3 42.7,94.9 42.7,59.3 	"/>
</g>
<g class="st5">
	<path class="st7" d="M32.7,183.5L8.5,159.3c2.7,21.8,11.4,41.9,24.2,58.4V183.5z"/>
	<path class="st7" d="M88.3,239.1H54c16.6,12.9,36.6,21.5,58.4,24.2L88.3,239.1z"/>
	<path class="st7" d="M222.4,70.7v34.2l24.2,24.2C243.9,107.3,235.3,87.3,222.4,70.7z"/>
	<path class="st7" d="M166.8,239.1l-24.2,24.2c21.8-2.7,41.9-11.4,58.4-24.2L166.8,239.1L166.8,239.1z"/>
	<path class="st7" d="M222.4,183.5v34.2c12.9-16.6,21.5-36.6,24.2-58.4L222.4,183.5z"/>
	<polygon class="st7" points="212.4,94.9 212.4,59.3 176.8,59.3 	"/>
	<polygon class="st7" points="222.4,169.3 247.6,144.2 222.4,119.1 	"/>
	<polygon class="st7" points="212.4,193.5 212.4,229.1 176.8,229.1 	"/>
	<polygon class="st7" points="152.7,239.1 127.6,264.2 102.4,239.1 	"/>
	<polygon class="st7" points="42.7,229.1 78.3,229.1 42.7,193.5 	"/>
	<polygon class="st7" points="32.7,169.3 7.6,144.2 32.7,119.1 	"/>
</g>
<path class="st8" d="M205.4,102l-35.6-35.6c-4.5-4.5-10.6-7-17-7h-34.9c-5.5,0-10.2-3.7-11.6-8.9c-2.3-8.7-0.2-18.3,6.3-25.3
	c-4.2,1-8.2,3.1-11.5,6.4c-3.2,3.2-5.3,7.2-6.3,11.3c-0.8-1.2-1.8-2.4-2.9-3.5c-2.9-2.9-6.4-4.9-10.1-6c-1.8,3.4-2.9,7.3-2.9,11.4
	c0,1.5,0.2,3,0.4,4.5c-3.6-2.2-7.9-3.5-12.5-3.5s-9,1.3-12.6,3.6C63.7,49.8,72,55,76.5,62.8c2.7,4.7,2,10.7-1.9,14.5l-24.8,24.8
	c-4.5,4.5-7,10.6-7,17v50.4c0,6.4,2.5,12.5,7,17l35.6,35.6c4.5,4.5,10.6,7,17,7h50.4c6.4,0,12.5-2.5,17-7l35.6-35.6
	c4.5-4.5,7-10.6,7-17v-50.4C212.4,112.6,209.9,106.5,205.4,102z"/>
<g>
	<path class="st9" d="M32.7,70.7c-12.9,16.6-21.5,36.6-24.2,58.4l24.2-24.2V70.7z"/>
	<path class="st9" d="M201.1,49.3c-16.6-12.8-36.6-21.4-58.5-24.2l24.2,24.2C166.8,49.3,201.1,49.3,201.1,49.3z"/>
	<path class="st9" d="M54,49.3h34.2l24.3-24.2C90.6,27.9,70.6,36.5,54,49.3z"/>
	<polygon class="st9" points="152.7,49.3 127.6,24.2 102.4,49.3 	"/>
	<polygon class="st9" points="78.3,59.3 42.7,94.9 42.7,59.3 	"/>
</g>
<g>
	<line class="st10" x1="212.4" y1="-7.8" x2="212.4" y2="145.6"/>
	<line class="st10" x1="42.7" y1="145.6" x2="42.7" y2="-7.8"/>
	<line class="st10" x1="42.7" y1="9.7" x2="212.4" y2="9.7"/>
</g>
<g>
	<line class="st10" x1="282.9" y1="274.2" x2="125.9" y2="274.2"/>
	<line class="st10" x1="125.9" y1="14.2" x2="282.9" y2="14.2"/>
	<line class="st10" x1="265.4" y1="14.2" x2="265.4" y2="274.2"/>
</g>
<circle class="st11" cx="110.9" cy="57.9" r="5.2"/>
<g>
	<rect x="42.8" y="59.4" class="st12" width="169.6" height="169.6"/>
	
		<rect x="42.8" y="59.4" transform="matrix(0.7071 -0.7071 0.7071 0.7071 -64.6064 132.4769)" class="st12" width="169.6" height="169.6"/>
	<circle class="st12" cx="127.6" cy="144.2" r="119.9"/>
</g>
<circle class="st13" cx="54.2" cy="48.9" r="2.6"/>
<circle class="st13" cx="81.6" cy="33.3" r="2.6"/>
<circle class="st13" cx="112.6" cy="25.1" r="2.6"/>
<circle class="st13" cx="95.1" cy="42.9" r="2.6"/>
<circle class="st13" cx="79.3" cy="49.3" r="2.6"/>
<circle class="st13" cx="80.1" cy="71.3" r="2.6"/>
<circle class="st13" cx="110.5" cy="59.3" r="2.6"/>
<path class="st14" d="M112.6,25.1"/>
<path class="st14" d="M54,49.3"/>
<line class="st15" x1="88.4" y1="49.3" x2="81.6" y2="33.3"/>
<g>
	<g>
		<ellipse transform="matrix(0.7071 -0.7071 0.7071 0.7071 -17.8555 69.4677)" class="st16" cx="74.9" cy="56.3" rx="24" ry="24"/>
		<circle class="st16" cx="102.8" cy="44.8" r="24"/>
	</g>
	<g>
		<ellipse transform="matrix(0.7071 -0.7071 0.7071 0.7071 0.2967 97.7299)" class="st16" cx="118.1" cy="48.5" rx="24" ry="24"/>
		<ellipse transform="matrix(0.7071 -0.7071 0.7071 0.7071 8.0136 106.3709)" class="st17" cx="132.4" cy="43.5" rx="27" ry="27"/>
	</g>
	<g>
		<circle class="st16" cx="66.8" cy="69.7" r="24"/>
		<circle class="st17" cx="53.1" cy="76.3" r="27"/>
	</g>
	<ellipse transform="matrix(0.9239 -0.3827 0.3827 0.9239 -15.692 39.9212)" class="st18" cx="92.5" cy="59.4" rx="18" ry="18"/>
	<ellipse transform="matrix(0.9239 -0.3827 0.3827 0.9239 -12.1438 37.5455)" class="st19" cx="88.3" cy="49.3" rx="9" ry="9"/>
</g>
<g>
	<path class="st20" d="M62.6,204.1L62.6,204.1l-0.7-0.2l0.2-0.4l0.9,0.3l0.3,0.3l-2.8,2.8l-0.4-0.4L62.6,204.1z"/>
	<path class="st20" d="M64.8,208.3c-0.9,0.9-1.8,1.1-2.4,0.5c-0.5-0.5-0.4-1.4,0.5-2.3c0.9-0.9,1.8-1,2.4-0.5
		C65.9,206.6,65.7,207.4,64.8,208.3z M63.3,206.8c-0.7,0.7-0.9,1.3-0.6,1.7c0.4,0.4,1,0.1,1.7-0.6c0.7-0.7,1-1.3,0.6-1.7
		C64.7,205.9,64,206.1,63.3,206.8z"/>
	<path class="st20" d="M66.1,209.7c0.3-0.3,0.5-0.5,0.7-0.7l0.3,0.3l-0.3,0.4l0,0c0.4-0.1,0.8,0,1.1,0.3c0.5,0.5,0.5,1.3-0.2,1.9
		c-0.7,0.7-1.6,0.7-2,0.2c-0.3-0.3-0.4-0.6-0.3-1l0,0l-1.1,1.1l-0.4-0.4L66.1,209.7z M66,210.6c-0.1,0.1-0.1,0.1-0.1,0.2
		c-0.2,0.3-0.1,0.7,0.1,1c0.4,0.4,0.9,0.3,1.4-0.2c0.4-0.4,0.5-1,0.2-1.4c-0.3-0.3-0.7-0.3-1-0.1c-0.1,0-0.1,0.1-0.2,0.1L66,210.6z"
		/>
	<path class="st20" d="M69.4,211.6l-0.1,0.7c0,0.2-0.1,0.4-0.1,0.5l0,0c0.2-0.1,0.4-0.1,0.5-0.1l0.7-0.1l0.4,0.4l-1.7,0.3l-0.3,1.8
		l-0.4-0.4l0.2-0.8c0-0.2,0.1-0.4,0.1-0.6l0,0c-0.2,0.1-0.4,0.1-0.6,0.1l-0.8,0.2l-0.4-0.4l1.8-0.3l0.3-1.7L69.4,211.6z"/>
</g>
<g>
	<line class="st21" x1="130.1" y1="24.2" x2="125.1" y2="24.2"/>
	<line class="st21" x1="125.1" y1="14.2" x2="130.1" y2="14.2"/>
	<line class="st21" x1="127.6" y1="14.2" x2="127.6" y2="24.2"/>
</g>
<g>
	<line class="st21" x1="58.1" y1="208.8" x2="54.5" y2="205.2"/>
	<line class="st21" x1="61.6" y1="198.2" x2="65.1" y2="201.7"/>
	<line class="st21" x1="63.4" y1="199.9" x2="56.3" y2="207"/>
</g>
<g>
	<line class="st21" x1="11.8" y1="203.9" x2="9.8" y2="199.3"/>
	<line class="st21" x1="19" y1="195.3" x2="21" y2="199.9"/>
	<line class="st21" x1="20" y1="197.6" x2="10.8" y2="201.6"/>
</g>
<g>
	<path class="st20" d="M17.8,201.2L17.8,201.2l-0.6-0.5l0.3-0.3l0.8,0.6l0.2,0.4l-3.6,1.6l-0.2-0.5L17.8,201.2z"/>
	<path class="st20" d="M18.3,205.9c-1.2,0.5-2.1,0.4-2.4-0.4c-0.3-0.7,0.1-1.5,1.3-2c1.2-0.5,2.1-0.3,2.4,0.4
		C20,204.7,19.5,205.4,18.3,205.9z M17.4,204c-0.9,0.4-1.3,0.9-1.1,1.4c0.2,0.5,0.9,0.5,1.8,0.1s1.4-0.9,1.1-1.4
		C19.1,203.6,18.4,203.5,17.4,204z"/>
	<path class="st20" d="M19.1,207.7c0.3-0.1,0.6-0.3,0.9-0.4l0.2,0.4l-0.4,0.2l0,0c0.4,0.1,0.7,0.3,0.9,0.7c0.3,0.6-0.1,1.4-0.9,1.7
		c-1,0.4-1.7,0-2-0.6c-0.2-0.4-0.1-0.7,0.1-1l0,0l-1.4,0.6l-0.2-0.5L19.1,207.7z M18.6,208.5c-0.1,0-0.1,0.1-0.2,0.1
		c-0.3,0.2-0.4,0.6-0.3,1c0.2,0.5,0.8,0.6,1.4,0.4c0.5-0.2,0.9-0.7,0.6-1.2c-0.1-0.3-0.5-0.5-0.9-0.5c-0.1,0-0.1,0-0.2,0.1
		L18.6,208.5z"/>
	<path class="st20" d="M21.4,210.6l-0.4,0.6c-0.1,0.2-0.2,0.3-0.3,0.5l0,0c0.2,0,0.4,0,0.6,0.1l0.7,0.1l0.2,0.5l-1.7-0.3l-1,1.5
		l-0.2-0.5l0.4-0.7c0.1-0.2,0.2-0.3,0.3-0.5l0,0c-0.2,0-0.4-0.1-0.6-0.1l-0.8-0.1l-0.1-0.5l1.8,0.4l0.9-1.5L21.4,210.6z"/>
</g>
<g>
	<g>
		<path class="st20" d="M173.1,55.1c-0.1,0-0.2,0.1-0.4,0.1c-0.4,0-0.7-0.3-0.7-0.7s0.3-0.8,0.8-0.8c0.2,0,0.3,0,0.4,0.1l-0.1,0.2
			c-0.1,0-0.2-0.1-0.3-0.1c-0.3,0-0.5,0.2-0.5,0.5s0.2,0.5,0.5,0.5c0.2,0,0.3,0,0.3-0.1V55.1z"/>
		<path class="st20" d="M174.7,54.4c0,0.5-0.4,0.8-0.7,0.8c-0.4,0-0.7-0.3-0.7-0.7c0-0.5,0.3-0.8,0.7-0.8
			C174.4,53.6,174.7,53.9,174.7,54.4z M173.6,54.4c0,0.3,0.2,0.6,0.4,0.6c0.3,0,0.4-0.2,0.4-0.6c0-0.2-0.1-0.6-0.4-0.6
			C173.7,53.8,173.6,54.1,173.6,54.4z"/>
		<path class="st20" d="M175.1,54.1c0-0.2,0-0.3,0-0.5h0.2v0.3l0,0c0.1-0.2,0.2-0.3,0.4-0.3h0.1v0.3h-0.1c-0.2,0-0.3,0.1-0.4,0.3
			v0.1v0.8H175v-1C175,54.1,175.1,54.1,175.1,54.1z"/>
		<path class="st20" d="M176,54.1c0-0.2,0-0.3,0-0.4h0.2v0.2l0,0c0.1-0.1,0.2-0.3,0.5-0.3c0.2,0,0.5,0.1,0.5,0.6v0.9h-0.3v-0.8
			c0-0.2-0.1-0.4-0.3-0.4s-0.3,0.1-0.4,0.3v0.1v0.9h-0.3v-1.1H176z"/>
		<path class="st20" d="M177.8,54.5c0,0.4,0.2,0.5,0.5,0.5c0.2,0,0.3,0,0.4-0.1v0.2c-0.1,0-0.3,0.1-0.5,0.1c-0.4,0-0.7-0.3-0.7-0.7
			s0.3-0.8,0.7-0.8c0.5,0,0.6,0.4,0.6,0.7c0,0.1,0,0.1,0,0.1H177.8z M178.6,54.3c0-0.2-0.1-0.4-0.4-0.4c-0.3,0-0.4,0.2-0.4,0.4
			H178.6z"/>
		<path class="st20" d="M179.2,54.1c0-0.2,0-0.3,0-0.5h0.2v0.3l0,0c0.1-0.2,0.2-0.3,0.4-0.3h0.1v0.3h-0.1c-0.2,0-0.3,0.1-0.4,0.3
			v0.1v0.8h-0.3v-1C179.1,54.1,179.2,54.1,179.2,54.1z"/>
		<path class="st20" d="M180.1,54.9c0.1,0.1,0.2,0.1,0.3,0.1c0.2,0,0.3-0.1,0.3-0.2c0-0.1-0.1-0.2-0.3-0.3c-0.3-0.1-0.4-0.2-0.4-0.4
			s0.2-0.4,0.5-0.4c0.1,0,0.3,0,0.4,0.1l-0.1,0.2c-0.1,0-0.2-0.1-0.3-0.1c-0.2,0-0.2,0.1-0.2,0.2c0,0.1,0.1,0.2,0.3,0.2
			c0.3,0.1,0.4,0.2,0.4,0.4c0,0.3-0.2,0.4-0.5,0.4c-0.2,0-0.3,0-0.4-0.1V54.9z"/>
		<path class="st20" d="M181.9,53.9c0-0.1,0.1-0.2,0.2-0.2c0.1,0,0.2,0.1,0.2,0.2c0,0.1-0.1,0.2-0.2,0.2S181.9,54,181.9,53.9z
			 M181.9,55c0-0.1,0.1-0.2,0.2-0.2c0.1,0,0.2,0.1,0.2,0.2c0,0.1-0.1,0.2-0.2,0.2S181.9,55.1,181.9,55z"/>
		<path class="st20" d="M182.5,55.1v-0.2l0.2-0.2c0.5-0.5,0.7-0.7,0.7-1c0-0.2-0.1-0.4-0.4-0.4c-0.2,0-0.3,0.1-0.4,0.2l-0.1-0.2
			c0.1-0.1,0.3-0.2,0.6-0.2c0.4,0,0.6,0.3,0.6,0.6c0,0.4-0.3,0.7-0.7,1l-0.2,0.1l0,0h0.9V55h-1.2V55.1z"/>
		<path class="st20" d="M184.9,55.1v-0.5H184v-0.2l0.9-1.2h0.3v1.2h0.3v0.2h-0.3v0.5H184.9z M184.9,54.4v-0.7c0-0.1,0-0.2,0-0.3l0,0
			c-0.1,0.1-0.1,0.2-0.2,0.3l-0.5,0.7l0,0H184.9z"/>
		<path class="st20" d="M186.3,54.1c0-0.2,0-0.3,0-0.5h0.2v0.2l0,0c0.1-0.2,0.3-0.3,0.5-0.3c0.4,0,0.6,0.3,0.6,0.7
			c0,0.5-0.3,0.8-0.7,0.8c-0.2,0-0.4-0.1-0.4-0.2l0,0v0.8h-0.3L186.3,54.1L186.3,54.1z M186.6,54.5L186.6,54.5
			c0,0.3,0.2,0.4,0.4,0.4c0.3,0,0.4-0.2,0.4-0.6c0-0.3-0.2-0.5-0.4-0.5s-0.3,0.1-0.4,0.3v0.1V54.5z"/>
		<path class="st20" d="M188.2,53.7l0.2,0.3c0.1,0.1,0.1,0.2,0.1,0.2l0,0c0-0.1,0.1-0.2,0.1-0.2l0.2-0.3h0.3l-0.5,0.7l0.5,0.8h-0.3
			l-0.2-0.3c-0.1-0.1-0.1-0.2-0.2-0.3l0,0c0,0.1-0.1,0.2-0.2,0.3l-0.2,0.3h-0.3l0.5-0.7l-0.5-0.7L188.2,53.7L188.2,53.7z"/>
	</g>
</g>
<g>
	<path class="st20" d="M118.7,55.1c-0.1,0-0.2,0.1-0.4,0.1c-0.4,0-0.7-0.3-0.7-0.7s0.3-0.8,0.8-0.8c0.2,0,0.3,0,0.4,0.1l-0.1,0.2
		c-0.1,0-0.2-0.1-0.3-0.1c-0.3,0-0.5,0.2-0.5,0.5s0.2,0.5,0.5,0.5c0.2,0,0.3,0,0.3-0.1L118.7,55.1z"/>
	<path class="st20" d="M120.3,54.4c0,0.5-0.4,0.8-0.7,0.8c-0.4,0-0.7-0.3-0.7-0.7c0-0.5,0.3-0.8,0.7-0.8
		C120,53.6,120.3,53.9,120.3,54.4z M119.2,54.4c0,0.3,0.2,0.6,0.4,0.6c0.3,0,0.4-0.2,0.4-0.6c0-0.2-0.1-0.6-0.4-0.6
		C119.3,53.8,119.2,54.1,119.2,54.4z"/>
	<path class="st20" d="M120.7,54.1c0-0.2,0-0.3,0-0.5h0.2v0.3l0,0c0.1-0.2,0.2-0.3,0.4-0.3h0.1v0.3h-0.1c-0.2,0-0.3,0.1-0.4,0.3v0.1
		v0.8h-0.3v-1C120.6,54.1,120.7,54.1,120.7,54.1z"/>
	<path class="st20" d="M121.6,54.1c0-0.2,0-0.3,0-0.4h0.2v0.2l0,0c0.1-0.1,0.2-0.3,0.5-0.3c0.2,0,0.5,0.1,0.5,0.6v0.9h-0.3v-0.8
		c0-0.2-0.1-0.4-0.3-0.4s-0.3,0.1-0.4,0.3v0.1v0.9h-0.3v-1.1H121.6z"/>
	<path class="st20" d="M123.5,54.5c0,0.4,0.2,0.5,0.5,0.5c0.2,0,0.3,0,0.4-0.1v0.2c-0.1,0-0.3,0.1-0.5,0.1c-0.4,0-0.7-0.3-0.7-0.7
		s0.3-0.8,0.7-0.8c0.5,0,0.6,0.4,0.6,0.7c0,0.1,0,0.1,0,0.1H123.5z M124.2,54.3c0-0.2-0.1-0.4-0.4-0.4c-0.3,0-0.4,0.2-0.4,0.4H124.2
		z"/>
	<path class="st20" d="M124.8,54.1c0-0.2,0-0.3,0-0.5h0.2v0.3l0,0c0.1-0.2,0.2-0.3,0.4-0.3h0.1v0.3h-0.1c-0.2,0-0.3,0.1-0.4,0.3v0.1
		v0.8h-0.3v-1C124.7,54.1,124.8,54.1,124.8,54.1z"/>
	<path class="st20" d="M125.8,54.9c0.1,0.1,0.2,0.1,0.3,0.1c0.2,0,0.3-0.1,0.3-0.2c0-0.1-0.1-0.2-0.3-0.3c-0.3-0.1-0.4-0.2-0.4-0.4
		s0.2-0.4,0.5-0.4c0.1,0,0.3,0,0.4,0.1l-0.1,0.2c-0.1,0-0.2-0.1-0.3-0.1c-0.2,0-0.2,0.1-0.2,0.2c0,0.1,0.1,0.2,0.3,0.2
		c0.3,0.1,0.4,0.2,0.4,0.4c0,0.3-0.2,0.4-0.5,0.4c-0.2,0-0.3,0-0.4-0.1V54.9z"/>
	<path class="st20" d="M127.6,53.9c0-0.1,0.1-0.2,0.2-0.2c0.1,0,0.2,0.1,0.2,0.2c0,0.1-0.1,0.2-0.2,0.2
		C127.6,54.1,127.6,54,127.6,53.9z M127.6,55c0-0.1,0.1-0.2,0.2-0.2c0.1,0,0.2,0.1,0.2,0.2c0,0.1-0.1,0.2-0.2,0.2
		C127.6,55.2,127.6,55.1,127.6,55z"/>
	<path class="st20" d="M128.7,53.4L128.7,53.4l-0.3,0.2l-0.1-0.2l0.4-0.2h0.2v2h-0.3v-1.8H128.7z"/>
	<path class="st20" d="M129.7,55.1v-0.2l0.2-0.2c0.5-0.5,0.7-0.7,0.7-1c0-0.2-0.1-0.4-0.4-0.4c-0.2,0-0.3,0.1-0.4,0.2l-0.1-0.2
		c0.1-0.1,0.3-0.2,0.6-0.2c0.4,0,0.6,0.3,0.6,0.6c0,0.4-0.3,0.7-0.7,1l-0.2,0.1l0,0h0.9V55h-1.2L129.7,55.1L129.7,55.1z"/>
	<path class="st20" d="M131.9,54.1c0-0.2,0-0.3,0-0.5h0.2v0.2l0,0c0.1-0.2,0.3-0.3,0.5-0.3c0.4,0,0.6,0.3,0.6,0.7
		c0,0.5-0.3,0.8-0.7,0.8c-0.2,0-0.4-0.1-0.4-0.2l0,0v0.8h-0.3L131.9,54.1L131.9,54.1z M132.2,54.5L132.2,54.5c0,0.3,0.2,0.4,0.4,0.4
		c0.3,0,0.4-0.2,0.4-0.6c0-0.3-0.2-0.5-0.4-0.5s-0.3,0.1-0.4,0.3v0.1V54.5z"/>
	<path class="st20" d="M133.8,53.7L134,54c0.1,0.1,0.1,0.2,0.1,0.2l0,0c0-0.1,0.1-0.2,0.1-0.2l0.2-0.3h0.3l-0.5,0.7l0.5,0.8h-0.2
		l-0.2-0.3c-0.1-0.1-0.1-0.2-0.2-0.3l0,0c0,0.1-0.1,0.2-0.2,0.3l-0.2,0.3h-0.2l0.5-0.7l-0.5-0.7L133.8,53.7L133.8,53.7z"/>
</g>
<g>
	<circle class="st22" cx="127.6" cy="144.2" r="129.9"/>
	<rect x="32.8" y="49.4" class="st22" width="189.6" height="189.6"/>
	
		<rect x="32.8" y="49.4" transform="matrix(0.7071 -0.7071 0.7071 0.7071 -64.6064 132.4769)" class="st22" width="189.6" height="189.6"/>
</g>
<g>
	<circle class="st23" cx="188.2" cy="119" r="24"/>
	<circle class="st23" cx="152.7" cy="83.3" r="24"/>
	<circle class="st23" cx="188.2" cy="169.3" r="24"/>
	<circle class="st23" cx="152.7" cy="205" r="24"/>
	<circle class="st23" cx="102.2" cy="204.8" r="24"/>
	<circle class="st23" cx="66.7" cy="169.3" r="24"/>
	<circle class="st23" cx="66.7" cy="119" r="24"/>
</g>
<polyline class="st24" points="42.8,109.1 92.5,59.4 162.8,59.4 "/>
<line class="st19" x1="88.3" y1="49.3" x2="91.8" y2="57.7"/>
<line class="st18" x1="92.9" y1="59.4" x2="99.4" y2="76"/>
<g class="st25">
	<path class="st26" d="M36.9,0.2c11.3,0,20.4,9.2,20.4,20.4S48.2,41,36.9,41s-20.4-9.2-20.4-20.4S25.6,0.2,36.9,0.2 M36.9,0
		C25.5,0,16.3,9.2,16.3,20.6s9.2,20.6,20.6,20.6S57.5,32,57.5,20.6S48.3,0,36.9,0L36.9,0z"/>
</g>
<g>
	<path class="st20" d="M6.5,7.6H5.7L5.6,8.1c0,0,0.1,0,0.2,0c0.2,0,0.3,0,0.4,0.1c0.2,0.1,0.3,0.3,0.3,0.5c0,0.4-0.3,0.7-0.8,0.7
		c-0.2,0-0.4-0.1-0.5-0.1l0.1-0.2c0.1,0.1,0.2,0.1,0.4,0.1C6,9.2,6.2,9,6.2,8.8c0-0.3-0.2-0.5-0.6-0.5c-0.1,0-0.2,0-0.3,0l0.1-1h1
		v0.3C6.4,7.6,6.5,7.6,6.5,7.6z"/>
	<path class="st20" d="M7.7,9.4V8.8h-1V8.6l0.9-1.3h0.3v1.3h0.3v0.2H7.9v0.6H7.7z M7.7,8.6V7.9c0-0.1,0-0.2,0-0.3l0,0
		C7.6,7.7,7.6,7.8,7.5,7.9L7,8.6l0,0H7.7z"/>
	<path class="st20" d="M9.2,8.4c0-0.2,0-0.4,0-0.5h0.3v0.3l0,0C9.6,8,9.8,7.9,10,7.9c0.4,0,0.7,0.3,0.7,0.8c0,0.6-0.3,0.8-0.7,0.8
		c-0.2,0-0.4-0.1-0.5-0.2l0,0v0.8H9.2V8.4z M9.5,8.8v0.1c0.1,0.2,0.2,0.3,0.4,0.3c0.3,0,0.5-0.2,0.5-0.6c0-0.3-0.2-0.6-0.5-0.6
		C9.7,8,9.5,8.1,9.5,8.3v0.1V8.8z"/>
	<path class="st20" d="M11.2,7.9l0.2,0.3c0.1,0.1,0.1,0.2,0.2,0.3l0,0c0.1-0.1,0.1-0.2,0.2-0.3L12,7.9h0.3l-0.5,0.7l0.5,0.8H12
		l-0.2-0.3c-0.1-0.1-0.1-0.2-0.2-0.3l0,0c-0.1,0.1-0.1,0.2-0.2,0.3l-0.2,0.3h-0.3l0.5-0.8l-0.5-0.8h0.3V7.9z"/>
</g>
<g>
	<path class="st20" d="M5.3,19.3c0.1,0.1,0.3,0.1,0.5,0.1c0.4,0,0.5-0.2,0.5-0.4c0-0.3-0.3-0.4-0.5-0.4H5.5v-0.2h0.2
		c0.2,0,0.5-0.1,0.5-0.3c0-0.2-0.1-0.3-0.4-0.3c-0.2,0-0.3,0.1-0.4,0.1l-0.1-0.2c0.1-0.1,0.3-0.2,0.5-0.2c0.4,0,0.6,0.2,0.6,0.5
		c0,0.2-0.1,0.4-0.4,0.5l0,0c0.3,0.1,0.5,0.2,0.5,0.5s-0.3,0.6-0.8,0.6c-0.2,0-0.4-0.1-0.5-0.1L5.3,19.3z"/>
	<path class="st20" d="M8,17.8c-0.1,0-0.1,0-0.2,0c-0.4,0.1-0.7,0.4-0.7,0.7l0,0c0.1-0.1,0.3-0.2,0.5-0.2c0.4,0,0.6,0.3,0.6,0.7
		c0,0.4-0.3,0.7-0.7,0.7s-0.7-0.3-0.7-0.9c0-0.4,0.1-0.7,0.3-0.9c0.2-0.2,0.4-0.3,0.7-0.3c0.1,0,0.2,0,0.2,0L8,17.8z M8,18.9
		c0-0.3-0.2-0.5-0.4-0.5s-0.3,0.1-0.4,0.3v0.1c0,0.3,0.2,0.6,0.5,0.6C7.8,19.4,8,19.2,8,18.9z"/>
	<path class="st20" d="M9.2,18.6c0-0.2,0-0.4,0-0.5h0.3v0.3l0,0c0.1-0.2,0.3-0.3,0.5-0.3c0.4,0,0.7,0.3,0.7,0.8
		c0,0.6-0.3,0.8-0.7,0.8c-0.2,0-0.4-0.1-0.5-0.2l0,0v0.7H9.2V18.6z M9.5,19v0.1c0.1,0.2,0.2,0.3,0.4,0.3c0.3,0,0.5-0.2,0.5-0.6
		c0-0.3-0.2-0.6-0.5-0.6c-0.2,0-0.4,0.1-0.4,0.3v0.1V19z"/>
	<path class="st20" d="M11.2,18.1l0.2,0.3c0.1,0.1,0.1,0.2,0.2,0.3l0,0c0.1-0.1,0.1-0.2,0.2-0.3l0.2-0.3h0.3l-0.5,0.7l0.5,0.8H12
		l-0.2-0.3c-0.1-0.1-0.1-0.2-0.2-0.3l0,0c-0.1,0.1-0.1,0.2-0.2,0.3l-0.2,0.3h-0.3l0.5-0.8L10.9,18L11.2,18.1L11.2,18.1z"/>
</g>
<g>
	<path class="st20" d="M5.8,22.5L5.8,22.5l-0.3,0.2l-0.1-0.2l0.5-0.2h0.2v2.1H5.8C5.8,24.4,5.8,22.5,5.8,22.5z"/>
	<path class="st20" d="M6.8,23.8c0-0.3,0.2-0.4,0.4-0.6l0,0c-0.2-0.1-0.3-0.3-0.3-0.5c0-0.3,0.3-0.5,0.6-0.5c0.4,0,0.6,0.3,0.6,0.5
		S8,23.1,7.8,23.2l0,0c0.3,0.1,0.4,0.3,0.4,0.5c0,0.4-0.3,0.6-0.7,0.6S6.8,24.1,6.8,23.8z M7.9,23.7c0-0.3-0.2-0.4-0.5-0.5
		C7.2,23.3,7,23.4,7,23.6C7,23.8,7.1,24,7.4,24C7.8,24.1,7.9,24,7.9,23.7z M7.2,22.7c0,0.2,0.2,0.3,0.4,0.4c0.2-0.1,0.3-0.2,0.3-0.4
		c0-0.2-0.1-0.3-0.3-0.3C7.3,22.4,7.2,22.5,7.2,22.7z"/>
	<path class="st20" d="M9.2,23.2c0-0.2,0-0.4,0-0.5h0.3V23l0,0c0.1-0.2,0.3-0.3,0.5-0.3c0.4,0,0.7,0.3,0.7,0.8
		c0,0.6-0.3,0.8-0.7,0.8c-0.2,0-0.4-0.1-0.5-0.2l0,0v0.8H9.2V23.2z M9.5,23.7v0.1c0.1,0.2,0.2,0.3,0.4,0.3c0.3,0,0.5-0.2,0.5-0.6
		c0-0.3-0.2-0.6-0.5-0.6c-0.2,0-0.4,0.1-0.4,0.3v0.1V23.7z"/>
	<path class="st20" d="M11.2,22.7l0.2,0.3c0.1,0.2,0.1,0.2,0.1,0.3l0,0c0.1-0.1,0.1-0.2,0.2-0.3l0.2-0.3h0.3l-0.5,0.7l0.5,0.8h-0.3
		l-0.2-0.3c-0.1-0.1-0.1-0.2-0.2-0.3l0,0c-0.1,0.1-0.1,0.2-0.2,0.3l-0.2,0.3h-0.3l0.5-0.8l-0.5-0.8L11.2,22.7L11.2,22.7z"/>
</g>
<g>
	<path class="st20" d="M6.1,14.7v-0.6h-1v-0.2L6,12.6h0.3v1.3h0.3v0.2H6.3v0.6H6.1z M6.1,13.9v-0.7c0-0.1,0-0.2,0-0.3l0,0
		C6,13,6,13.1,5.9,13.2l-0.5,0.7l0,0H6.1z"/>
	<path class="st20" d="M6.8,14.2c0-0.3,0.2-0.4,0.4-0.6l0,0c-0.2-0.1-0.3-0.3-0.3-0.5c0-0.3,0.3-0.5,0.6-0.5c0.4,0,0.6,0.3,0.6,0.5
		S8,13.5,7.8,13.6l0,0c0.3,0.1,0.4,0.3,0.4,0.5c0,0.4-0.3,0.6-0.7,0.6S6.8,14.5,6.8,14.2z M7.9,14.2c0-0.3-0.2-0.4-0.5-0.5
		C7.2,13.8,7,13.9,7,14.1c0,0.2,0.1,0.4,0.4,0.4C7.8,14.5,7.9,14.4,7.9,14.2z M7.2,13.1c0,0.2,0.2,0.3,0.4,0.4
		c0.2-0.1,0.3-0.2,0.3-0.4c0-0.2-0.1-0.3-0.3-0.3C7.3,12.8,7.2,13,7.2,13.1z"/>
	<path class="st20" d="M9.2,13.7c0-0.2,0-0.4,0-0.5h0.3v0.3l0,0c0.1-0.2,0.3-0.3,0.5-0.3c0.4,0,0.7,0.3,0.7,0.8
		c0,0.6-0.3,0.8-0.7,0.8c-0.2,0-0.4-0.1-0.5-0.2l0,0v0.8H9.2V13.7z M9.5,14.1v0.1c0.1,0.2,0.2,0.3,0.4,0.3c0.3,0,0.5-0.2,0.5-0.6
		c0-0.3-0.2-0.6-0.5-0.6c-0.2,0-0.4,0.1-0.4,0.3v0.1V14.1z"/>
	<path class="st20" d="M11.2,13.2l0.2,0.3c0.1,0.1,0.1,0.2,0.2,0.3l0,0c0.1-0.1,0.1-0.2,0.2-0.3l0.2-0.3h0.3l-0.5,0.7l0.5,0.8H12
		l-0.2-0.3c-0.1-0.1-0.1-0.2-0.2-0.3l0,0c-0.1,0.1-0.1,0.2-0.2,0.3l-0.2,0.3h-0.3l0.5-0.8l-0.5-0.7H11.2z"/>
</g>
<circle class="st27" cx="36.9" cy="20.6" r="19"/>
<ellipse transform="matrix(0.9239 -0.3827 0.3827 0.9239 -5.0732 15.69)" class="st28" cx="36.9" cy="20.6" rx="14.3" ry="14.3"/>
<ellipse transform="matrix(0.9239 -0.3827 0.3827 0.9239 -5.0732 15.69)" class="st29" cx="36.9" cy="20.6" rx="7.1" ry="7.1"/>
<line class="st30" x1="19.5" y1="9.4" x2="14.2" y2="9.4"/>
<line class="st27" x1="14.2" y1="14.7" x2="18.9" y2="14.7"/>
<line class="st28" x1="14.2" y1="19.6" x2="22.7" y2="19.6"/>
<line class="st29" x1="14.2" y1="24.3" x2="30.8" y2="24.3"/>
<circle class="st11" cx="158.1" cy="63.9" r="15"/>
</svg>
