<?xml version="1.0" encoding="utf-8"?>
<!-- Generator: Adobe Illustrator 20.1.0, SVG Export Plug-In . SVG Version: 6.00 Build 0)  -->
<svg version="1.1" id="Layer_1" xmlns="http://www.w3.org/2000/svg" xmlns:xlink="http://www.w3.org/1999/xlink" x="0px" y="0px"
	 viewBox="0 0 26.5 31.9" style="enable-background:new 0 0 26.5 31.9;" xml:space="preserve">
<style type="text/css">
	.st0{fill:#CC2032;}
</style>
<path class="st0" d="M26.5,14.6c0-0.9-0.4-1.8-1-2.5l-5.7-5.7c-0.7-0.7-1.6-1-2.5-1l-5.6,0c-0.8,0-1.5-0.5-1.7-1.3c0,0,0,0,0-0.1
	c-0.4-1.5,0-3,1-4c-0.1,0-0.3,0.1-0.4,0.1c-1.2,0.5-2,1.5-2.4,2.7c-0.5-0.7-1.3-1.2-2-1.5C5.7,2.1,5.6,2.9,5.7,3.8
	C4.7,3.2,3.4,3.1,2.2,3.6C2,3.6,1.9,3.7,1.8,3.8c1.4,0.1,2.7,0.9,3.5,2.2c0,0,0,0.1,0,0.1C5.7,6.7,5.6,7.5,5,8.1l-4,4
	c-0.7,0.7-1,1.6-1,2.5l0,8.1c0,0.9,0.4,1.8,1,2.5l5.7,5.7c0.7,0.7,1.6,1,2.5,1l8.1,0c0.9,0,1.8-0.4,2.5-1l5.7-5.7
	c0.7-0.7,1-1.6,1-2.5L26.5,14.6z"/>
</svg>
