<?xml version="1.0" encoding="utf-8"?>
<!-- Generator: Adobe Illustrator 20.1.0, SVG Export Plug-In . SVG Version: 6.00 Build 0)  -->
<svg version="1.1" id="Layer_1" xmlns="http://www.w3.org/2000/svg" xmlns:xlink="http://www.w3.org/1999/xlink" x="0px" y="0px"
	 viewBox="0 0 280 220" style="enable-background:new 0 0 280 220;" xml:space="preserve">
<style type="text/css">
	.st0{fill:#F4F4F4;}
</style>
<g>
	<path class="st0" d="M266.2,112.3H238l-7.9-52.3c5.1,3.4,11.2,5.4,17.7,5.4c17.7,0,32.1-14.7,32.1-32.8S265.6,0,247.9,0
		s-32.1,14.7-32.1,32.8c0,3.8,0.7,7.4,1.8,10.8L200,28.2c-3.6-3.1-8.1-4.8-12.8-4.8h-63.3c-7.6,0-13.8,6.3-13.8,14s6.2,14,13.8,14
		h56.8L133,89.8c-8.7,6.9-13.7,17.4-13.7,28.6c0,12.4,6.1,23.9,16.4,30.6l42.6,27.9l-35.9,15.3c-3.6,1.5-6.4,4.6-7.8,8.3
		c-1.3,3.7-1.1,7.9,0.7,11.5c2.5,4.9,7.4,7.8,12.5,7.8c1.9,0,3.8-0.4,5.7-1.2l49.5-22.3c7.7-3.7,12.7-11.7,12.7-20.4
		c0-5.9-2.4-11.7-6.5-15.9l-28.1-28.7l26.5-23.7l2,16.7c1.1,9.2,8.8,16.1,17.9,16.1h38.6c7.6,0,13.8-6.3,13.8-14
		C280,118.6,273.8,112.3,266.2,112.3z M247.9,9.4c12.7,0,23,10.5,23,23.4s-10.3,23.4-23,23.4c-12.7,0-23-10.5-23-23.4
		S235.2,9.4,247.9,9.4z M266.2,131.1h-38.6c-4.5,0-8.2-3.4-8.8-7.9L214.6,89l-46.9,41.8l35.1,35.8c2.4,2.4,3.8,5.8,3.8,9.3
		c0,5.1-2.9,9.7-7.3,11.9l-49.4,22.2c-2.4,1.1-5.1,0.1-6.3-2.3c-0.6-1.2-0.7-2.7-0.2-4c0.5-1.3,1.4-2.3,2.7-2.9l39-16.6
		c2.6-1.1,4.3-3.5,4.5-6.3c0.2-2.8-1.1-5.5-3.4-7l-45.4-29.8c-7.6-5-12.2-13.5-12.2-22.8c0-8.4,3.7-16.1,10.1-21.3l56.4-45.2
		l-9.6-9.8h-61.6c-2.5,0-4.6-2.1-4.6-4.7c0-2.6,2.1-4.7,4.6-4.7h63.3c2.5,0,4.9,0.9,6.8,2.6l26.6,23.3l9.5,63.1h36.1
		c2.5,0,4.6,2.1,4.6,4.7S268.8,131.1,266.2,131.1z"/>
	<path class="st0" d="M67.6,208.3c-2.3,2.7-6.2,3.1-9,1.1c-1.6-1.1-2.5-2.8-2.8-4.7c-0.2-1.9,0.3-3.8,1.5-5.3l61-74.6l-7.1-6
		l-61,74.6c-2.8,3.5-4.1,8-3.6,12.5c0.6,4.5,3,8.5,6.6,11.2c2.8,2,6,3,9.3,3c4.4,0,8.8-1.9,12-5.6l52.9-61.6l-6.9-6.2L67.6,208.3z"
		/>
	<rect x="36.7" y="60.9" class="st0" width="101" height="9.4"/>
	<rect x="9.2" y="60.9" class="st0" width="18.4" height="9.4"/>
	<rect x="45.9" y="79.6" class="st0" width="68.9" height="9.4"/>
	<rect x="18.4" y="79.6" class="st0" width="18.4" height="9.4"/>
	<rect x="50.5" y="98.3" class="st0" width="59.7" height="9.4"/>
	<rect x="27.5" y="98.3" class="st0" width="13.8" height="9.4"/>
	<rect x="27.5" y="42.2" class="st0" width="78" height="9.4"/>
	<rect y="42.2" class="st0" width="18.4" height="9.4"/>
</g>
</svg>
