<?xml version="1.0" encoding="utf-8"?>
<!-- Generator: Adobe Illustrator 20.1.0, SVG Export Plug-In . SVG Version: 6.00 Build 0)  -->
<svg version="1.1" id="Layer_1" xmlns="http://www.w3.org/2000/svg" xmlns:xlink="http://www.w3.org/1999/xlink" x="0px" y="0px"
	 viewBox="0 0 260 90" style="enable-background:new 0 0 260 90;" xml:space="preserve">
<style type="text/css">
	.st0{fill:#00677A;}
	.st1{fill:#E5A428;}
	.st2{fill:#F4F4F5;}
</style>
<g>
	<polyline class="st0" points="0,81 203.4,81 250.8,0 0,0 	"/>
	<polygon class="st1" points="0,81 0,90 4,90 4,85 205.7,85 255.4,0 250.8,0 203.4,81 	"/>
	<polygon class="st2" points="4,85 4,90 6,90 6,87 206.8,87 257.7,0 255.4,0 205.7,85 	"/>
	<polygon class="st0" points="6,87 6,90 8,90 8,89 208,89 260,0 257.7,0 206.8,87 	"/>
</g>
<rect x="258" y="0" class="st0" width="2" height="2"/>
</svg>
