<?xml version="1.0" encoding="utf-8"?>
<!-- Generator: Adobe Illustrator 20.1.0, SVG Export Plug-In . SVG Version: 6.00 Build 0)  -->
<svg version="1.1" id="Layer_1" xmlns="http://www.w3.org/2000/svg" xmlns:xlink="http://www.w3.org/1999/xlink" x="0px" y="0px"
	 viewBox="0 0 260 90" style="enable-background:new 0 0 260 90;" xml:space="preserve">
<style type="text/css">
	.st0{fill:#00677A;}
	.st1{fill:#E5A428;}
	.st2{fill:#F4F4F5;}
</style>
<g>
	<polyline class="st0" points="260,0 9.2,0 56.6,81 260,81 	"/>
	<polygon class="st1" points="56.6,81 9.2,0 4.6,0 54.3,85 256,85 256,90 260,90 260,81 	"/>
	<polygon class="st2" points="54.3,85 4.6,0 2.3,0 53.2,87 254,87 254,90 256,90 256,85 	"/>
	<polygon class="st0" points="53.2,87 2.3,0 0,0 52,89 252,89 252,90 254,90 254,87 	"/>
</g>
<rect y="0" class="st0" width="2" height="2"/>
</svg>
