<?xml version="1.0" encoding="utf-8"?>
<!-- Generator: Adobe Illustrator 20.1.0, SVG Export Plug-In . SVG Version: 6.00 Build 0)  -->
<svg version="1.1" id="Layer_2" xmlns="http://www.w3.org/2000/svg" xmlns:xlink="http://www.w3.org/1999/xlink" x="0px" y="0px"
	 viewBox="0 0 240 530" style="enable-background:new 0 0 240 530;" xml:space="preserve">
<style type="text/css">
	.st0{fill:#E7A429;}
</style>
<path class="st0" d="M4.7,273c74,41,66.4,127.8,125.2,177.2c13.3,11.2,53.7,35.4,61.2,72.9c1.4,7,8.8,8.4,15.2,5.2
	c21.3-10.9,33.6-43.6,33.7-75.2c0-10-32.7,25-79-11.7c-89.3-68.6-53.2-164.3-36.9-176.3v-0.2c-16.4-12-52.4-107.7,36.9-176.3
	c46.3-36.7,79-1.7,79-11.7c-0.1-31.6-12.3-64.3-33.7-75.2c-6.4-3.3-13.8-1.9-15.2,5.2c-7.5,37.5-47.9,61.7-61.2,72.9
	C71.1,129.2,78.7,216,4.7,257C-1.6,260.4-1.6,269.4,4.7,273L4.7,273z"/>
</svg>
