<?xml version="1.0" standalone="no"?>
<!DOCTYPE svg PUBLIC "-//W3C//DTD SVG 20010904//EN"
 "http://www.w3.org/TR/2001/REC-SVG-20010904/DTD/svg10.dtd">
<svg version="1.0" xmlns="http://www.w3.org/2000/svg"
 width="16.000000pt" height="16.000000pt" viewBox="0 0 16.000000 16.000000"
 preserveAspectRatio="xMidYMid meet">
<g transform="translate(0.000000,16.000000) scale(0.000781,-0.000781)"
fill="#00667a" stroke="none">
<path d="M8932 19584 c-602 -183 -1081 -668 -1255 -1273 l-24 -84 -58 79
c-113 154 -310 337 -480 447 -116 75 -288 157 -433 208 l-52 18 -34 -67 c-79
-158 -144 -371 -170 -561 -19 -136 -20 -412 -2 -531 7 -47 12 -87 10 -89 -2
-2 -25 8 -52 23 -455 260 -1060 310 -1562 130 -82 -29 -253 -109 -314 -147
l-38 -24 118 -12 c409 -41 809 -206 1129 -464 173 -140 359 -353 477 -547 114
-186 153 -333 145 -544 -5 -137 -16 -193 -67 -324 -66 -171 -50 -154 -1205
-1312 -650 -652 -1093 -1104 -1127 -1150 -205 -277 -330 -597 -367 -932 -8
-66 -11 -778 -11 -2202 0 -2282 -2 -2201 54 -2431 73 -299 227 -589 434 -820
170 -189 2944 -2950 3032 -3017 308 -237 637 -366 1015 -398 92 -8 745 -10
2230 -8 1949 3 2107 5 2195 21 345 64 618 183 880 384 89 69 2865 2832 3032
3018 218 244 373 539 442 848 47 204 46 170 46 2403 0 1439 -3 2136 -11 2202
-38 344 -162 659 -370 942 -44 60 -491 515 -1533 1559 -809 810 -1511 1507
-1561 1549 -285 240 -638 391 -1007 431 -64 7 -591 11 -1561 11 -1266 0 -1476
2 -1552 15 -359 63 -635 298 -749 638 -104 313 -113 751 -22 1111 84 331 256
661 460 884 21 23 37 44 35 46 -2 2 -55 -11 -117 -30z"/>
<path d="M15525 15530 c764 -764 1391 -1390 1392 -1390 2 0 3 626 3 1390 l0
1390 -1392 0 -1393 0 1390 -1390z"/>
<path d="M17710 14679 l0 -1344 951 -950 c848 -848 950 -946 945 -915 -3 19
-10 71 -16 115 -93 684 -295 1455 -555 2115 -246 626 -535 1179 -910 1745
-124 187 -367 527 -406 570 -5 5 -9 -555 -9 -1336z"/>
<path d="M1775 11223 l-990 -983 990 -983 990 -984 3 984 c1 540 1 1426 0
1966 l-3 984 -990 -984z"/>
<path d="M17710 10240 l0 -1972 990 983 c545 541 990 986 990 989 0 3 -445
448 -990 989 l-990 983 0 -1972z"/>
<path d="M874 9010 c3 -19 17 -114 31 -210 221 -1484 843 -2976 1750 -4192
l110 -148 3 1343 2 1342 -951 950 c-849 849 -950 946 -945 915z"/>
<path d="M18657 8092 l-947 -947 0 -1343 0 -1344 24 29 c13 15 73 96 134 179
849 1160 1432 2524 1672 3917 32 185 71 449 67 454 -2 1 -429 -424 -950 -945z"/>
<path d="M3560 4950 l0 -1390 1392 0 1393 0 -1390 1390 c-764 765 -1391 1390
-1392 1390 -2 0 -3 -625 -3 -1390z"/>
<path d="M15525 4950 l-1390 -1390 1393 0 1392 0 0 1390 c0 765 -1 1390 -3
1390 -1 0 -628 -625 -1392 -1390z"/>
<path d="M4487 2746 c66 -55 344 -254 509 -364 373 -248 674 -422 1069 -617
939 -463 1864 -744 2940 -890 38 -5 -1 35 -910 945 l-950 950 -1343 0 -1344 0
29 -24z"/>
<path d="M9251 1780 c541 -545 986 -990 989 -990 3 0 448 445 989 990 l983
990 -1972 0 -1972 0 983 -990z"/>
<path d="M12385 1819 c-849 -849 -946 -950 -915 -945 19 3 114 17 210 31 1103
164 2270 570 3240 1128 356 204 887 558 1073 713 l29 24 -1344 0 -1343 0 -950
-951z"/>
</g>
</svg>
