<?xml version="1.0" encoding="utf-8"?>
<svg version="1.1" xmlns="http://www.w3.org/2000/svg" xmlns:xlink="http://www.w3.org/1999/xlink" x="0px" y="0px"
	 viewBox="0 0 900 200" style="enable-background:new 0 0 900 200;" xml:space="preserve">
<style type="text/css">
	.st0{fill:#04677B;}
	.st1{fill:#FFFFFF;}
	.st2{fill:#CC2031;}
</style>
<path class="st0" d="M276.4,71.2c2.7-2,6.4-3,11.1-3c5,0,8.8,1.2,11.5,3.6s4.1,5.8,4.1,10.1h19.5c0-5.7-1.5-10.8-4.4-15.2
	c-2.9-4.5-7.1-7.9-12.3-10.4c-5.3-2.5-11.3-3.7-18.1-3.7c-6.7,0-12.8,1.1-18.2,3.4c-5.4,2.3-9.5,5.4-12.4,9.4s-4.3,8.6-4.3,13.7
	c0,9.9,5.4,17.7,16.1,23.5c3.9,2.1,9.3,4.3,16.1,6.5c6.8,2.2,11.5,4.3,14.1,6.3s3.9,4.8,3.9,8.5c0,3.4-1.3,6-3.9,7.9
	s-6.2,2.8-10.8,2.8c-12.5,0-18.8-5.2-18.8-15.7H250c0,6.1,1.6,11.5,4.7,16.1s7.7,8.3,13.7,11s12.6,4,20,4c10.5,0,18.8-2.3,25-7
	s9.3-11.1,9.3-19.3c0-7.4-2.5-13.6-7.6-18.5s-13.2-9.1-24.3-12.4c-6.1-1.8-10.6-3.8-13.7-5.9s-4.7-4.7-4.7-7.7
	C272.4,75.9,273.8,73.2,276.4,71.2z"/>
<path class="st0" d="M391.9,101.9c0-7.9-2.6-14.1-7.7-18.4c-5.1-4.4-12-6.5-20.7-6.5c-5.7,0-10.9,1-15.5,3s-8.2,4.7-10.7,8.2
	s-3.8,7.3-3.8,11.4h18.8c0-2.7,0.9-4.7,2.7-6.3c1.8-1.5,4.3-2.3,7.5-2.3c3.6,0,6.3,1,7.9,2.9c1.7,2,2.5,4.6,2.5,7.8v4h-8.7
	c-10.5,0-18.5,2.1-24,6.1s-8.3,9.7-8.3,17.2c0,6.1,2.3,11.1,6.8,15.1s10.3,6,17.2,6c7.3,0,13.2-2.5,17.8-7.6c0.4,2.5,1,4.6,1.9,6.3
	h19v-1.1c-1.8-3.4-2.8-8.5-2.8-15.2v-30.6H391.9z M373,128.8c-1.1,2.1-2.9,3.7-5.2,5c-2.3,1.2-4.9,1.9-7.7,1.9
	c-2.9,0-5.1-0.8-6.8-2.3c-1.7-1.5-2.5-3.4-2.5-5.8l0.1-1.1c0.6-6.5,5.6-9.8,15.1-9.8h7V128.8z"/>
<path class="st0" d="M424.8,87.9l-0.5-8.4h-17.8V150h18.8v-46.1c2.2-4.8,6.9-7.2,14-7.2c2,0,4.2,0.2,6.8,0.5l0.3-18.1
	c-1.8-0.6-3.8-0.9-5.9-0.9C433.7,78.2,428.5,81.5,424.8,87.9z"/>
<path class="st0" d="M496.7,109.5c-3.2-1.1-7.2-2.2-11.9-3.1c-4.7-0.9-8-2-10-3.3s-3-3-3-5.1c0-2.2,0.9-4.1,2.6-5.5s4.2-2.2,7.4-2.2
	c3.7,0,6.4,0.9,8.1,2.6c1.7,1.8,2.6,4,2.6,6.7h18.8c0-6.7-2.7-12.2-8-16.4c-5.4-4.2-12.5-6.3-21.4-6.3c-8.4,0-15.2,2.1-20.4,6.3
	c-5.2,4.2-7.8,9.4-7.8,15.7c0,10.7,8.4,17.8,25.1,21.4c5.1,1,8.7,2.2,11,3.6c2.3,1.3,3.4,3.1,3.4,5.4c0,2.2-0.9,4-2.8,5.4
	c-1.8,1.4-4.6,2-8.2,2c-3.8,0-6.9-0.9-9.2-2.7c-2.3-1.8-3.6-4.3-3.7-7.7h-17.8c0,4.2,1.3,8.2,3.9,11.9s6.2,6.6,10.8,8.7
	c4.6,2.1,9.8,3.1,15.7,3.1c8.7,0,15.8-2,21.4-5.9c5.5-4,8.3-9.2,8.3-15.6C511.6,119.5,506.7,113.2,496.7,109.5z"/>
<path class="st0" d="M561.1,78.2c-7.6,0-13.8,3-18.8,9V50h-18.8v100h18.8V99.9c2.5-4.2,6.5-6.3,11.9-6.3c4.1,0,6.9,1,8.7,2.9
	c1.7,1.9,2.6,4.9,2.6,9V150h18.8v-45.1C584.1,87.1,576.4,78.2,561.1,78.2z"/>
<path class="st0" d="M652.3,85.7c-6-5.8-13.8-8.7-23.3-8.7c-6.7,0-12.5,1.5-17.6,4.5s-8.9,7.2-11.6,12.7c-2.7,5.5-4,11.7-4,18.7v0.9
	c0,11.2,3,20,9.1,26.5s14.2,9.8,24.3,9.8s18.2-3.3,24.3-9.8c6-6.5,9.1-15.2,9.1-26l-0.2-4.8C661.6,99.4,658.3,91.5,652.3,85.7z
	 M639.8,129.6c-2.6,3.5-6.1,5.2-10.7,5.2c-4.7,0-8.3-1.8-10.8-5.3s-3.8-8.7-3.8-15.4c0-7.5,1.3-13,3.8-16.6s6.1-5.4,10.7-5.4
	c4.7,0,8.3,1.8,10.8,5.4c2.6,3.6,3.8,8.7,3.8,15.3C643.6,120.5,642.3,126.1,639.8,129.6z"/>
<path class="st0" d="M752.5,78.2c-9.2,0-16.2,3.6-21.2,10.8c-3.4-7.2-9.6-10.8-18.7-10.8c-8.5,0-15.3,3.1-20.3,9.2l-0.6-7.9h-17.6
	V150H693v-49.8c2.4-4.4,6.3-6.6,11.6-6.6c3.8,0,6.6,0.9,8.2,2.7c1.6,1.8,2.4,4.8,2.4,8.8V150H734l-0.1-48.4
	c2.2-5.4,6.1-8.1,11.7-8.1c3.9,0,6.7,0.9,8.3,2.7c1.6,1.8,2.3,4.8,2.3,8.8v45h18.9v-45c0-9-1.9-15.7-5.6-20.1
	C765.8,80.5,760.2,78.2,752.5,78.2z"/>
<path class="st0" d="M846.8,101.9c0-7.9-2.6-14.1-7.7-18.4c-5.1-4.4-12-6.5-20.7-6.5c-5.7,0-10.9,1-15.5,3s-8.2,4.7-10.7,8.2
	s-3.8,7.3-3.8,11.4h18.8c0-2.7,0.9-4.7,2.7-6.3c1.8-1.5,4.3-2.3,7.5-2.3c3.6,0,6.3,1,7.9,2.9c1.7,2,2.5,4.6,2.5,7.8v4h-8.7
	c-10.5,0-18.5,2.1-24,6.1s-8.3,9.7-8.3,17.2c0,6.1,2.3,11.1,6.8,15.1s10.3,6,17.2,6c7.3,0,13.2-2.5,17.8-7.6c0.4,2.5,1,4.6,1.9,6.3
	h19v-1.1c-1.8-3.4-2.8-8.5-2.8-15.2L846.8,101.9L846.8,101.9z M827.9,128.8c-1.1,2.1-2.9,3.7-5.2,5c-2.3,1.2-4.9,1.9-7.7,1.9
	c-2.9,0-5.1-0.8-6.8-2.3s-2.5-3.4-2.5-5.8l0.1-1.1c0.6-6.5,5.6-9.8,15.1-9.8h7L827.9,128.8L827.9,128.8z"/>
<path class="st0" d="M894.1,78.2c-6.7,0-11.9,3.2-15.7,9.7l-0.5-8.4h-17.8V150H879v-46.1c2.2-4.8,6.9-7.2,14-7.2
	c2,0,4.2,0.2,6.8,0.5l0.3-18.1C898.2,78.5,896.2,78.2,894.1,78.2z"/>
<circle class="st1" cx="100" cy="100" r="100"/>
<path class="st0" d="M27,130.2L8.4,111.6c2.1,16.8,8.7,32.2,18.6,44.9V130.2z"/>
<path class="st0" d="M69.8,173H43.5c12.7,9.9,28.1,16.5,44.9,18.6L69.8,173z"/>
<path class="st0" d="M173,43.5v26.3l18.6,18.6C189.5,71.6,182.9,56.2,173,43.5z"/>
<path class="st0" d="M130.2,173l-18.6,18.6c16.8-2.1,32.2-8.7,44.9-18.6H130.2z"/>
<path class="st0" d="M173,130.2v26.3c9.9-12.7,16.5-28.1,18.6-44.9L173,130.2z"/>
<polygon class="st0" points="165.3,62.1 165.3,34.7 137.9,34.7 "/>
<polygon class="st0" points="173,119.3 192.3,100 173,80.7 "/>
<polygon class="st0" points="165.3,137.9 165.3,165.3 137.9,165.3 "/>
<polygon class="st0" points="119.3,173 100,192.3 80.7,173 "/>
<polygon class="st0" points="34.7,165.3 62.1,165.3 34.7,137.9 "/>
<polygon class="st0" points="27,119.3 7.7,100 27,80.7 "/>
<path class="st2" d="M159.9,67.6l-27.4-27.4c-3.5-3.5-8.2-5.4-13.1-5.4H92.5c-4.2,0-7.9-2.8-8.9-6.9c-1.8-6.7-0.2-14.1,4.8-19.4
	c-3.2,0.8-6.3,2.4-8.8,4.9s-4.1,5.5-4.9,8.7c-0.6-0.9-1.4-1.8-2.2-2.7c-2.3-2.3-4.9-3.8-7.8-4.6c-1.4,2.6-2.2,5.6-2.2,8.8
	c0,1.2,0.1,2.3,0.3,3.4c-2.8-1.7-6.1-2.7-9.6-2.7c-3.6,0-6.9,1-9.7,2.8c7.3,0.3,13.7,4.3,17.1,10.3c2.1,3.6,1.5,8.2-1.4,11.2l-19,19
	c-3.5,3.5-5.4,8.2-5.4,13.1v38.8c0,4.9,1.9,9.6,5.4,13.1L67.6,160c3.5,3.5,8.2,5.4,13.1,5.4h38.8c4.9,0,9.6-1.9,13.1-5.4l27.4-27.4
	c3.5-3.5,5.4-8.2,5.4-13.1V80.6C165.3,75.7,163.3,71,159.9,67.6z"/>
</svg>
