<?xml version="1.0" encoding="utf-8"?>
<svg version="1.1"  xmlns="http://www.w3.org/2000/svg" xmlns:xlink="http://www.w3.org/1999/xlink" x="0px" y="0px"
	 viewBox="0 0 970.2 200" style="enable-background:new 0 0 970.2 200;" xml:space="preserve">
<style type="text/css">
	.st0{fill:#FFFFFF;}
</style>
<path class="st0" d="M321.3,125.6c0-4-1.4-7.1-4.2-9.2c-2.8-2.1-7.9-4.4-15.3-6.8c-7.4-2.4-13.2-4.7-17.5-7
	c-11.7-6.3-17.6-14.8-17.6-25.6c0-5.6,1.6-10.6,4.7-14.9c3.1-4.4,7.6-7.8,13.5-10.2c5.9-2.5,12.5-3.7,19.8-3.7
	c7.4,0,13.9,1.3,19.7,4c5.8,2.7,10.2,6.4,13.4,11.3c3.2,4.9,4.8,10.4,4.8,16.6h-21.2c0-4.7-1.5-8.4-4.5-11c-3-2.6-7.2-3.9-12.5-3.9
	c-5.2,0-9.2,1.1-12.1,3.3c-2.9,2.2-4.3,5.1-4.3,8.7c0,3.4,1.7,6.2,5.1,8.4c3.4,2.3,8.4,4.4,14.9,6.4c12.1,3.6,20.8,8.1,26.4,13.5
	c5.5,5.4,8.3,12.1,8.3,20.1c0,8.9-3.4,15.9-10.2,21c-6.8,5.1-15.8,7.6-27.2,7.6c-8,0-15.2-1.5-21.7-4.4c-6.5-2.9-11.5-6.9-14.9-11.9
	c-3.4-5-5.1-10.9-5.1-17.5h21.3c0,11.4,6.8,17,20.4,17c5,0,9-1,11.8-3.1C319.9,132.1,321.3,129.2,321.3,125.6z"/>
<path class="st0" d="M400.2,152.6c-0.9-1.8-1.6-4.1-2-6.8c-5,5.5-11.4,8.3-19.3,8.3c-7.5,0-13.8-2.2-18.7-6.5
	c-4.9-4.3-7.4-9.8-7.4-16.4c0-8.1,3-14.3,9-18.7c6-4.3,14.7-6.5,26.1-6.6h9.4v-4.4c0-3.5-0.9-6.4-2.7-8.5c-1.8-2.1-4.7-3.2-8.6-3.2
	c-3.4,0-6.1,0.8-8.1,2.5c-2,1.7-3,3.9-3,6.8h-20.5c0-4.4,1.4-8.6,4.1-12.3c2.7-3.8,6.6-6.7,11.6-8.9c5-2.1,10.6-3.2,16.8-3.2
	c9.4,0,16.9,2.4,22.5,7.1c5.6,4.7,8.3,11.4,8.3,20v33.2c0,7.3,1.1,12.8,3,16.5v1.2H400.2z M383.2,138.4c3,0,5.8-0.7,8.4-2
	c2.5-1.3,4.4-3.1,5.7-5.4v-13.2h-7.7c-10.3,0-15.7,3.5-16.4,10.6l-0.1,1.2c0,2.5,0.9,4.6,2.7,6.3
	C377.7,137.5,380.1,138.4,383.2,138.4z"/>
<path class="st0" d="M476.7,96.5c-2.8-0.4-5.2-0.5-7.4-0.5c-7.7,0-12.8,2.6-15.2,7.8V154h-20.5V77.3H453l0.6,9.1
	c4.1-7,9.8-10.5,17-10.5c2.3,0,4.4,0.3,6.4,0.9L476.7,96.5z"/>
<path class="st0" d="M528.2,131.4c0-2.5-1.2-4.5-3.7-5.9c-2.5-1.4-6.5-2.7-12-3.9c-18.2-3.8-27.3-11.6-27.3-23.2
	c0-6.8,2.8-12.5,8.5-17c5.6-4.6,13-6.8,22.1-6.8c9.7,0,17.5,2.3,23.3,6.9c5.8,4.6,8.7,10.5,8.7,17.9h-20.5c0-3-0.9-5.4-2.8-7.3
	c-1.9-1.9-4.8-2.9-8.8-2.9c-3.5,0-6.2,0.8-8,2.3c-1.9,1.6-2.8,3.5-2.8,6c0,2.3,1.1,4.1,3.2,5.5c2.2,1.4,5.8,2.6,10.9,3.6
	c5.1,1,9.4,2.1,12.9,3.4c10.8,4,16.2,10.9,16.2,20.7c0,7-3,12.6-9,16.9s-13.7,6.5-23.2,6.5c-6.4,0-12.1-1.1-17.1-3.4
	c-5-2.3-8.9-5.4-11.7-9.4c-2.8-4-4.2-8.3-4.2-12.9h19.4c0.2,3.6,1.6,6.4,4.1,8.3c2.5,1.9,5.9,2.9,10,2.9c3.9,0,6.9-0.7,8.9-2.2
	C527.2,135.8,528.2,133.8,528.2,131.4z"/>
<path class="st0" d="M581.4,85.7c5.4-6.5,12.2-9.8,20.5-9.8c16.6,0,25,9.7,25.3,29V154h-20.5v-48.5c0-4.4-0.9-7.7-2.8-9.7
	c-1.9-2.1-5-3.1-9.4-3.1c-6,0-10.3,2.3-13,6.9V154h-20.5V45.2h20.5V85.7z"/>
<path class="st0" d="M639.5,113.6c0-7.6,1.5-14.4,4.4-20.3c2.9-5.9,7.1-10.6,12.6-13.8c5.5-3.3,11.9-4.9,19.1-4.9
	c10.4,0,18.8,3.2,25.4,9.5c6.5,6.3,10.2,14.9,10.9,25.8l0.2,5.2c0,11.8-3.3,21.2-9.9,28.3c-6.6,7.1-15.4,10.6-26.4,10.6
	c-11,0-19.9-3.5-26.4-10.6c-6.6-7.1-9.9-16.7-9.9-28.9V113.6z M660,115c0,7.3,1.4,12.9,4.1,16.7c2.7,3.8,6.6,5.8,11.8,5.8
	c5,0,8.8-1.9,11.6-5.7c2.8-3.8,4.2-9.9,4.2-18.2c0-7.1-1.4-12.7-4.2-16.6c-2.8-3.9-6.7-5.9-11.8-5.9c-5,0-8.9,2-11.6,5.9
	C661.3,100.8,660,106.9,660,115z"/>
<path class="st0" d="M744,77.3l0.6,8.6c5.5-6.7,12.8-10,22.1-10c9.9,0,16.6,3.9,20.3,11.7c5.4-7.8,13.1-11.7,23-11.7
	c8.3,0,14.5,2.4,18.5,7.3c4.1,4.8,6.1,12.1,6.1,21.9V154h-20.5v-48.8c0-4.4-0.8-7.5-2.5-9.5c-1.7-2-4.7-3-9-3
	c-6.2,0-10.4,2.9-12.8,8.8l0.1,52.6h-20.5v-48.8c0-4.4-0.9-7.7-2.6-9.6c-1.8-2-4.7-3-8.9-3c-5.8,0-10,2.4-12.6,7.2V154h-20.5V77.3
	H744z"/>
<path class="st0" d="M894.9,152.6c-0.9-1.8-1.6-4.1-2-6.8c-5,5.5-11.4,8.3-19.3,8.3c-7.5,0-13.8-2.2-18.7-6.5
	c-4.9-4.3-7.4-9.8-7.4-16.4c0-8.1,3-14.3,9-18.7s14.7-6.5,26.1-6.6h9.4v-4.4c0-3.5-0.9-6.4-2.7-8.5c-1.8-2.1-4.7-3.2-8.6-3.2
	c-3.4,0-6.1,0.8-8.1,2.5c-2,1.7-3,3.9-3,6.8h-20.5c0-4.4,1.4-8.6,4.1-12.3c2.7-3.8,6.6-6.7,11.6-8.9c5-2.1,10.6-3.2,16.8-3.2
	c9.4,0,16.9,2.4,22.5,7.1c5.6,4.7,8.3,11.4,8.3,20v33.2c0,7.3,1.1,12.8,3,16.5v1.2H894.9z M878,138.4c3,0,5.8-0.7,8.4-2
	c2.5-1.3,4.4-3.1,5.7-5.4v-13.2h-7.7c-10.3,0-15.7,3.5-16.4,10.6l-0.1,1.2c0,2.5,0.9,4.6,2.7,6.3C872.4,137.5,874.9,138.4,878,138.4
	z"/>
<path class="st0" d="M970.2,96.5c-2.8-0.4-5.2-0.5-7.4-0.5c-7.7,0-12.8,2.6-15.2,7.8V154h-20.5V77.3h19.4l0.6,9.1
	c4.1-7,9.8-10.5,17-10.5c2.3,0,4.4,0.3,6.4,0.9L970.2,96.5z"/>
<path class="st0" d="M21,132.5L0.8,112.2c2.3,18.3,9.5,35,20.3,48.9V132.5z"/>
<path class="st0" d="M67.5,179H38.9c13.9,10.8,30.6,18,48.9,20.3L67.5,179z"/>
<path class="st0" d="M179.7,38.1v28.6L200,87C197.7,68.7,190.5,52,179.7,38.1z"/>
<path class="st0" d="M133.3,179L113,199.2c18.3-2.3,35-9.5,48.9-20.3H133.3z"/>
<path class="st0" d="M179.7,132.5v28.6c10.8-13.9,18-30.6,20.3-48.9L179.7,132.5z"/>
<polygon class="st0" points="171.4,58.4 171.4,28.6 141.6,28.6 "/>
<polygon class="st0" points="179.7,120.6 200.8,99.6 179.7,78.6 "/>
<polygon class="st0" points="171.4,140.8 171.4,170.6 141.6,170.6 "/>
<polygon class="st0" points="121.4,179 100.4,200 79.4,179 "/>
<polygon class="st0" points="29.4,170.6 59.2,170.6 29.4,140.8 "/>
<polygon class="st0" points="21,120.6 0,99.6 21,78.6 "/>
<path class="st0" d="M165.5,64.3l-29.8-29.8c-3.8-3.8-8.9-5.9-14.2-5.9H92.2c-4.6,0-8.5-3.1-9.7-7.5C80.6,13.9,82.4,5.9,87.8,0
	c-3.5,0.8-6.9,2.6-9.6,5.3c-2.7,2.7-4.5,6-5.3,9.4c-0.7-1-1.5-2-2.4-2.9C68,9.4,65.1,7.8,62,6.8c-1.5,2.8-2.4,6.1-2.4,9.6
	c0,1.3,0.1,2.5,0.4,3.7c-3-1.9-6.6-2.9-10.4-2.9c-3.9,0-7.5,1.1-10.6,3c8,0.3,14.9,4.7,18.7,11.2c2.3,3.9,1.7,8.9-1.6,12.2
	L35.3,64.3c-3.8,3.8-5.9,8.9-5.9,14.2v42.2c0,5.3,2.1,10.4,5.9,14.2l29.8,29.8c3.8,3.8,8.9,5.9,14.2,5.9l42.2,0
	c5.3,0,10.4-2.1,14.2-5.9l29.8-29.8c3.8-3.8,5.9-8.9,5.9-14.2V78.5C171.4,73.2,169.3,68.1,165.5,64.3z"/>
</svg>
