<?xml version="1.0" encoding="utf-8"?>
<svg version="1.1"  xmlns="http://www.w3.org/2000/svg" xmlns:xlink="http://www.w3.org/1999/xlink" x="0px" y="0px"
	 viewBox="0 0 550 200" style="enable-background:new 0 0 550 200;" xml:space="preserve">
<style type="text/css">
	.st0{fill:#00677A;}
	.st1{fill:#FFFFFF;}
	.st2{fill:#04677B;}
	.st3{fill:#CC2031;}
</style>
<path class="st0" d="M299.5,97.2c-0.3-1.8-0.7-3.5-1.2-5.2s-1-3.3-1.6-4.9s-1.1-3-1.7-4.2c-0.5-1.2-1-2.3-1.4-3.2
	c-0.4-0.9-0.7-1.5-0.9-1.9l-10.4,5.7c0.5,1,1.1,2.3,1.9,3.8c0.7,1.5,1.4,3.1,2.1,4.7c0.7,1.7,1.2,3.4,1.7,5.1s0.7,3.3,0.7,4.7
	c0,0.8-0.2,1.5-0.6,2.2s-0.9,1.2-1.6,1.7c-0.6,0.5-1.4,0.8-2.2,1.1c-0.8,0.3-1.6,0.4-2.4,0.4c-1.3,0-2.3-0.3-3-1s-1.2-1.5-1.5-2.5
	s-0.5-2.2-0.5-3.5s0.1-2.6,0.2-4c0.1-1.3,0.3-2.6,0.5-3.8c0.2-1.2,0.3-2.2,0.3-3l-10.6-1.8c-0.2,1.1-0.4,2.4-0.6,3.8
	c-0.3,1.4-0.6,2.8-1,4.2c-0.4,1.4-0.9,2.8-1.4,4.1c-0.6,1.3-1.2,2.5-1.9,3.6c-0.7,1.1-1.5,1.9-2.4,2.6s-1.9,1.1-3,1.1
	c-0.9,0.1-1.5-0.1-1.9-0.6c-0.4-0.6-0.7-1.3-0.8-2.3s-0.1-2.1,0.1-3.4c0.2-1.3,0.4-2.6,0.6-4c0.3-1.4,0.6-2.7,0.9-3.9
	c0.3-1.3,0.6-2.4,0.8-3.3l-11.1-2c-0.6,2.4-1.3,4.7-2.1,7c-0.7,2.3-1.6,4.3-2.6,6.1c-1,1.8-2.3,3.2-3.7,4.3
	c-1.4,1.1-10.1,1.7-12.2,1.7c-0.1,0-0.1,0-0.2,0c-0.1,0-0.2,0-0.4,0h-0.2c-1.1,0-2.1-0.3-3-0.8s-1.9-1.4-2.8-2.8
	c-0.9-1.3-1.9-3-2.9-5.2s-2-4.9-3.1-8.2l-12.1,5.1c0.9,2,1.7,3.8,2.4,5.4s1.4,3.2,1.9,4.7s1,3,1.4,4.4s0.6,2.9,0.8,4.5l0,0
	c0-0.1,0-0.1,0,0s0,0.2,0,0.4c0,0.2,0,0.3,0,0.5s0,0.3,0,0.4c0,1.6-0.3,3.2-1,4.7c-0.7,1.6-1.6,3.1-2.8,4.6s-2.5,2.9-4.1,4.3
	s-3.3,2.7-5.1,4s-3.7,2.5-5.8,3.7c-2,1.2-4,2.2-6,3.2l7.7,10.3c3.6-1.8,7-3.8,10.2-6s6-4.7,8.5-7.3s4.6-5.5,6.3-8.5s2.8-6.2,3.5-9.6
	c1.3,0.5,2.5,0.8,3.6,0.9s2,0.1,2.6,0.1c0.1,0,0.2,0,0.2,0c0.1,0,0.2,0,0.3,0.1h7.7c1.8,0,3.4-0.1,4.8-0.4c1.4-0.3,2.6-0.6,3.6-1.1
	s1.9-1,2.7-1.6s1.4-1.3,2-2c0.6,0.8,1.3,1.6,2.1,2.3c0.7,0.7,1.6,1.3,2.5,1.8s1.9,0.9,3,1.1c1.1,0.3,2.3,0.4,3.7,0.3
	c1.6,0,3-0.2,4.2-0.4c1.2-0.3,2.3-0.6,3.3-1.1s1.9-1,2.6-1.7c0.8-0.7,1.5-1.4,2.2-2.3c0.6,0.8,1.3,1.5,2,2.2
	c0.8,0.7,1.6,1.3,2.6,1.8s2.1,0.9,3.3,1.2c1.2,0.3,2.6,0.4,4.1,0.4c3.1,0,5.9-0.5,8.2-1.3c2.3-0.8,4.3-2,5.8-3.5s2.7-3.4,3.5-5.5
	c0.8-2.2,1.2-4.6,1.2-7.3C300,100.7,299.8,99,299.5,97.2z"/>
<path class="st0" d="M37.5,104.4c-0.3-1.4-0.6-2.7-0.9-4.1c-0.3-1.4-0.7-2.7-1-4c-0.8-2.9-1.8-5.9-2.9-8.9L20.1,93
	c0.9,2,1.7,3.9,2.5,5.7c0.8,1.8,1.5,3.5,2,5.1c0.6,1.6,1,3.1,1.3,4.5s0.5,2.7,0.5,3.9c0,1.6-0.4,3.3-1.1,5s-1.7,3.4-3,5.1
	s-2.7,3.3-4.4,4.9c-1.7,1.6-3.5,3.1-5.5,4.6s-4,2.8-6.1,4.1s-4.2,2.4-6.3,3.5L7.9,150c2.8-1.3,5.4-2.8,8-4.5s5-3.4,7.3-5.4
	c2.3-1.9,4.3-4,6.2-6.2c1.9-2.2,3.5-4.5,4.8-6.8c1.3-2.4,2.4-4.8,3.1-7.3c0.7-2.5,1.1-5.1,1.1-7.8c0-1.1-0.1-2.3-0.3-3.7
	C38,107.1,37.8,105.7,37.5,104.4z"/>
<path class="st0" d="M187.3,109.4c0.8-2.3,1.2-4.8,1.2-7.6c0-1.7-0.2-3.5-0.5-5.3s-0.7-3.6-1.2-5.4s-1-3.4-1.6-5.1
	c-0.6-1.6-1.2-3.1-1.7-4.4c-0.6-1.3-1-2.4-1.5-3.3c-0.4-0.9-0.7-1.6-0.9-1.9l-10.8,5.9c0.5,1.1,1.2,2.4,1.9,3.9
	c0.8,1.6,1.5,3.2,2.2,4.9c0.7,1.7,1.3,3.5,1.8,5.3s0.7,3.4,0.7,4.8c0,0.8-0.2,1.6-0.6,2.3c-0.4,0.7-1,1.3-1.6,1.8
	c-0.7,0.5-1.4,0.9-2.3,1.1c-0.8,0.3-1.7,0.4-2.5,0.4c-1.3,0-2.4-0.3-3.1-1c-0.7-0.7-1.3-1.6-1.6-2.6c-0.3-1.1-0.5-2.3-0.5-3.7
	c0-1.4,0.1-2.7,0.2-4.1c0.1-1.4,0.3-2.7,0.5-3.9c0.2-1.2,0.3-2.3,0.3-3.1l-11-1.8c-0.2,1.2-0.4,2.5-0.7,3.9s-0.6,2.9-1,4.4
	s-0.9,2.9-1.5,4.3s-1.2,2.6-2,3.7s-1.6,2-2.5,2.7s-2,1.1-3.2,1.2c-0.9,0.1-1.6-0.1-2-0.7s-0.7-1.4-0.8-2.4s-0.1-2.2,0.1-3.5
	c0.2-1.3,0.4-2.7,0.7-4.1s0.6-2.8,0.9-4.1c0.3-1.3,0.6-2.5,0.8-3.5l-11.6-2c-0.7,2.5-1.4,4.9-2.1,7.3c-0.8,2.4-1.7,4.5-2.7,6.4
	c-1.1,1.9-2.4,3.4-3.8,4.5c-1.5,1.1-3.3,1.7-5.5,1.7h-0.1c-0.1,0-0.1,0-0.2,0c-0.8,0-1.4-0.4-2-1.3c-0.4-0.7-0.8-1.7-1.1-2.9
	c-0.3-1.4-0.6-2.8-0.6-4.2c0-0.2,0-0.4-0.1-0.6V97c-0.5-5.5-2.6-9.8-6.3-12.9c-3.3-2.8-7-4.1-11.3-4.1c-5.9,0-10.7,3.8-14.7,11.3
	l-0.6,1.2L80,93.7c-0.6,1.1-1,1.9-1.3,2.5c-1.1,2-2.1,3.7-3,5c-2.4,3.1-5.1,4.8-8.2,5.2c-0.3-0.1-0.7-0.1-1-0.1h-0.4
	c-0.8,0-1.4,0-2.1,0c-0.6,0-1.2-0.1-1.7-0.3c-0.5-0.2-1-0.4-1.4-0.7c-0.4-0.3-0.7-0.8-1-1.5c-0.7-1.7-1.1-3.5-1.2-5.3
	c-0.1-1.8-0.1-3.7,0-5.6S59,89,59.2,87s0.3-4.1,0.2-6.2c0-2.4-0.1-5-0.2-7.8c-0.1-2.8-0.2-5.6-0.3-8.3c-0.2-2.8-0.4-5.4-0.6-7.9
	c-0.2-2.5-0.5-4.7-0.9-6.6l-13,3.9c0.4,2.2,0.8,4.7,1,7.7c0.2,2.9,0.4,6,0.6,9.2c0.1,3.2,0.2,6.4,0.2,9.5c0,3.2,0,6.1,0,8.8
	c0,2.7,0,5-0.1,6.9c0,2-0.1,3.5-0.1,4.5v0.6c0,0.8,0,1.7,0.1,2.8c0,1.1,0.2,2.2,0.5,3.4c0.3,1.2,0.7,2.4,1.3,3.7
	c0.6,1.2,1.5,2.4,2.7,3.6c1.9,1.8,4.1,3.1,6.6,4c2.1,0.7,4.6,1.1,7.5,1.2c0.5,0.1,0.9,0.1,1.5,0.1c2.6,0,5-0.3,7.1-1
	c1.7-0.5,3.2-1.3,4.5-2.2c1.5-1.1,2.5-2.2,3-3.3c8.1,4.2,14.3,6.3,18.6,6.3c3.7,0,6.7-1.2,9.1-3.5c2.2,2.4,5.2,3.6,8.8,3.6
	c0.1,0,0.3,0,0.4,0h0.8c1.9,0,3.5-0.1,5-0.4c1.4-0.3,2.7-0.7,3.7-1.1c1.1-0.5,2-1,2.8-1.7c0.8-0.6,1.5-1.3,2.1-2.1
	c0.7,0.9,1.4,1.7,2.2,2.4c0.8,0.7,1.6,1.3,2.6,1.8s2,0.9,3.2,1.2c1.1,0.3,2.4,0.4,3.8,0.4c1.6,0,3.1-0.2,4.3-0.5
	c1.3-0.3,2.4-0.7,3.5-1.2c1-0.5,1.9-1.1,2.7-1.8c0.8-0.7,1.5-1.5,2.2-2.4c0.6,0.8,1.3,1.5,2.1,2.2s1.7,1.3,2.7,1.8s2.2,0.9,3.4,1.2
	c1.3,0.3,2.7,0.4,4.3,0.4c3.2,0,6.1-0.5,8.5-1.4s4.4-2.1,6-3.7C185.3,113.6,186.5,111.7,187.3,109.4z M104,104.1
	c-0.2,2.1-0.7,3.3-1.7,3.5c-1.7,0.4-6.2-1.4-13.5-5.5c2.5-5.8,4.4-8.9,5.7-9.4c0.9-0.4,2.3,0,4.1,1.2c1.8,1.2,3.2,2.6,4.1,4.2
	C103.7,99.9,104.1,101.9,104,104.1z"/>
<polygon class="st0" points="158.5,69.3 166.8,77.3 175.1,69.1 166.7,61 158.5,68.9 150.2,60.9 141.9,69 150.3,77.2 "/>
<polygon class="st0" points="166.3,57.8 158.5,50.3 150.8,57.8 158.6,65.4 "/>
<circle class="st1" cx="450" cy="100" r="100"/>
<path class="st2" d="M377,130.2l-18.6-18.6c2.1,16.8,8.7,32.2,18.6,44.9V130.2z"/>
<path class="st2" d="M419.8,173h-26.3c12.7,9.9,28.1,16.5,44.9,18.6L419.8,173z"/>
<path class="st2" d="M523,43.5v26.3l18.6,18.6C539.5,71.6,532.9,56.2,523,43.5z"/>
<path class="st2" d="M480.2,173l-18.6,18.6c16.8-2.1,32.2-8.7,44.9-18.6H480.2z"/>
<path class="st2" d="M523,130.2v26.3c9.9-12.7,16.5-28.1,18.6-44.9L523,130.2z"/>
<polygon class="st2" points="515.3,62.1 515.3,34.7 487.9,34.7 "/>
<polygon class="st2" points="523,119.3 542.3,100 523,80.7 "/>
<polygon class="st2" points="515.3,137.9 515.3,165.3 487.9,165.3 "/>
<polygon class="st2" points="469.3,173 450,192.3 430.7,173 "/>
<polygon class="st2" points="384.7,165.3 412.1,165.3 384.7,137.9 "/>
<polygon class="st2" points="377,119.3 357.7,100 377,80.7 "/>
<path class="st3" d="M509.9,67.6l-27.4-27.4c-3.5-3.5-8.2-5.4-13.1-5.4h-26.9c-4.2,0-7.9-2.8-8.9-6.9c-1.8-6.7-0.2-14.1,4.8-19.4
	c-3.2,0.8-6.3,2.4-8.8,4.9s-4.1,5.5-4.9,8.7c-0.6-0.9-1.4-1.8-2.2-2.7c-2.3-2.3-4.9-3.8-7.8-4.6c-1.4,2.6-2.2,5.6-2.2,8.8
	c0,1.2,0.1,2.3,0.3,3.4c-2.8-1.7-6.1-2.7-9.6-2.7c-3.6,0-6.9,1-9.7,2.8c7.3,0.3,13.7,4.3,17.1,10.3c2.1,3.6,1.5,8.2-1.4,11.2l-19,19
	c-3.5,3.5-5.4,8.2-5.4,13.1v38.8c0,4.9,1.9,9.6,5.4,13.1l27.4,27.4c3.5,3.5,8.2,5.4,13.1,5.4h38.8c4.9,0,9.6-1.9,13.1-5.4l27.4-27.4
	c3.5-3.5,5.4-8.2,5.4-13.1V80.6C515.3,75.7,513.3,71,509.9,67.6z"/>
</svg>
