<?xml version="1.0" encoding="utf-8"?>
<svg version="1.1"  xmlns="http://www.w3.org/2000/svg" xmlns:xlink="http://www.w3.org/1999/xlink" x="0px" y="0px"
	 viewBox="0 0 589.8 200" style="enable-background:new 0 0 589.8 200;" xml:space="preserve">
<style type="text/css">
	.st0{fill:#1E1E1E;}
</style>
<path class="st0" d="M324.5,91.4c-0.5-1.8-1.1-3.6-1.7-5.3c-0.6-1.7-1.2-3.2-1.8-4.6c-0.6-1.4-1.1-2.5-1.5-3.5c-0.5-1-0.8-1.6-1-2
	l-11.3,6.2c0.5,1.1,1.2,2.5,2,4.1c0.8,1.6,1.6,3.3,2.3,5.2s1.4,3.6,1.9,5.5c0.5,1.8,0.8,3.5,0.8,5.1c0,0.9-0.2,1.7-0.7,2.4
	c-0.4,0.7-1,1.3-1.7,1.8c-0.7,0.5-1.5,0.9-2.4,1.2c-0.9,0.3-1.7,0.4-2.6,0.4c-1.4,0-2.5-0.4-3.3-1.1c-0.8-0.7-1.3-1.6-1.7-2.8
	c-0.3-1.1-0.5-2.4-0.5-3.9c0-1.4,0.1-2.9,0.2-4.3c0.2-1.4,0.3-2.8,0.5-4.1c0.2-1.3,0.3-2.4,0.3-3.3l-11.6-1.9
	c-0.2,1.2-0.4,2.6-0.7,4.1c-0.3,1.5-0.7,3-1.1,4.6c-0.4,1.5-1,3-1.6,4.5c-0.6,1.4-1.3,2.7-2.1,3.9c-0.8,1.2-1.7,2.1-2.7,2.8
	c-1,0.7-2.1,1.2-3.3,1.2c-0.9,0.1-1.6-0.1-2.1-0.7c-0.5-0.6-0.7-1.4-0.8-2.5c-0.1-1.1-0.1-2.3,0.1-3.7c0.2-1.4,0.4-2.8,0.7-4.3
	c0.3-1.5,0.6-2.9,1-4.3c0.3-1.4,0.6-2.6,0.9-3.6l-12.1-2.1c-0.7,2.6-1.4,5.1-2.2,7.6c-0.8,2.5-1.7,4.7-2.9,6.7c-1.1,2-2.5,3.5-4,4.7
	c-1.6,1.2-11,1.8-13.3,1.8c-0.1,0-0.1,0-0.2,0c-0.1,0-0.2,0-0.4,0h-0.2c-1.2,0-2.2-0.3-3.3-0.9c-1-0.6-2.1-1.6-3.1-3
	c-1-1.4-2.1-3.3-3.1-5.7c-1.1-2.4-2.2-5.3-3.4-8.9l-13.2,5.6c1,2.1,1.9,4.1,2.6,5.9c0.8,1.8,1.5,3.5,2.1,5.1
	c0.6,1.6,1.1,3.2,1.5,4.8c0.4,1.6,0.7,3.2,0.9,4.9v0c0-0.1,0-0.1,0,0c0,0.1,0,0.2,0,0.4c0,0.2,0,0.4,0,0.5c0,0.2,0,0.3,0,0.4
	c0,1.7-0.4,3.5-1.1,5.2c-0.7,1.7-1.7,3.4-3,5c-1.3,1.6-2.8,3.2-4.5,4.7c-1.7,1.5-3.6,3-5.6,4.4c-2,1.4-4.1,2.7-6.3,4
	c-2.2,1.3-4.4,2.4-6.5,3.5l8.3,11.2c3.9-1.9,7.6-4.1,11.1-6.5c3.5-2.4,6.5-5.1,9.2-8c2.7-2.9,5-6,6.8-9.3c1.8-3.3,3.1-6.8,3.8-10.4
	c1.4,0.6,2.7,0.9,3.9,1c1.2,0.1,2.2,0.1,2.8,0.1c0.1,0,0.1,0,0.2,0c0.1,0,0.3,0.1,0.4,0.1h8.3c2,0,3.7-0.1,5.2-0.4
	c1.5-0.3,2.8-0.7,3.9-1.2c1.1-0.5,2.1-1.1,2.9-1.8c0.8-0.7,1.5-1.4,2.2-2.1c0.7,0.9,1.4,1.8,2.3,2.5c0.8,0.8,1.7,1.4,2.7,1.9
	c1,0.5,2.1,0.9,3.3,1.2c1.2,0.3,2.5,0.4,4,0.4c1.7,0,3.2-0.2,4.6-0.5c1.3-0.3,2.5-0.7,3.6-1.2c1.1-0.5,2-1.1,2.9-1.9
	c0.8-0.7,1.6-1.5,2.3-2.5c0.6,0.8,1.4,1.6,2.2,2.3c0.8,0.7,1.8,1.4,2.8,1.9c1.1,0.5,2.3,1,3.6,1.3c1.3,0.3,2.8,0.5,4.5,0.5
	c3.4,0,6.4-0.5,8.9-1.4c2.5-0.9,4.6-2.2,6.3-3.9c1.7-1.7,2.9-3.7,3.8-6c0.8-2.4,1.3-5,1.3-8c0-1.8-0.2-3.7-0.5-5.6
	C325.4,95.1,325,93.2,324.5,91.4z"/>
<path class="st0" d="M40.8,104.8c-0.3-1.5-0.6-3-1-4.5c-0.4-1.5-0.8-2.9-1.1-4.3c-0.9-3.2-1.9-6.4-3.1-9.7l-13.7,6.1
	c1,2.2,1.9,4.3,2.7,6.2c0.9,2,1.6,3.8,2.2,5.5c0.6,1.7,1.1,3.4,1.5,4.9c0.4,1.5,0.5,2.9,0.5,4.2c0,1.8-0.4,3.6-1.2,5.5
	c-0.8,1.9-1.9,3.7-3.2,5.5c-1.4,1.8-3,3.6-4.8,5.3c-1.8,1.8-3.8,3.4-6,5c-2.1,1.6-4.4,3.1-6.7,4.5c-2.3,1.4-4.6,2.6-6.9,3.8
	l8.6,11.7c3-1.4,5.9-3.1,8.7-4.9c2.8-1.8,5.4-3.7,7.9-5.8c2.5-2.1,4.7-4.3,6.7-6.7c2-2.4,3.8-4.9,5.2-7.4c1.5-2.6,2.6-5.2,3.4-8
	c0.8-2.7,1.2-5.6,1.2-8.5c0-1.2-0.1-2.6-0.3-4C41.3,107.7,41.1,106.2,40.8,104.8z"/>
<path class="st0" d="M203.7,110.2c0.9-2.5,1.3-5.2,1.3-8.3c0-1.9-0.2-3.8-0.5-5.8c-0.3-2-0.8-3.9-1.3-5.8c-0.5-1.9-1.1-3.7-1.8-5.5
	c-0.6-1.8-1.3-3.4-1.9-4.8c-0.6-1.4-1.1-2.6-1.6-3.6c-0.5-1-0.8-1.7-1-2.1l-11.7,6.4c0.6,1.2,1.3,2.6,2.1,4.3
	c0.8,1.7,1.6,3.5,2.4,5.4c0.8,1.9,1.4,3.8,1.9,5.7c0.5,1.9,0.8,3.7,0.8,5.3c0,0.9-0.2,1.8-0.7,2.5c-0.5,0.7-1,1.4-1.8,1.9
	c-0.7,0.5-1.5,1-2.5,1.2c-0.9,0.3-1.8,0.4-2.7,0.4c-1.5,0-2.6-0.4-3.4-1.1c-0.8-0.7-1.4-1.7-1.7-2.9c-0.3-1.2-0.5-2.5-0.5-4
	c0-1.5,0.1-3,0.2-4.5c0.2-1.5,0.3-2.9,0.5-4.3c0.2-1.4,0.3-2.5,0.3-3.4l-12-2c-0.2,1.3-0.4,2.7-0.7,4.3c-0.3,1.6-0.7,3.1-1.1,4.7
	c-0.5,1.6-1,3.1-1.6,4.7c-0.6,1.5-1.4,2.9-2.2,4.1c-0.8,1.2-1.7,2.2-2.8,2.9c-1,0.8-2.2,1.2-3.4,1.3c-1,0.2-1.7-0.1-2.2-0.7
	c-0.5-0.6-0.8-1.5-0.9-2.6c-0.1-1.1-0.1-2.4,0.1-3.8c0.2-1.5,0.4-3,0.7-4.5c0.3-1.5,0.6-3,1-4.4c0.4-1.4,0.7-2.7,0.9-3.8l-12.6-2.2
	c-0.7,2.7-1.5,5.4-2.3,7.9c-0.8,2.6-1.8,4.9-3,6.9c-1.2,2-2.6,3.7-4.2,4.9c-1.6,1.2-3.6,1.9-6,1.9c0,0-0.1,0-0.1,0
	c-0.1,0-0.1,0-0.2,0c-0.8,0-1.5-0.5-2.2-1.4c-0.5-0.8-0.9-1.8-1.2-3.1c-0.4-1.5-0.6-3.1-0.7-4.6c0-0.2,0-0.5-0.1-0.6l0-0.4
	c-0.5-6-2.8-10.6-6.9-14c-3.6-3-7.7-4.5-12.3-4.5c-6.4,0-11.7,4.1-15.9,12.3l-0.7,1.3L87,93.1c-0.6,1.2-1.1,2.1-1.4,2.8
	c-1.2,2.2-2.3,4-3.3,5.4c-2.7,3.5-5.8,5.3-9.4,5.6c-0.2,0-0.4-0.1-0.7-0.1h-0.4c-0.8,0-1.6,0-2.2,0c-0.7,0-1.3-0.1-1.9-0.3
	c-0.6-0.2-1.1-0.4-1.5-0.8c-0.4-0.4-0.8-0.9-1.1-1.6c-0.7-1.9-1.2-3.8-1.3-5.8c-0.1-2-0.2-4,0-6.1c0.1-2.1,0.3-4.3,0.5-6.4
	c0.2-2.2,0.3-4.4,0.3-6.7c0-2.6-0.1-5.4-0.2-8.5c-0.1-3-0.2-6.1-0.4-9.1c-0.2-3-0.4-5.9-0.6-8.6c-0.3-2.7-0.6-5.1-1-7.2l-14.1,4.2
	c0.5,2.4,0.8,5.1,1.1,8.3c0.3,3.2,0.5,6.5,0.6,10c0.1,3.5,0.2,6.9,0.3,10.4c0,3.5,0,6.6,0,9.5c0,2.9,0,5.4-0.1,7.5
	c0,2.1-0.1,3.8-0.1,4.9v0.7c0,0.8,0,1.8,0.1,3c0,1.2,0.2,2.4,0.5,3.7c0.3,1.3,0.8,2.6,1.5,4c0.7,1.4,1.6,2.6,2.9,3.9
	c2,1.9,4.4,3.4,7.2,4.3c2.3,0.8,5,1.2,8.1,1.3c0.5,0.1,1,0.1,1.6,0.1c2.9,0,5.5-0.4,7.8-1.1c1.8-0.6,3.5-1.4,4.9-2.4
	c1.6-1.2,2.7-2.4,3.3-3.5c8.8,4.5,15.6,6.8,20.2,6.8c4,0,7.3-1.3,9.9-3.8c2.5,2.6,5.7,4,9.7,4h0c0,0,0,0,0,0c0.1,0,0.2,0,0.3,0h0.9
	c2,0,3.8-0.2,5.4-0.5c1.5-0.3,2.9-0.7,4.1-1.2c1.2-0.5,2.2-1.1,3-1.8c0.9-0.7,1.6-1.4,2.3-2.2c0.7,1,1.5,1.8,2.3,2.6
	c0.8,0.8,1.8,1.5,2.8,2c1,0.6,2.2,1,3.4,1.3c1.2,0.3,2.6,0.4,4.2,0.4c1.8,0,3.3-0.2,4.7-0.5c1.4-0.3,2.6-0.7,3.8-1.3
	c1.1-0.5,2.1-1.2,3-1.9c0.9-0.8,1.7-1.6,2.4-2.6c0.7,0.9,1.4,1.7,2.3,2.4c0.9,0.8,1.9,1.4,3,2c1.1,0.6,2.3,1,3.7,1.3
	c1.4,0.3,2.9,0.5,4.6,0.5c3.5,0,6.6-0.5,9.2-1.5c2.6-1,4.8-2.3,6.6-4C201.5,114.8,202.8,112.7,203.7,110.2z M113.1,104.4
	c-0.2,2.3-0.8,3.6-1.8,3.8c-1.9,0.5-6.7-1.5-14.7-5.9c2.7-6.3,4.8-9.7,6.2-10.2c1-0.4,2.5,0,4.5,1.3c2,1.3,3.5,2.8,4.4,4.6
	C112.8,99.9,113.3,102,113.1,104.4z"/>
<polygon class="st0" points="172.4,66.6 181.4,75.3 190.5,66.4 181.3,57.5 172.4,66.2 163.4,57.4 154.3,66.3 163.5,75.2 "/>
<polygon class="st0" points="180.9,54.2 172.4,45.9 164,54.1 172.4,62.4 "/>
<path class="st0" d="M410.1,161.1v-28.6l-20.3-20.3C392.1,130.5,399.3,147.2,410.1,161.1z"/>
<path class="st0" d="M427.9,179c13.9,10.8,30.6,18,48.9,20.3L456.5,179H427.9z"/>
<path class="st0" d="M568.8,38.1v28.6L589,87C586.7,68.7,579.5,52,568.8,38.1z"/>
<path class="st0" d="M502,199.2c18.3-2.3,35-9.5,48.9-20.3h-28.6L502,199.2z"/>
<path class="st0" d="M568.8,161.1c10.8-13.9,18-30.6,20.3-48.9l-20.3,20.3V161.1z"/>
<polygon class="st0" points="560.4,58.4 560.4,28.6 530.6,28.6 "/>
<polygon class="st0" points="568.8,78.6 568.8,120.6 589.8,99.6 "/>
<polygon class="st0" points="560.4,170.6 560.4,140.8 530.6,170.6 "/>
<polygon class="st0" points="468.4,179 489.4,200 510.4,179 "/>
<polygon class="st0" points="418.4,140.8 418.4,170.6 448.2,170.6 "/>
<polygon class="st0" points="410.1,120.6 410.1,78.6 389,99.6 "/>
<path class="st0" d="M524.7,34.5c-3.8-3.8-8.9-5.9-14.2-5.9h-29.2c-4.6,0-8.5-3.1-9.7-7.5c-1.9-7.3-0.2-15.3,5.3-21.1
	c-3.5,0.8-6.9,2.6-9.6,5.3c-2.7,2.7-4.5,6-5.3,9.4c-0.7-1-1.5-2-2.4-2.9c-2.5-2.5-5.4-4.1-8.5-5.1c-1.5,2.8-2.4,6.1-2.4,9.6
	c0,1.3,0.1,2.5,0.4,3.7c-3-1.9-6.6-2.9-10.4-2.9c-3.9,0-7.5,1.1-10.6,3c8,0.3,14.9,4.7,18.7,11.2c2.3,3.9,1.7,8.9-1.6,12.2
	l-20.7,20.7c-3.8,3.8-5.9,8.9-5.9,14.2v42.2c0,5.3,2.1,10.4,5.9,14.2l29.8,29.8c3.8,3.8,8.9,5.9,14.2,5.9l42.2,0
	c5.3,0,10.4-2.1,14.2-5.9l29.8-29.8c3.8-3.8,5.9-8.9,5.9-14.2V78.5c0-5.3-2.1-10.4-5.9-14.2L524.7,34.5z"/>
</svg>
